<?xml version="1.0" encoding="UTF-8"?>
<svg version="1.1" xmlns="http://www.w3.org/2000/svg" width="300" height="300">
<path d="M0 0 C99 0 198 0 300 0 C300 58.08 300 116.16 300 176 C201 176 102 176 0 176 C0 117.92 0 59.84 0 0 Z " fill="#2C2A7C" transform="translate(0,62)"/>
<path d="M0 0 C20.66479412 0 20.66479412 0 30 5.6484375 C34.12149241 8.08515811 38.32652261 10.33217918 42.5625 12.5625 C43.60954102 13.12203369 43.60954102 13.12203369 44.67773438 13.69287109 C51.66238956 17.41056244 58.80206926 20.71550733 66 24 C66 16.41 66 8.82 66 1 C74.58 1 83.16 1 92 1 C92 8.59 92 16.18 92 24 C95.25101562 22.3396875 98.50203125 20.679375 101.8515625 18.96875 C105.00749537 17.36738127 108.16549783 15.7701672 111.32373047 14.17333984 C113.5160347 13.06210976 115.70616472 11.94657931 117.89404297 10.82666016 C121.04091432 9.21679905 124.1953039 7.62261134 127.3515625 6.03125 C128.32678864 5.52815308 129.30201477 5.02505615 130.30679321 4.50671387 C138.73457554 0.2907481 138.73457554 0.2907481 144 1 C141.28431655 3.13645431 138.59885915 4.82298094 135.50683594 6.36010742 C134.62622498 6.80033737 133.74561401 7.24056732 132.83831787 7.69413757 C131.89651672 8.15987686 130.95471558 8.62561615 129.984375 9.10546875 C128.52792572 9.83157097 128.52792572 9.83157097 127.04205322 10.57234192 C123.94656232 12.11449889 120.84833329 13.65106294 117.75 15.1875 C115.64825449 16.23335627 113.54668979 17.27957597 111.4453125 18.32617188 C106.29896405 20.88833235 101.15035754 23.44590887 96 26 C102.68760961 26.39274706 107.5177342 25.98380158 113.4140625 22.78125 C114.07223969 22.44508667 114.73041687 22.10892334 115.40853882 21.76257324 C117.49100086 20.69370927 119.55777265 19.59798679 121.625 18.5 C122.98470288 17.79499292 124.34537698 17.09185573 125.70703125 16.390625 C128.42752648 14.98675025 131.14358001 13.57480965 133.85644531 12.15625 C138.14708854 9.91796488 142.45357194 7.71257622 146.7734375 5.53125 C147.43969147 5.19097778 148.10594543 4.85070557 148.79238892 4.50012207 C151.89511021 2.94063178 154.60608515 1.84847871 158 1 C158 3.97 158 6.94 158 10 C157.14003418 10.40726318 157.14003418 10.40726318 156.26269531 10.82275391 C153.59117415 12.0888599 150.9205872 13.35692526 148.25 14.625 C147.34894531 15.05167969 146.44789063 15.47835937 145.51953125 15.91796875 C138.63048154 19.19148883 131.82558293 22.58720854 125 26 C141.335 26.495 141.335 26.495 158 27 C158 35.58 158 44.16 158 53 C141.665 53.495 141.665 53.495 125 54 C127.84625 55.340625 130.6925 56.68125 133.625 58.0625 C141.80905226 61.92846884 149.92822234 65.90485668 158 70 C158 70.99 158 71.98 158 73 C152.77741769 71.41233498 147.97423363 69.22141383 143.0625 66.875 C142.22855713 66.4819165 141.39461426 66.08883301 140.53540039 65.68383789 C136.54169545 63.7812934 132.61374627 61.82638566 128.7734375 59.62890625 C128.12238037 59.25975098 127.47132324 58.8905957 126.80053711 58.51025391 C125.05253748 57.50373964 123.32053571 56.46958555 121.58984375 55.43359375 C117.09644233 53.38188679 117.09644233 53.38188679 108 54 C123.84 61.92 139.68 69.84 156 78 C156 78.33 156 78.66 156 79 C140.27004145 80.81079967 129.77992312 76.02191412 116.125 68.625 C114.21920981 67.62683711 112.31166281 66.63202105 110.40234375 65.640625 C106.23626853 63.47007826 102.08824094 61.26899481 97.95437622 59.03775024 C95.98643398 57.99279661 93.99293246 56.99646623 92 56 C92 63.59 92 71.18 92 79 C83.42 79 74.84 79 66 79 C66 71.41 66 63.82 66 56 C57.2854033 60.02775478 48.65379193 64.09871591 40.1875 68.625 C39.48270508 69.00060059 38.77791016 69.37620117 38.05175781 69.76318359 C35.42775357 71.16342874 32.80446597 72.56480776 30.18847656 73.97998047 C28.56931946 74.85236717 26.9411479 75.70796252 25.3125 76.5625 C24.42175781 77.03816406 23.53101562 77.51382813 22.61328125 78.00390625 C19.5923089 79.15539795 17.20653485 79.18309643 14 79 C15.30580045 76.38839909 16.49749951 76.11605642 19.12890625 74.8984375 C19.99153076 74.49455811 20.85415527 74.09067871 21.74291992 73.67456055 C22.67338135 73.24570557 23.60384277 72.81685059 24.5625 72.375 C26.48756595 71.47390878 28.41203974 70.57155146 30.3359375 69.66796875 C31.77404785 68.99386963 31.77404785 68.99386963 33.24121094 68.30615234 C37.08395716 66.48679905 40.89032423 64.59980029 44.6875 62.6875 C45.33082275 62.36378418 45.97414551 62.04006836 46.63696289 61.70654297 C48.42514097 60.80535152 50.21258928 59.90271247 52 59 C53.99951267 57.99902593 55.99944072 56.99888065 58 56 C58.78375 55.608125 59.5675 55.21625 60.375 54.8125 C60.91125 54.544375 61.4475 54.27625 62 54 C52.77577283 52.40349914 45.89194682 56.62216957 38.08789062 60.87548828 C34.80650717 62.64280028 31.46583592 64.28622485 28.125 65.9375 C23.76293577 68.11089468 19.40828127 70.29811859 15.0625 72.50390625 C13.82862549 73.12761108 13.82862549 73.12761108 12.56982422 73.76391602 C10.96564743 74.57497524 9.3630482 75.38916385 7.76220703 76.20678711 C2.2251204 79 2.2251204 79 0 79 C0 52.93 0 26.86 0 0 Z " fill="#E92028" transform="translate(0,62)"/>
<path d="M0 0 C13.08542038 -0.81783877 20.78592241 0.20086402 31.98046875 6.81933594 C35.44735469 8.84615659 39.00969886 10.69188417 42.5625 12.5625 C43.60954102 13.12203369 43.60954102 13.12203369 44.67773438 13.69287109 C51.66238956 17.41056244 58.80206926 20.71550733 66 24 C66 16.41 66 8.82 66 1 C67.65 1 69.3 1 71 1 C71 11.23 71 21.46 71 32 C47.57 32 24.14 32 0 32 C0 21.44 0 10.88 0 0 Z " fill="#FBFAFB" transform="translate(0,62)"/>
<path d="M0 0 C23.43 0 46.86 0 71 0 C71 10.23 71 20.46 71 31 C69.35 31 67.7 31 66 31 C66 23.41 66 15.82 66 8 C57.2854033 12.02775478 48.65379193 16.09871591 40.1875 20.625 C39.48270508 21.00060059 38.77791016 21.37620117 38.05175781 21.76318359 C35.42775357 23.16342874 32.80446597 24.56480776 30.18847656 25.97998047 C28.56931946 26.85236717 26.9411479 27.70796252 25.3125 28.5625 C24.42175781 29.03816406 23.53101562 29.51382813 22.61328125 30.00390625 C19.5923089 31.15539795 17.20653485 31.18309643 14 31 C15.30580045 28.38839909 16.49749951 28.11605642 19.12890625 26.8984375 C19.99153076 26.49455811 20.85415527 26.09067871 21.74291992 25.67456055 C23.13861206 25.03127808 23.13861206 25.03127808 24.5625 24.375 C26.48756595 23.47390878 28.41203974 22.57155146 30.3359375 21.66796875 C31.29467773 21.21856934 32.25341797 20.76916992 33.24121094 20.30615234 C37.08395716 18.48679905 40.89032423 16.59980029 44.6875 14.6875 C45.33082275 14.36378418 45.97414551 14.04006836 46.63696289 13.70654297 C48.42514097 12.80535152 50.21258928 11.90271247 52 11 C53.99951267 9.99902593 55.99944072 8.99888065 58 8 C58.78375 7.608125 59.5675 7.21625 60.375 6.8125 C60.91125 6.544375 61.4475 6.27625 62 6 C52.77577283 4.40349914 45.89194682 8.62216957 38.08789062 12.87548828 C34.80650717 14.64280028 31.46583592 16.28622485 28.125 17.9375 C23.76293577 20.11089468 19.40828127 22.29811859 15.0625 24.50390625 C14.23991699 24.91970947 13.41733398 25.3355127 12.56982422 25.76391602 C10.96564743 26.57497524 9.3630482 27.38916385 7.76220703 28.20678711 C2.2251204 31 2.2251204 31 0 31 C0 20.77 0 10.54 0 0 Z " fill="#FDFBFC" transform="translate(0,110)"/>
<path d="M0 0 C23.43 0 46.86 0 71 0 C71 1.65 71 3.3 71 5 C54.665 5.495 54.665 5.495 38 6 C40.84625 7.340625 43.6925 8.68125 46.625 10.0625 C54.80905226 13.92846884 62.92822234 17.90485668 71 22 C71 22.99 71 23.98 71 25 C65.77741769 23.41233498 60.97423363 21.22141383 56.0625 18.875 C55.22855713 18.4819165 54.39461426 18.08883301 53.53540039 17.68383789 C49.54169545 15.7812934 45.61374627 13.82638566 41.7734375 11.62890625 C41.12238037 11.25975098 40.47132324 10.8905957 39.80053711 10.51025391 C38.05253748 9.50373964 36.32053571 8.46958555 34.58984375 7.43359375 C30.09644233 5.38188679 30.09644233 5.38188679 21 6 C36.84 13.92 52.68 21.84 69 30 C69 30.33 69 30.66 69 31 C53.27004145 32.81079967 42.77992312 28.02191412 29.125 20.625 C27.21920981 19.62683711 25.31166281 18.63202105 23.40234375 17.640625 C19.23626853 15.47007826 15.08824094 13.26899481 10.95437622 11.03775024 C8.98643398 9.99279661 6.99293246 8.99646623 5 8 C5 15.59 5 23.18 5 31 C3.35 31 1.7 31 0 31 C0 20.77 0 10.54 0 0 Z " fill="#FCFAFB" transform="translate(87,110)"/>
<path d="M0 0 C1.65 0 3.3 0 5 0 C5 7.59 5 15.18 5 23 C8.25101563 21.3396875 11.50203125 19.679375 14.8515625 17.96875 C18.00749537 16.36738127 21.16549783 14.7701672 24.32373047 13.17333984 C26.5160347 12.06210976 28.70616472 10.94657931 30.89404297 9.82666016 C34.04091432 8.21679905 37.1953039 6.62261134 40.3515625 5.03125 C41.32678864 4.52815308 42.30201477 4.02505615 43.30679321 3.50671387 C51.73457554 -0.7092519 51.73457554 -0.7092519 57 0 C54.28431655 2.13645431 51.59885915 3.82298094 48.50683594 5.36010742 C47.62622498 5.80033737 46.74561401 6.24056732 45.83831787 6.69413757 C44.89651672 7.15987686 43.95471558 7.62561615 42.984375 8.10546875 C42.01340881 8.5895369 41.04244263 9.07360504 40.04205322 9.57234192 C36.94656232 11.11449889 33.84833329 12.65106294 30.75 14.1875 C28.64825449 15.23335627 26.54668979 16.27957597 24.4453125 17.32617188 C19.29896405 19.88833235 14.15035754 22.44590887 9 25 C15.68760961 25.39274706 20.5177342 24.98380158 26.4140625 21.78125 C27.07223969 21.44508667 27.73041687 21.10892334 28.40853882 20.76257324 C30.49100086 19.69370927 32.55777265 18.59798679 34.625 17.5 C35.98470288 16.79499292 37.34537698 16.09185573 38.70703125 15.390625 C41.42752648 13.98675025 44.14358001 12.57480965 46.85644531 11.15625 C51.14708854 8.91796488 55.45357194 6.71257622 59.7734375 4.53125 C60.77281845 4.02084167 60.77281845 4.02084167 61.79238892 3.50012207 C64.89511021 1.94063178 67.60608515 0.84847871 71 0 C71 2.97 71 5.94 71 9 C70.42668945 9.27150879 69.85337891 9.54301758 69.26269531 9.82275391 C66.59117415 11.0888599 63.9205872 12.35692526 61.25 13.625 C59.89841797 14.26501953 59.89841797 14.26501953 58.51953125 14.91796875 C51.63048154 18.19148883 44.82558293 21.58720854 38 25 C54.335 25.495 54.335 25.495 71 26 C71 27.65 71 29.3 71 31 C47.57 31 24.14 31 0 31 C0 20.77 0 10.54 0 0 Z " fill="#FDFBFC" transform="translate(87,63)"/>
<path d="M0 0 C0.66 0 1.32 0 2 0 C2.50559908 1.43554025 3.0042749 2.8735202 3.5 4.3125 C3.7784375 5.11300781 4.056875 5.91351563 4.34375 6.73828125 C5 9 5 9 5 12 C5.84304687 11.69964844 6.68609375 11.39929688 7.5546875 11.08984375 C8.65039062 10.70957031 9.74609375 10.32929688 10.875 9.9375 C11.96554688 9.55464844 13.05609375 9.17179688 14.1796875 8.77734375 C17 8 17 8 19 9 C18.36771484 9.92232422 18.36771484 9.92232422 17.72265625 10.86328125 C16.90087891 12.07564453 16.90087891 12.07564453 16.0625 13.3125 C15.51722656 14.11300781 14.97195312 14.91351563 14.41015625 15.73828125 C12.86162674 18.0258143 12.86162674 18.0258143 12 21 C12.70125 21.2475 13.4025 21.495 14.125 21.75 C17.38087894 23.16559954 20.12368559 24.92637798 23 27 C23 27.33 23 27.66 23 28 C18.38 28.33 13.76 28.66 9 29 C9.66 33.62 10.32 38.24 11 43 C8.95880212 41.38405168 6.95927063 39.7143618 5 38 C5 37.34 5 36.68 5 36 C3.515 35.505 3.515 35.505 2 35 C2 34.34 2 33.68 2 33 C1.29875 33.721875 0.5975 34.44375 -0.125 35.1875 C-2.92770745 37.99823813 -5.92262792 40.49516226 -9 43 C-8.67 38.38 -8.34 33.76 -8 29 C-14.93 28.505 -14.93 28.505 -22 28 C-18.74190431 24.74190431 -16.04733782 23.13405085 -12 21 C-11.34 21 -10.68 21 -10 21 C-10.33773437 20.39671875 -10.67546875 19.7934375 -11.0234375 19.171875 C-11.46945313 18.37265625 -11.91546875 17.5734375 -12.375 16.75 C-12.81585938 15.96109375 -13.25671875 15.1721875 -13.7109375 14.359375 C-14.85747823 12.26085803 -15.94649552 10.1463923 -17 8 C-16.32453125 8.20496094 -15.6490625 8.40992188 -14.953125 8.62109375 C-14.06109375 8.89050781 -13.1690625 9.15992188 -12.25 9.4375 C-11.36828125 9.70433594 -10.4865625 9.97117188 -9.578125 10.24609375 C-7.39434165 10.88468494 -5.21164502 11.46775833 -3 12 C-2.80083984 11.07767578 -2.80083984 11.07767578 -2.59765625 10.13671875 C-2.33275391 8.92435547 -2.33275391 8.92435547 -2.0625 7.6875 C-1.80146484 6.48673828 -1.80146484 6.48673828 -1.53515625 5.26171875 C-1 3 -1 3 0 0 Z " fill="#F8F8FA" transform="translate(78,171)"/>
<path d="M0 0 C5.94 0 11.88 0 18 0 C14.37186952 2.72109786 10.81005973 4.69383842 6.765625 6.65625 C1.76628397 9.11502684 -3.20594511 11.609725 -8.1295166 14.21728516 C-10.81842787 15.63983755 -13.51869702 17.04007747 -16.21972656 18.43945312 C-17.58477167 19.15250699 -18.94542464 19.87402658 -20.30175781 20.60351562 C-28.88358371 25.20720117 -35.98883032 28.27440632 -46 27 C-43.28431655 24.86354569 -40.59885915 23.17701906 -37.50683594 21.63989258 C-36.62622498 21.19966263 -35.74561401 20.75943268 -34.83831787 20.30586243 C-33.42561615 19.60725349 -33.42561615 19.60725349 -31.984375 18.89453125 C-31.01340881 18.4104631 -30.04244263 17.92639496 -29.04205322 17.42765808 C-25.94656232 15.88550111 -22.84833329 14.34893706 -19.75 12.8125 C-17.64825449 11.76664373 -15.54668979 10.72042403 -13.4453125 9.67382812 C-8.29896405 7.11166765 -3.15035754 4.55409113 2 2 C1.34 1.34 0.68 0.68 0 0 Z " fill="#E72E36" transform="translate(140,62)"/>
<path d="M0 0 C7.87254652 2.24929901 7.87254652 2.24929901 11.55859375 4.2421875 C12.75645508 4.88220703 12.75645508 4.88220703 13.97851562 5.53515625 C15.19571289 6.19837891 15.19571289 6.19837891 16.4375 6.875 C18.06077844 7.74817611 19.68447246 8.6205801 21.30859375 9.4921875 C22.08831543 9.91209961 22.86803711 10.33201172 23.67138672 10.76464844 C27.08310274 12.57459634 30.53704334 14.29038879 34 16 C34 16.33 34 16.66 34 17 C22.78 17 11.56 17 0 17 C0 11.39 0 5.78 0 0 Z " fill="#323180" transform="translate(0,72)"/>
<path d="M0 0 C11.22 0 22.44 0 34 0 C32.60949221 2.78101558 30.95359616 3.14922613 28.15234375 4.4609375 C27.15396484 4.93273437 26.15558594 5.40453125 25.12695312 5.890625 C24.07443359 6.38046875 23.02191406 6.8703125 21.9375 7.375 C19.88382269 8.34052522 17.83043194 9.30666021 15.77734375 10.2734375 C14.79233887 10.73459961 13.80733398 11.19576172 12.79248047 11.67089844 C10.29836031 12.85799322 7.83637602 14.09089439 5.37890625 15.3515625 C2 17 2 17 0 17 C0 11.39 0 5.78 0 0 Z " fill="#312F7F" transform="translate(0,115)"/>
<path d="M0 0 C1.45019531 0.04060547 1.45019531 0.04060547 2.9296875 0.08203125 C3.65414062 0.11683594 4.37859375 0.15164062 5.125 0.1875 C2.34557462 3.64586898 -1.55630962 5.05062287 -5.5 6.8125 C-11.66559923 9.63594299 -17.7098034 12.61033211 -23.6875 15.8125 C-24.75158081 16.37626343 -24.75158081 16.37626343 -25.8371582 16.95141602 C-28.98259932 18.62120906 -32.09878265 20.31601669 -35.1875 22.08984375 C-42.28291403 26.0163424 -47.79354852 26.96125599 -55.875 26.1875 C-52.37397525 23.35122679 -48.53524563 21.27420408 -44.5625 19.1875 C-43.83699951 18.8044873 -43.11149902 18.42147461 -42.36401367 18.02685547 C-33.11473939 13.19720417 -23.67533078 8.75013229 -14.22949219 4.32055664 C-12.31271726 3.39814349 -10.43291633 2.39920633 -8.56640625 1.37890625 C-5.49148336 0.01772848 -3.34236236 -0.12228155 0 0 Z " fill="#E9272F" transform="translate(57.875,114.8125)"/>
<path d="M0 0 C5.90011292 1.70178953 11.1903549 4.46863485 16.6484375 7.2265625 C17.66096588 7.73424164 18.67349426 8.24192078 19.71670532 8.76498413 C22.93804008 10.38123185 26.15654232 12.00303193 29.375 13.625 C31.56361734 14.72432621 33.75241741 15.82328871 35.94140625 16.921875 C41.29639535 19.61037249 46.64907206 22.30342944 52 25 C52 25.33 52 25.66 52 26 C41.59055664 27.41946955 34.89701197 24.0302451 26.09960938 19.14648438 C22.61767496 17.24518624 19.05686767 15.50577328 15.5 13.75 C14.23919898 13.12056096 12.97876956 12.49037692 11.71875 11.859375 C10.81962891 11.40981445 10.81962891 11.40981445 9.90234375 10.95117188 C6.6015625 9.30078125 3.30078125 7.65039062 0 6 C0 4.02 0 2.04 0 0 Z " fill="#EA2A31" transform="translate(0,63)"/>
<path d="M0 0 C10.0894669 -1.35277768 16.4564076 1.90686277 24.84765625 6.80175781 C28.81784887 9.01202385 32.94423461 10.8969446 37.0625 12.8125 C38.63684984 13.54789651 40.21107486 14.28356031 41.78515625 15.01953125 C42.50461426 15.35549316 43.22407227 15.69145508 43.96533203 16.03759766 C46.66569404 17.31487472 49.33597784 18.64880796 52 20 C52 21.98 52 23.96 52 26 C46.09988708 24.29821047 40.8096451 21.53136515 35.3515625 18.7734375 C34.33903412 18.26575836 33.32650574 17.75807922 32.28329468 17.23501587 C29.06195992 15.61876815 25.84345768 13.99696807 22.625 12.375 C20.43638266 11.27567379 18.24758259 10.17671129 16.05859375 9.078125 C10.70360465 6.38962751 5.35092794 3.69657056 0 1 C0 0.67 0 0.34 0 0 Z " fill="#E9272F" transform="translate(106,115)"/>
<path d="M0 0 C2 2 2 2 2 5 C3.98 4.67 5.96 4.34 8 4 C7.34 5.98 6.68 7.96 6 10 C7.65 10.66 9.3 11.32 11 12 C11 12.33 11 12.66 11 13 C9.02 13 7.04 13 5 13 C5 15.31 5 17.62 5 20 C3.35 18.68 1.7 17.36 0 16 C-1.32 16.99 -2.64 17.98 -4 19 C-4 17.02 -4 15.04 -4 13 C-5.98 13 -7.96 13 -10 13 C-8.625 11.5 -8.625 11.5 -7 10 C-6.34 10 -5.68 10 -5 10 C-5.515625 9.21625 -6.03125 8.4325 -6.5625 7.625 C-7.036875 6.75875 -7.51125 5.8925 -8 5 C-7.67 4.34 -7.34 3.68 -7 3 C-5.35 3.33 -3.7 3.66 -2 4 C-1.34 2.68 -0.68 1.36 0 0 Z " fill="#F0F0F6" transform="translate(197,134)"/>
<path d="M0 0 C2 2 2 2 4 5 C5.98 4.34 7.96 3.68 10 3 C8.68 5.31 7.36 7.62 6 10 C7.65 10.66 9.3 11.32 11 12 C11 12.33 11 12.66 11 13 C9.02 13 7.04 13 5 13 C5 14.98 5 16.96 5 19 C4.2575 18.608125 3.515 18.21625 2.75 17.8125 C1.8425 17.544375 0.935 17.27625 0 17 C-2.32511472 18.26352052 -2.32511472 18.26352052 -4 20 C-3.67 17.69 -3.34 15.38 -3 13 C-5.31 13 -7.62 13 -10 13 C-8.68 12.01 -7.36 11.02 -6 10 C-6.165 9.401875 -6.33 8.80375 -6.5 8.1875 C-7 6 -7 6 -7 3 C-5.02 3.99 -3.04 4.98 -1 6 C-0.67 4.02 -0.34 2.04 0 0 Z " fill="#F2F2F7" transform="translate(236,91)"/>
<path d="M0 0 C1.32 1.65 2.64 3.3 4 5 C5.65 4.67 7.3 4.34 9 4 C8.01 5.98 7.02 7.96 6 10 C7.65 10.66 9.3 11.32 11 12 C11 12.33 11 12.66 11 13 C9.02 13 7.04 13 5 13 C5 14.98 5 16.96 5 19 C4.2575 18.608125 3.515 18.21625 2.75 17.8125 C1.8425 17.544375 0.935 17.27625 0 17 C-2.32511472 18.26352052 -2.32511472 18.26352052 -4 20 C-3.67 18.02 -3.34 16.04 -3 14 C-5.97 13.505 -5.97 13.505 -9 13 C-7.68 11.68 -6.36 10.36 -5 9 C-5.66 7.35 -6.32 5.7 -7 4 C-5.02 4.66 -3.04 5.32 -1 6 C-0.67 4.02 -0.34 2.04 0 0 Z " fill="#F2F2F7" transform="translate(236,196)"/>
<path d="M0 0 C2.51083114 1.25541557 2.87125446 2.50063488 4 5 C5.65 4.67 7.3 4.34 9 4 C8.34 5.98 7.68 7.96 7 10 C8.32 10.99 9.64 11.98 11 13 C9.02 13 7.04 13 5 13 C5 14.98 5 16.96 5 19 C4.2575 18.608125 3.515 18.21625 2.75 17.8125 C1.8425 17.544375 0.935 17.27625 0 17 C-2.32511472 18.26352052 -2.32511472 18.26352052 -4 20 C-3.67 17.69 -3.34 15.38 -3 13 C-4.98 13 -6.96 13 -9 13 C-7.625 11.5 -7.625 11.5 -6 10 C-5.34 10 -4.68 10 -4 10 C-4.495 9.38125 -4.99 8.7625 -5.5 8.125 C-7 6 -7 6 -7 4 C-5.02 4.66 -3.04 5.32 -1 6 C-0.67 4.02 -0.34 2.04 0 0 Z " fill="#F7F7FA" transform="translate(271,123)"/>
<path d="M0 0 C-2.71568345 2.13645431 -5.40114085 3.82298094 -8.49316406 5.36010742 C-9.37377502 5.80033737 -10.25438599 6.24056732 -11.16168213 6.69413757 C-12.10348328 7.15987686 -13.04528442 7.62561615 -14.015625 8.10546875 C-14.98659119 8.5895369 -15.95755737 9.07360504 -16.95794678 9.57234192 C-20.05343768 11.11449889 -23.15166671 12.65106294 -26.25 14.1875 C-28.35174551 15.23335627 -30.45331021 16.27957597 -32.5546875 17.32617188 C-37.70103595 19.88833235 -42.84964246 22.44590887 -48 25 C-48.66 24.01 -49.32 23.02 -50 22 C-43.85212171 18.84992168 -37.69486473 15.71879478 -31.53076172 12.60058594 C-29.43546031 11.53785996 -27.34233427 10.47083347 -25.25146484 9.39941406 C-22.24359347 7.85904098 -19.22820714 6.33436419 -16.2109375 4.8125 C-15.27945892 4.33127686 -14.34798035 3.85005371 -13.38827515 3.35424805 C-8.77613426 1.04699063 -5.30068372 -0.67505089 0 0 Z " fill="#F2ECF1" transform="translate(144,63)"/>
<path d="M0 0 C0.721875 0.226875 1.44375 0.45375 2.1875 0.6875 C-0.56137931 3.43637931 -3.88039038 4.66660783 -7.375 6.25 C-15.09908788 9.81043196 -22.61682171 13.67847311 -30.10546875 17.70703125 C-31.34089969 18.36764802 -32.57656271 19.02783103 -33.8125 19.6875 C-34.89402344 20.265 -35.97554687 20.8425 -37.08984375 21.4375 C-40.20389807 22.86719495 -42.42462062 22.92949138 -45.8125 22.6875 C-44.50669955 20.07589909 -43.31500049 19.80355642 -40.68359375 18.5859375 C-39.38905273 17.97987671 -39.38905273 17.97987671 -38.06835938 17.36157227 C-37.13830078 16.93287842 -36.20824219 16.50418457 -35.25 16.0625 C-33.33146661 15.16396504 -31.41350355 14.26421139 -29.49609375 13.36328125 C-28.53815918 12.9142041 -27.58022461 12.46512695 -26.59326172 12.00244141 C-22.64160739 10.13381891 -18.72182895 8.20536382 -14.8125 6.25 C-13.85428345 5.77409424 -13.85428345 5.77409424 -12.87670898 5.28857422 C-10.18710419 3.93997141 -7.59700941 2.5515611 -5.05078125 0.9453125 C-2.8125 -0.3125 -2.8125 -0.3125 0 0 Z " fill="#F4ECF0" transform="translate(59.8125,118.3125)"/>
<path d="M0 0 C6.75194415 1.89528257 12.57603606 4.75423939 18.68188477 8.13085938 C22.05600168 9.99305036 25.38140118 11.66719547 29 13 C29 13.99 29 14.98 29 16 C23.5384282 14.35441241 18.51102064 12.00803598 13.375 9.5625 C12.529375 9.16740234 11.68375 8.77230469 10.8125 8.36523438 C9.58660156 7.78418945 9.58660156 7.78418945 8.3359375 7.19140625 C7.59907715 6.84279541 6.8622168 6.49418457 6.10302734 6.13500977 C3.86663618 4.92802317 1.92705199 3.65848374 0 2 C0 1.34 0 0.68 0 0 Z " fill="#F4ECF0" transform="translate(129,119)"/>
<path d="M0 0 C4.96524101 1.49733049 9.40406643 3.58337989 14 5.9375 C14.68578125 6.28490234 15.3715625 6.63230469 16.078125 6.99023438 C17.42005667 7.6701635 18.76123137 8.35158914 20.1015625 9.03466797 C22.72762326 10.36998744 25.36332882 11.68578421 28 13 C27.67 13.99 27.34 14.98 27 16 C23.9992992 14.58481442 20.99957233 13.16757567 18 11.75 C17.16082031 11.35425781 16.32164063 10.95851563 15.45703125 10.55078125 C10.27056694 8.09826712 5.12192163 5.58467342 0 3 C0 2.01 0 1.02 0 0 Z " fill="#EFEBF0" transform="translate(0,69)"/>
<path d="M0 0 C0.66 0.33 1.32 0.66 2 1 C2 1.66 2 2.32 2 3 C3.32 3 4.64 3 6 3 C5.34 5.31 4.68 7.62 4 10 C1.69 10 -0.62 10 -3 10 C-2.67 8.68 -2.34 7.36 -2 6 C-2.99 5.67 -3.98 5.34 -5 5 C-5 4.34 -5 3.68 -5 3 C-3.68 3 -2.36 3 -1 3 C-0.67 2.01 -0.34 1.02 0 0 Z " fill="#E8E8F1" transform="translate(252,155)"/>
</svg>
