<?xml version="1.0" encoding="UTF-8"?>
<svg version="1.1" xmlns="http://www.w3.org/2000/svg" width="300" height="300">
<path d="M0 0 C99 0 198 0 300 0 C300 65.34 300 130.68 300 198 C201 198 102 198 0 198 C0 132.66 0 67.32 0 0 Z " fill="#FEFEFE" transform="translate(0,55)"/>
<path d="M0 0 C25.08 0 50.16 0 76 0 C76 65.34 76 130.68 76 198 C50.92 198 25.84 198 0 198 C0 132.66 0 67.32 0 0 Z " fill="#E01F26" transform="translate(224,55)"/>
<path d="M0 0 C25.08 0 50.16 0 76 0 C76 65.34 76 130.68 76 198 C50.92 198 25.84 198 0 198 C0 132.66 0 67.32 0 0 Z " fill="#E12027" transform="translate(0,55)"/>
<path d="M0 0 C3.35363767 1.67681883 4.06574275 5.4835859 5.4375 8.8125 C8.05839205 15.27865904 8.05839205 15.27865904 12 21 C16.28266193 20.51333387 18.68171848 19.72573125 22 17 C22.66 17 23.32 17 24 17 C23.16624837 24.42477766 21.79146819 31.71036859 20.37304688 39.04296875 C19.48760186 43.75885539 18.74821788 48.17552969 19 53 C26.12441239 50.09746162 31.06330144 42.62269141 36 37 C37.7136207 39.27506338 39.40203982 41.56041914 41.0625 43.875 C43.71665183 46.25567801 43.71665183 46.25567801 46.37109375 45.90625 C48.95867616 45.38335073 51.46144137 44.72190261 54 44 C55.66394675 43.65334443 57.32998117 43.31611071 59 43 C58.03399066 47.43953228 57.04789624 51.86001694 55.875 56.25 C55.14742512 59.36817805 54.80202388 61.83238216 55 65 C56.65 65.66 58.3 66.32 60 67 C60 67.66 60 68.32 60 69 C58.5234375 70.3046875 58.5234375 70.3046875 56.375 71.875 C52.03738358 75.15231018 47.87579028 78.58814265 43.75 82.125 C43.16009277 82.62757324 42.57018555 83.13014648 41.96240234 83.64794922 C40.29309741 85.08235338 38.64404437 86.53676496 37 88 C35.54980469 89.27617187 35.54980469 89.27617187 34.0703125 90.578125 C31.81143835 92.77377631 31.81143835 92.77377631 31.6953125 95.3515625 C31.83710938 96.10179687 31.97890625 96.85203125 32.125 97.625 C32.31449219 98.75808594 32.31449219 98.75808594 32.5078125 99.9140625 C33.00807804 102.17408767 33.00807804 102.17408767 34 105 C33.41621582 104.91435791 32.83243164 104.82871582 32.23095703 104.74047852 C29.5293049 104.34549857 26.82716062 103.95398553 24.125 103.5625 C22.74828125 103.36043945 22.74828125 103.36043945 21.34375 103.15429688 C19.97089844 102.95610352 19.97089844 102.95610352 18.5703125 102.75390625 C17.74289551 102.63345947 16.91547852 102.5130127 16.06298828 102.38891602 C11.71899249 101.83734697 7.35714138 101.43571414 3 101 C3 111.23 3 121.46 3 132 C1.02 132 -0.96 132 -3 132 C-2.67 121.77 -2.34 111.54 -2 101 C-9.80983363 101.7612081 -9.80983363 101.7612081 -17.5703125 102.75390625 C-18.48554688 102.88603516 -19.40078125 103.01816406 -20.34375 103.15429688 C-21.2615625 103.28900391 -22.179375 103.42371094 -23.125 103.5625 C-24.08148438 103.70107422 -25.03796875 103.83964844 -26.0234375 103.98242188 C-28.34924935 104.31966459 -30.67475384 104.6588826 -33 105 C-32.67902344 104.07316406 -32.35804687 103.14632812 -32.02734375 102.19140625 C-30.92657144 98.77189682 -30.47033956 96.55629154 -31 93 C-32.60013503 91.2693575 -34.27896589 89.61046488 -36 88 C-37.25876953 86.81470703 -37.25876953 86.81470703 -38.54296875 85.60546875 C-43.87007144 80.73475004 -49.2736783 76.08305295 -55.00390625 71.69140625 C-57 70 -57 70 -59 67 C-56.525 66.505 -56.525 66.505 -54 66 C-54.38716863 59.72519805 -55.37724803 54.09557165 -57.37890625 48.12890625 C-58 46 -58 46 -58 43 C-57.19175781 43.22816406 -56.38351563 43.45632812 -55.55078125 43.69140625 C-54.48214844 43.97886719 -53.41351563 44.26632813 -52.3125 44.5625 C-51.25675781 44.85253906 -50.20101562 45.14257812 -49.11328125 45.44140625 C-45.90447174 46.01713995 -44.0490033 46.12771355 -41 45 C-39.34020013 43.18596597 -39.34020013 43.18596597 -38.1875 40.9375 C-37.76855469 40.20402344 -37.34960938 39.47054687 -36.91796875 38.71484375 C-36.61503906 38.14894531 -36.31210938 37.58304688 -36 37 C-32.08189576 40.79566348 -28.55611544 44.82078894 -25.0625 49.01171875 C-22.81943345 51.17406889 -20.94056601 52.04533708 -18 53 C-18.34982399 44.39432989 -19.84073505 36.2462896 -21.71582031 27.85644531 C-21.89467773 27.02725586 -22.07353516 26.19806641 -22.2578125 25.34375 C-22.50748779 24.23290039 -22.50748779 24.23290039 -22.76220703 23.09960938 C-23.02244363 20.80183246 -22.69251063 19.1907843 -22 17 C-19.50976562 18.61132812 -19.50976562 18.61132812 -17.01953125 20.22265625 C-14.10293129 21.34529337 -12.88111335 21.26661949 -10 20 C-8.22470278 17.57193427 -7.04069751 14.92401024 -5.8125 12.1875 C-5.47025391 11.46240234 -5.12800781 10.73730469 -4.77539062 9.99023438 C-4.13591797 8.63306232 -3.50393147 7.27231832 -2.88208008 5.90698242 C-1.96140509 3.91656107 -0.98949485 1.95698884 0 0 Z " fill="#E12027" transform="translate(149,88)"/>
</svg>
