<?xml version="1.0" encoding="UTF-8"?>
<svg version="1.1" xmlns="http://www.w3.org/2000/svg" width="512" height="512">
<path d="M0 0 C0.93541122 -0.00979385 1.87082245 -0.01958771 2.83457947 -0.02967834 C23.24327689 -0.19932767 42.96684461 -0.05341233 63.0078125 4.23828125 C64.05582031 4.45258789 65.10382813 4.66689453 66.18359375 4.88769531 C108.84815542 13.74820132 148.37329889 33.37603669 181.0078125 62.23828125 C182.26078125 63.32496094 182.26078125 63.32496094 183.5390625 64.43359375 C194.61258515 74.17685556 204.96572892 84.57482298 214.0078125 96.23828125 C214.78253906 97.19605469 215.55726563 98.15382813 216.35546875 99.140625 C239.58349785 128.33211006 255.76955455 163.48880717 263.8203125 199.86328125 C264.00295654 200.68280273 264.18560059 201.50232422 264.3737793 202.34667969 C268.04753114 220.10965167 269.56364562 237.74994278 269.4453125 255.86328125 C269.44075043 257.35882538 269.44075043 257.35882538 269.43609619 258.88458252 C269.36245401 275.28976833 268.3978958 291.13925553 265.0078125 307.23828125 C264.68635254 308.78515625 264.68635254 308.78515625 264.35839844 310.36328125 C255.19065178 353.06603134 235.10040051 394.375541 205.0078125 426.23828125 C203.91955443 427.50489991 202.83613065 428.77568971 201.7578125 430.05078125 C193.33422448 439.68331015 184.10767798 448.38754548 174.0078125 456.23828125 C172.53441406 457.41970703 172.53441406 457.41970703 171.03125 458.625 C162.43202953 465.46384588 153.36332528 471.4863574 144.0078125 477.23828125 C143.04367432 477.83189453 143.04367432 477.83189453 142.06005859 478.4375 C117.87537238 493.1275504 90.65472254 502.63463404 63.0078125 508.23828125 C62.0801709 508.43583008 61.1525293 508.63337891 60.19677734 508.83691406 C29.04069219 515.25619177 -5.92129879 514.89198851 -36.9921875 508.23828125 C-38.56419922 507.91682129 -38.56419922 507.91682129 -40.16796875 507.58886719 C-89.22349198 497.40109679 -132.14713438 472.8336521 -167.9921875 438.23828125 C-168.93320313 437.33851563 -169.87421875 436.43875 -170.84375 435.51171875 C-176.21266498 430.27577999 -181.08613066 424.7797784 -185.70703125 418.87402344 C-186.61704048 417.71576701 -187.53446879 416.56332181 -188.45703125 415.41503906 C-201.14326439 399.62052062 -211.41996853 382.57971954 -219.9921875 364.23828125 C-220.28399902 363.62662109 -220.57581055 363.01496094 -220.87646484 362.38476562 C-228.39771616 346.53028594 -234.0186692 329.73930685 -237.8046875 312.61328125 C-237.98725098 311.79400146 -238.16981445 310.97472168 -238.35791016 310.13061523 C-242.0221225 292.41687219 -243.51926808 274.86271095 -243.3671875 256.80078125 C-243.36286713 255.81970398 -243.35854675 254.83862671 -243.35409546 253.82781982 C-243.27992509 239.43642706 -242.77316803 225.39449396 -239.9921875 211.23828125 C-239.83121582 210.34270508 -239.67024414 209.44712891 -239.50439453 208.52441406 C-231.29456383 163.1455804 -210.45028319 121.63510884 -179.9921875 87.23828125 C-178.85136719 85.92923828 -178.85136719 85.92923828 -177.6875 84.59375 C-168.27916131 73.92751987 -158.30587818 63.88241261 -146.9921875 55.23828125 C-146.32477539 54.72152832 -145.65736328 54.20477539 -144.96972656 53.67236328 C-133.50378882 44.83203952 -121.73628986 37.10526271 -108.9921875 30.23828125 C-108.33750488 29.88072754 -107.68282227 29.52317383 -107.00830078 29.15478516 C-74.66538801 11.64024015 -36.92233212 0.32012415 0 0 Z " fill="#032774" transform="translate(242.9921875,-0.23828125)"/>
<path d="M0 0 C17.16 0 34.32 0 52 0 C52 15.51 52 31.02 52 47 C63.75095084 41.40430913 75.33407924 35.88134537 86.78515625 29.76269531 C95.84229606 24.94915686 104.96453343 20.26094357 114.11051941 15.61875534 C117.12767893 14.08681401 120.13981631 12.54632845 123.14257812 10.98632812 C126.67641895 9.15082976 130.22783111 7.35199493 133.78125 5.5546875 C134.84605591 4.995466 135.91086182 4.43624451 137.00793457 3.8600769 C143.90205431 0.42112536 149.30750157 -0.7599626 157 0 C155.7369645 2.526071 154.79823652 2.7418317 152.25756836 3.90942383 C151.42753799 4.29716476 150.59750763 4.6849057 149.74232483 5.08439636 C148.80513107 5.51674088 147.86793732 5.94908539 146.90234375 6.39453125 C135.89649194 11.56584883 125.00236789 16.94327301 114.12890625 22.38671875 C113.2983308 22.80224125 112.46775536 23.21776375 111.61201096 23.64587784 C106.47017442 26.21848111 101.32983588 28.79406404 96.19000244 31.3706665 C91.75828554 33.59172372 87.32537508 35.81039624 82.89257812 38.02929688 C74.26057903 42.35059133 65.62986027 46.67443596 57 51 C75.48642166 52.85508093 87.86933472 48.65210075 104.05078125 40.0625 C106.25301948 38.93732323 108.45742838 37.816386 110.66386414 36.69946289 C116.40364778 33.78052368 122.11387635 30.80806533 127.81890869 27.82189941 C133.66318296 24.77412452 139.53224904 21.77492874 145.40039062 18.7734375 C151.98120445 15.40656145 158.55938967 12.03562369 165.11677551 8.62329102 C166.60024979 7.85325241 166.60024979 7.85325241 168.11369324 7.06765747 C169.96439676 6.1061744 171.81343556 5.1414779 173.66052246 4.17306519 C174.47144852 3.75235748 175.28237457 3.33164978 176.11787415 2.89819336 C177.17645111 2.34511757 177.17645111 2.34511757 178.25641346 1.78086853 C180 1 180 1 182 1 C182 6.61 182 12.22 182 18 C160.22 28.89 138.44 39.78 116 51 C148.67 51.495 148.67 51.495 182 52 C182 69.16 182 86.32 182 104 C159.89 104.33 137.78 104.66 115 105 C119.75277344 107.37058594 124.50554687 109.74117188 129.40234375 112.18359375 C132.40570914 113.68272289 135.40901502 115.18196892 138.41210938 116.68164062 C143.18293749 119.06406116 147.95398447 121.44603633 152.72631836 123.82543945 C156.57212022 125.74292358 160.41695304 127.66233759 164.26111031 129.58311653 C165.73083423 130.3170518 167.20091109 131.05028074 168.67133904 131.78280449 C170.72444729 132.80575028 172.7763073 133.83115832 174.82788086 134.85717773 C175.99814316 135.44119858 177.16840546 136.02521942 178.37413025 136.62693787 C181 138 181 138 182 139 C182.04063832 140.66617115 182.042721 142.33388095 182 144 C177.34553213 142.59068238 173.15228129 140.65554746 168.875 138.37646484 C167.4508377 137.62807378 166.0265137 136.87999035 164.60205078 136.13217163 C163.85344788 135.73753094 163.10484497 135.34289024 162.33355713 134.93629074 C157.47130079 132.38311495 152.58387291 129.87828458 147.70187378 127.36313438 C143.43826023 125.16309235 139.18386112 122.94808503 134.94628906 120.69824219 C130.82235554 118.50995842 126.67711373 116.36782588 122.51513672 114.25285721 C120.95084008 113.44822662 119.39436427 112.6281598 117.84716797 111.79111862 C117.11256348 111.39472813 116.37795898 110.99833763 115.62109375 110.5899353 C114.9876001 110.24198599 114.35410645 109.89403667 113.70141602 109.53554344 C100.59011646 103.41022793 96.81642129 105 80 105 C113 121.5 146 138 180 155 C180 155.33 180 155.66 180 156 C149.15312609 160.91285726 126.69762037 148.47874833 100.09057617 134.21258545 C93.7121586 130.81550059 87.27885785 127.52360476 80.85517883 124.21318054 C71.19343034 119.21963837 61.60882288 114.10093219 52 109 C52 124.51 52 140.02 52 156 C34.84 156 17.68 156 0 156 C0 140.49 0 124.98 0 109 C-6.65800781 112.3928125 -13.31601563 115.785625 -20.17578125 119.28125 C-24.4083041 121.42562652 -28.64140809 123.56865606 -32.87695312 125.70703125 C-39.59418556 129.09847721 -46.30877988 132.49453853 -53.0090332 135.91943359 C-58.41341607 138.68155106 -63.82838303 141.42179122 -69.25124168 144.14744568 C-71.31429644 145.18910559 -73.37347477 146.23848122 -75.42855263 147.29579163 C-78.31646677 148.77989769 -81.21717441 150.2355173 -84.12231445 151.68554688 C-85.38144653 152.34477394 -85.38144653 152.34477394 -86.66601562 153.01731873 C-92.89006699 156.07096367 -98.11599796 156.50712562 -105 156 C-102.39306426 153.95958523 -99.83526312 152.29350163 -96.87445068 150.81697083 C-96.06119324 150.40896744 -95.24793579 150.00096405 -94.41003418 149.58059692 C-93.08509949 148.92352249 -93.08509949 148.92352249 -91.73339844 148.25317383 C-90.79647156 147.78456436 -89.85954468 147.3159549 -88.89422607 146.83314514 C-85.8011571 145.28730655 -82.70529423 143.74715246 -79.609375 142.20703125 C-77.46257399 141.13549607 -75.31594949 140.06360718 -73.16949463 138.99137878 C-67.52255238 136.17172381 -61.87322403 133.35688226 -56.22338867 130.54302979 C-50.45737535 127.67025661 -44.69362702 124.79294676 -38.9296875 121.91601562 C-27.62200649 116.27289653 -16.31187622 110.63470451 -5 105 C-21.6346205 103.56911482 -32.86671564 106.37660965 -47.453125 114.1875 C-49.29814862 115.13314635 -51.14526411 116.0747211 -52.99432373 117.01245117 C-57.79465232 119.45968434 -62.56639645 121.95792955 -67.33325195 124.46960449 C-72.21960573 127.03343714 -77.12975408 129.55079252 -82.0390625 132.0703125 C-87.5446566 134.89647334 -93.04773409 137.72633004 -98.53057861 140.59643555 C-99.35690796 141.02765717 -100.1832373 141.45887878 -101.03460693 141.90316772 C-102.57977228 142.71027524 -104.12326832 143.52058948 -105.66479492 144.33462524 C-110.7764871 147 -110.7764871 147 -113 147 C-115.19162713 104.70971353 -98.82257141 60.62421911 -78.125 24.5625 C-77.5897168 23.6139917 -77.05443359 22.6654834 -76.50292969 21.68823242 C-75.73190918 20.39042847 -75.73190918 20.39042847 -74.9453125 19.06640625 C-74.49687988 18.30271729 -74.04844727 17.53902832 -73.58642578 16.75219727 C-71.43013866 14.37059175 -70.19417282 14.236304 -67 14 C-63.89311218 15.1325531 -63.89311218 15.1325531 -60.3737793 16.91577148 C-59.72931351 17.23749329 -59.08484772 17.55921509 -58.42085266 17.89068604 C-56.29839782 18.95434627 -54.18654448 20.03747675 -52.07421875 21.12109375 C-50.6022434 21.86361116 -49.12964379 22.60489222 -47.65644836 23.34498596 C-43.78516745 25.29397465 -39.9225905 27.25963413 -36.06158447 29.22888184 C-31.42487348 31.58937625 -26.77762318 33.92903884 -22.13213348 36.27219391 C-15.07988406 39.8322317 -8.04154541 43.41847444 -1 47 C-0.67 31.49 -0.34 15.98 0 0 Z " fill="#DF0938" transform="translate(113,100)"/>
<path d="M0 0 C46.2 0 92.4 0 140 0 C140 3.3 140 6.6 140 10 C117.89 10.33 95.78 10.66 73 11 C80.12916016 14.55587891 80.12916016 14.55587891 87.40234375 18.18359375 C90.40570914 19.68272289 93.40901502 21.18196892 96.41210938 22.68164062 C101.18293749 25.06406116 105.95398447 27.44603633 110.72631836 29.82543945 C114.57212022 31.74292358 118.41695304 33.66233759 122.26111031 35.58311653 C123.73083423 36.3170518 125.20091109 37.05028074 126.67133904 37.78280449 C128.72444729 38.80575028 130.7763073 39.83115832 132.82788086 40.85717773 C133.99814316 41.44119858 135.16840546 42.02521942 136.37413025 42.62693787 C139 44 139 44 140 45 C140.04063832 46.66617115 140.042721 48.33388095 140 50 C135.34553213 48.59068238 131.15228129 46.65554746 126.875 44.37646484 C125.4508377 43.62807378 124.0265137 42.87999035 122.60205078 42.13217163 C121.85344788 41.73753094 121.10484497 41.34289024 120.33355713 40.93629074 C115.47130079 38.38311495 110.58387291 35.87828458 105.70187378 33.36313438 C101.43826023 31.16309235 97.18386112 28.94808503 92.94628906 26.69824219 C88.82235554 24.50995842 84.67711373 22.36782588 80.51513672 20.25285721 C78.95084008 19.44822662 77.39436427 18.6281598 75.84716797 17.79111862 C75.11256348 17.39472813 74.37795898 16.99833763 73.62109375 16.5899353 C72.9876001 16.24198599 72.35410645 15.89403667 71.70141602 15.53554344 C58.59011646 9.41022793 54.81642129 11 38 11 C71 27.5 104 44 138 61 C138 61.33 138 61.66 138 62 C107.15312609 66.91285726 84.69762037 54.47874833 58.09057617 40.21258545 C51.7121586 36.81550059 45.27885785 33.52360476 38.85517883 30.21318054 C29.19343034 25.21963837 19.60882288 20.10093219 10 15 C10 30.51 10 46.02 10 62 C6.7 62 3.4 62 0 62 C0 41.54 0 21.08 0 0 Z " fill="#FDFCFD" transform="translate(155,194)"/>
<path d="M0 0 C38.28 0 76.56 0 116 0 C116 20.46 116 40.92 116 62 C112.7 62 109.4 62 106 62 C106 46.49 106 30.98 106 15 C96.01298828 20.08921875 96.01298828 20.08921875 85.82421875 25.28125 C81.5916959 27.42562652 77.35859191 29.56865606 73.12304688 31.70703125 C66.40581444 35.09847721 59.69122012 38.49453853 52.9909668 41.91943359 C47.58658393 44.68155106 42.17161697 47.42179122 36.74875832 50.14744568 C34.68570356 51.18910559 32.62652523 52.23848122 30.57144737 53.29579163 C27.68353323 54.77989769 24.78282559 56.2355173 21.87768555 57.68554688 C21.03826416 58.12503159 20.19884277 58.5645163 19.33398438 59.01731873 C13.10993301 62.07096367 7.88400204 62.50712562 1 62 C3.60693574 59.95958523 6.16473688 58.29350163 9.12554932 56.81697083 C9.93880676 56.40896744 10.75206421 56.00096405 11.58996582 55.58059692 C12.47325562 55.1425473 13.35654541 54.70449768 14.26660156 54.25317383 C15.20352844 53.78456436 16.14045532 53.3159549 17.10577393 52.83314514 C20.1988429 51.28730655 23.29470577 49.74715246 26.390625 48.20703125 C28.53742601 47.13549607 30.68405051 46.06360718 32.83050537 44.99137878 C38.47744762 42.17172381 44.12677597 39.35688226 49.77661133 36.54302979 C55.54262465 33.67025661 61.30637298 30.79294676 67.0703125 27.91601562 C78.37799351 22.27289653 89.68812378 16.63470451 101 11 C84.3653795 9.56911482 73.13328436 12.37660965 58.546875 20.1875 C56.70185138 21.13314635 54.85473589 22.0747211 53.00567627 23.01245117 C48.20534768 25.45968434 43.43360355 27.95792955 38.66674805 30.46960449 C33.78039427 33.03343714 28.87024592 35.55079252 23.9609375 38.0703125 C18.4553434 40.89647334 12.95226591 43.72633004 7.46942139 46.59643555 C6.64309204 47.02765717 5.8167627 47.45887878 4.96539307 47.90316772 C3.42022772 48.71027524 1.87673168 49.52058948 0.33520508 50.33462524 C-4.7764871 53 -4.7764871 53 -7 53 C-7.81016764 37.36676509 -7.12525457 14.25050915 0 0 Z " fill="#FCFCFD" transform="translate(7,194)"/>
<path d="M0 0 C-1.2630355 2.526071 -2.20176348 2.7418317 -4.74243164 3.90942383 C-5.98747719 4.49103523 -5.98747719 4.49103523 -7.25767517 5.08439636 C-8.19486893 5.51674088 -9.13206268 5.94908539 -10.09765625 6.39453125 C-21.10350806 11.56584883 -31.99763211 16.94327301 -42.87109375 22.38671875 C-43.7016692 22.80224125 -44.53224464 23.21776375 -45.38798904 23.64587784 C-50.52982558 26.21848111 -55.67016412 28.79406404 -60.80999756 31.3706665 C-65.24171446 33.59172372 -69.67462492 35.81039624 -74.10742188 38.02929688 C-82.73942097 42.35059133 -91.37013973 46.67443596 -100 51 C-81.51357834 52.85508093 -69.13066528 48.65210075 -52.94921875 40.0625 C-50.74698052 38.93732323 -48.54257162 37.816386 -46.33613586 36.69946289 C-40.59635222 33.78052368 -34.88612365 30.80806533 -29.18109131 27.82189941 C-23.33681704 24.77412452 -17.46775096 21.77492874 -11.59960938 18.7734375 C-5.01879555 15.40656145 1.55938967 12.03562369 8.11677551 8.62329102 C9.10575836 8.10993195 10.09474121 7.59657288 11.11369324 7.06765747 C12.96439676 6.1061744 14.81343556 5.1414779 16.66052246 4.17306519 C17.47144852 3.75235748 18.28237457 3.33164978 19.11787415 2.89819336 C20.17645111 2.34511757 20.17645111 2.34511757 21.25641346 1.78086853 C23 1 23 1 25 1 C25 6.61 25 12.22 25 18 C16.44966375 22.30902775 7.8968249 26.61297941 -0.66055775 30.90799713 C-4.6337926 32.90244955 -8.60587807 34.89912382 -12.57543945 36.90087891 C-16.40479318 38.83182836 -20.23703042 40.7569367 -24.07135582 42.67799377 C-25.53526173 43.41272281 -26.99810809 44.14956681 -28.45987892 44.88853455 C-30.50411584 45.92150754 -32.5519573 46.94696342 -34.60083008 47.97070312 C-36.34956169 48.85006531 -36.34956169 48.85006531 -38.13362122 49.74719238 C-41 51 -41 51 -44 51 C-44 51.66 -44 52.32 -44 53 C-21.56 53 0.88 53 24 53 C24 55.97 24 58.94 24 62 C-21.87 62 -67.74 62 -115 62 C-115 41.87 -115 21.74 -115 1 C-111.7 1 -108.4 1 -105 1 C-105 16.18 -105 31.36 -105 47 C-101.926875 45.55625 -98.85375 44.1125 -95.6875 42.625 C-94.30244263 41.97845459 -94.30244263 41.97845459 -92.8894043 41.31884766 C-87.00855618 38.53581498 -81.237392 35.57394873 -75.48828125 32.53125 C-64.66646262 26.80676663 -53.80635533 21.15975836 -42.88933849 15.61868858 C-39.87222932 14.08676373 -36.86013725 12.54630432 -33.85742188 10.98632812 C-30.32358105 9.15082976 -26.77216889 7.35199493 -23.21875 5.5546875 C-21.62154114 4.71585526 -21.62154114 4.71585526 -19.99206543 3.8600769 C-13.09794569 0.42112536 -7.69249843 -0.7599626 0 0 Z " fill="#FBFBFC" transform="translate(270,100)"/>
<path d="M0 0 C3.3 0 6.6 0 10 0 C10 20.79 10 41.58 10 63 C-24.98 63 -59.96 63 -96 63 C-91.49536776 49.48610329 -85.39664339 37.3316199 -78.3125 25 C-77.76609863 24.02587158 -77.21969727 23.05174316 -76.65673828 22.0480957 C-76.12677246 21.14534912 -75.59680664 20.24260254 -75.05078125 19.3125 C-74.58325439 18.50425781 -74.11572754 17.69601563 -73.6340332 16.86328125 C-71.45325729 14.37655157 -70.28532382 14.23519316 -67 14 C-63.89311218 15.1325531 -63.89311218 15.1325531 -60.3737793 16.91577148 C-59.72931351 17.23749329 -59.08484772 17.55921509 -58.42085266 17.89068604 C-56.29839782 18.95434627 -54.18654448 20.03747675 -52.07421875 21.12109375 C-50.6022434 21.86361116 -49.12964379 22.60489222 -47.65644836 23.34498596 C-43.78516745 25.29397465 -39.9225905 27.25963413 -36.06158447 29.22888184 C-31.42487348 31.58937625 -26.77762318 33.92903884 -22.13213348 36.27219391 C-15.07988406 39.8322317 -8.04154541 43.41847444 -1 47 C-0.67 31.49 -0.34 15.98 0 0 Z " fill="#FAF6F8" transform="translate(113,100)"/>
<path d="M0 0 C0.66 0 1.32 0 2 0 C4.64 8.25 7.28 16.5 10 25 C16.96902977 23.45132672 23.05326361 21.5862139 29.57617188 18.94726562 C31.36426727 18.24534852 33.1806117 17.61627835 35 17 C35.66 17.33 36.32 17.66 37 18 C36.58113525 18.65597168 36.16227051 19.31194336 35.73071289 19.98779297 C33.84030028 22.94955315 31.95138216 25.91226355 30.0625 28.875 C29.40314453 29.90753906 28.74378906 30.94007813 28.06445312 32.00390625 C27.43603516 32.99003906 26.80761719 33.97617187 26.16015625 34.9921875 C25.57886963 35.90339355 24.99758301 36.81459961 24.39868164 37.75341797 C23.00028258 39.92187139 23.00028258 39.92187139 22 42 C22.73371826 42.27634277 23.46743652 42.55268555 24.22338867 42.83740234 C26.80568899 43.91863985 29.04935664 45.13125663 31.42578125 46.6015625 C32.22177734 47.09140625 33.01777344 47.58125 33.83789062 48.0859375 C35.06282227 48.84777344 35.06282227 48.84777344 36.3125 49.625 C37.14845703 50.140625 37.98441406 50.65625 38.84570312 51.1875 C40.89931199 52.45487004 42.95063341 53.72578573 45 55 C42.12186843 56.91875438 41.22332896 57.29326552 37.98046875 57.6328125 C37.20509766 57.71660156 36.42972656 57.80039062 35.63085938 57.88671875 C34.82455078 57.96535156 34.01824219 58.04398437 33.1875 58.125 C32.39279297 58.21136719 31.59808594 58.29773438 30.77929688 58.38671875 C26.45373861 58.83752135 22.38284548 59 18 59 C18.99 68.24 19.98 77.48 21 87 C13.125 80.25 13.125 80.25 10.69140625 77.7890625 C10.17255859 77.26699219 9.65371094 76.74492187 9.11914062 76.20703125 C8.60544922 75.68496094 8.09175781 75.16289062 7.5625 74.625 C7.02173828 74.07972656 6.48097656 73.53445313 5.92382812 72.97265625 C4.61353277 71.65076536 3.30641716 70.32572382 2 69 C-1.2586636 70.4264578 -3.4024854 72.16704162 -5.890625 74.6953125 C-6.59960938 75.41074219 -7.30859375 76.12617188 -8.0390625 76.86328125 C-8.76867187 77.60964844 -9.49828125 78.35601562 -10.25 79.125 C-11.36761719 80.25615234 -11.36761719 80.25615234 -12.5078125 81.41015625 C-14.3431342 83.26900772 -16.1736191 85.13237005 -18 87 C-19.10992805 83.58156346 -18.91249678 80.90197582 -18.44140625 77.359375 C-18.30283203 76.28945313 -18.16425781 75.21953125 -18.02148438 74.1171875 C-17.87001953 73.00601563 -17.71855469 71.89484375 -17.5625 70.75 C-17.34110352 69.06003906 -17.34110352 69.06003906 -17.11523438 67.3359375 C-16.7501183 64.55634415 -16.37813461 61.7778472 -16 59 C-16.74685059 58.9498877 -17.49370117 58.89977539 -18.26318359 58.84814453 C-21.63452058 58.6165981 -25.00468682 58.37098146 -28.375 58.125 C-29.550625 58.04636719 -30.72625 57.96773438 -31.9375 57.88671875 C-33.05898437 57.80292969 -34.18046875 57.71914063 -35.3359375 57.6328125 C-36.37282715 57.55949707 -37.4097168 57.48618164 -38.47802734 57.41064453 C-41 57 -41 57 -43 55 C-39.54615476 52.8261144 -36.08621197 50.66213371 -32.625 48.5 C-31.14773437 47.56994141 -31.14773437 47.56994141 -29.640625 46.62109375 C-28.22910156 45.74130859 -28.22910156 45.74130859 -26.7890625 44.84375 C-25.91975098 44.29912109 -25.05043945 43.75449219 -24.15478516 43.19335938 C-22 42 -22 42 -20 42 C-21.55962306 39.47734756 -23.12260077 36.95687678 -24.6875 34.4375 C-25.12255859 33.73302734 -25.55761719 33.02855469 -26.00585938 32.30273438 C-28.17739925 28.8121851 -30.39675411 25.41083577 -32.83203125 22.09765625 C-35 19 -35 19 -35 17 C-26 20 -17 23 -8 26 C-7.84144531 25.37996094 -7.68289062 24.75992187 -7.51953125 24.12109375 C-5.36781041 15.95406491 -2.72737074 7.98807004 0 0 Z " fill="#FAFBFC" transform="translate(138,288)"/>
<path d="M0 0 C1.06992187 0.00644531 2.13984375 0.01289062 3.2421875 0.01953125 C4.35335937 0.03628906 5.46453125 0.05304688 6.609375 0.0703125 C7.73601562 0.07933594 8.86265625 0.08835937 10.0234375 0.09765625 C12.80229865 0.12120592 15.5807289 0.1540957 18.359375 0.1953125 C16.23508213 2.49931411 14.21419674 3.97181722 11.43965149 5.41630554 C10.64562424 5.83272308 9.85159698 6.24914062 9.0335083 6.67817688 C8.16562683 7.12557724 7.29774536 7.5729776 6.40356445 8.03393555 C5.48582748 8.51229858 4.56809052 8.99066162 3.62254333 9.48352051 C-6.02777567 14.49961317 -15.72194672 19.43114086 -25.41870117 24.35668945 C-30.00084816 26.68767487 -34.56831801 29.04421335 -39.12475586 31.42504883 C-44.65048183 34.31201002 -50.19920377 37.14939927 -55.76655006 39.95520973 C-57.86816544 41.02420259 -59.96157439 42.10951442 -62.04559898 43.21240807 C-77.23750265 51.22924659 -89.47103597 53.77775092 -106.640625 52.1953125 C-104.51986738 49.88768982 -102.53802542 48.45798125 -99.73817444 47.06370544 C-98.9489006 46.66700653 -98.15962677 46.27030762 -97.34643555 45.86158752 C-96.48453613 45.43603073 -95.62263672 45.01047394 -94.73461914 44.57202148 C-93.8237706 44.11637817 -92.91292206 43.66073486 -91.97447205 43.19128418 C-88.96105113 41.68561913 -85.9434667 40.18850341 -82.92578125 38.69140625 C-80.83188694 37.64725743 -78.73825738 36.60257753 -76.6448822 35.55738831 C-71.13020523 32.80577878 -65.61196446 30.06139161 -60.09295654 27.31848145 C-54.47974065 24.5271853 -48.86988978 21.72914402 -43.25976562 18.93164062 C-34.19887669 14.41439762 -25.13587373 9.90142934 -16.07034302 5.39350891 C-15.27824936 4.99962982 -14.4861557 4.60575073 -13.6700592 4.19993591 C-12.98445451 3.85908179 -12.29884981 3.51822767 -11.59246922 3.16704464 C-10.23679355 2.492117 -8.8914385 1.79621642 -7.55486202 1.08421421 C-4.96030968 -0.12060107 -2.85064653 -0.03032603 0 0 Z " fill="#D80D3C" transform="translate(275.640625,99.8046875)"/>
<path d="M0 0 C-2.61406426 2.04405415 -5.18845411 3.72355176 -8.14764404 5.22099304 C-8.96616852 5.63741058 -9.78469299 6.05382812 -10.62802124 6.48286438 C-11.51744415 6.93026474 -12.40686707 7.3776651 -13.32324219 7.83862305 C-14.73861771 8.5561676 -14.73861771 8.5561676 -16.18258667 9.28820801 C-19.30165657 10.86743202 -22.4238934 12.4402456 -25.546875 14.01171875 C-26.61441261 14.54956308 -27.68195023 15.08740742 -28.78183746 15.64155006 C-34.42963324 18.48628725 -40.08002428 21.3257953 -45.73242188 24.16137695 C-51.5677693 27.09012671 -57.39353592 30.03743043 -63.21735764 32.98901653 C-67.70050064 35.25673019 -72.19069197 37.51020161 -76.68289948 39.75989723 C-78.83374685 40.84019091 -80.98188932 41.92588776 -83.12722015 43.01709557 C-86.13052996 44.5430955 -89.14330847 46.04857425 -92.15917969 47.54956055 C-93.04050568 48.0030336 -93.92183167 48.45650665 -94.8298645 48.92372131 C-100.20281742 51.56523678 -104.01044515 52.49218159 -110 52 C-110 49.03 -110 46.06 -110 43 C-99.23110162 37.33534681 -88.43554027 31.72543115 -77.6044693 26.18048859 C-72.57377263 23.60297446 -67.55343564 21.00873942 -62.55371094 18.37158203 C-57.71228549 15.81878936 -52.84770985 13.31609817 -47.96470642 10.84382629 C-46.12240394 9.90079924 -44.28849949 8.94114281 -42.46437073 7.96342468 C-28.11128933 0.29196305 -16.20238148 -1.29512873 0 0 Z " fill="#DA0837" transform="translate(110,204)"/>
<path d="M0 0 C23.78181109 -4.41084595 42.44297891 7.7960775 62.73291016 18.54248047 C67.3816692 20.99113862 72.05921068 23.38351294 76.734375 25.78125 C85.85137868 30.46722748 94.93555325 35.21323948 104 40 C104 43.96 104 47.92 104 52 C98.44678146 50.36619266 93.47153343 47.86997971 88.32275391 45.27490234 C87.36602783 44.79668533 86.40930176 44.31846832 85.42358398 43.82575989 C82.27266489 42.2496056 79.12461484 40.6678087 75.9765625 39.0859375 C73.7881285 37.98985476 71.59951721 36.89412595 69.41073608 35.79873657 C63.65835966 32.91873546 57.90840224 30.03393691 52.15893555 27.14813232 C46.28840018 24.20262416 40.41558952 21.26166002 34.54296875 18.3203125 C23.02641478 12.55131983 11.51233325 6.77741036 0 1 C0 0.67 0 0.34 0 0 Z " fill="#D90838" transform="translate(191,204)"/>
<path d="M0 0 C0.66 0 1.32 0 2 0 C2.50615298 1.26839526 3.00469099 2.53983102 3.5 3.8125 C3.7784375 4.52019531 4.056875 5.22789062 4.34375 5.95703125 C5 8 5 8 5 11 C9.29 9.68 13.58 8.36 18 7 C16.24858504 11.3785374 14.37016034 14.97072742 12 19 C12.721875 19.42152344 13.44375 19.84304688 14.1875 20.27734375 C15.115625 20.82519531 16.04375 21.37304688 17 21.9375 C17.928125 22.48277344 18.85625 23.02804687 19.8125 23.58984375 C20.534375 24.05519531 21.25625 24.52054687 22 25 C22 25.33 22 25.66 22 26 C15.565 26.495 15.565 26.495 9 27 C9.350625 28.753125 9.70125 30.50625 10.0625 32.3125 C11.125 37.625 11.125 37.625 10 41 C7.36 38.36 4.72 35.72 2 33 C-0.97736572 34.48868286 -2.83438636 35.53878822 -5.25 37.625 C-6.1575 38.40875 -7.065 39.1925 -8 40 C-8.07654536 35.48382401 -8.10228696 31.40914783 -7 27 C-7.68707031 27.02320313 -8.37414062 27.04640625 -9.08203125 27.0703125 C-10.43361328 27.09738281 -10.43361328 27.09738281 -11.8125 27.125 C-12.70582031 27.14820313 -13.59914063 27.17140625 -14.51953125 27.1953125 C-17 27 -17 27 -20 25 C-16.7 23.02 -13.4 21.04 -10 19 C-10.804375 17.576875 -11.60875 16.15375 -12.4375 14.6875 C-13.90117489 12.09792135 -15.05608392 9.83174825 -16 7 C-15.39671875 7.20496094 -14.7934375 7.40992188 -14.171875 7.62109375 C-12.97304688 8.02521484 -12.97304688 8.02521484 -11.75 8.4375 C-10.96109375 8.70433594 -10.1721875 8.97117187 -9.359375 9.24609375 C-7.2647745 9.9153949 -5.13328033 10.46667992 -3 11 C-2.01 7.37 -1.02 3.74 0 0 Z " fill="#F4F5F9" transform="translate(393,339)"/>
<path d="M0 0 C2 1 2 1 2.8515625 3.50390625 C3.10679687 4.51324219 3.36203125 5.52257812 3.625 6.5625 C4.01558594 8.08037109 4.01558594 8.08037109 4.4140625 9.62890625 C4.60742188 10.41136719 4.80078125 11.19382813 5 12 C5.68707031 11.69964844 6.37414062 11.39929688 7.08203125 11.08984375 C7.98308594 10.70957031 8.88414062 10.32929688 9.8125 9.9375 C10.70582031 9.55464844 11.59914063 9.17179688 12.51953125 8.77734375 C15 8 15 8 18 9 C15.69 12.63 13.38 16.26 11 20 C13.475 20.99 13.475 20.99 16 22 C18.04049422 23.2704964 20.05017465 24.59431196 22 26 C22 26.33 22 26.66 22 27 C15.565 27.495 15.565 27.495 9 28 C9.33 29.65 9.66 31.3 10 33 C10.11678799 35.67678073 10.0454506 38.31841457 10 41 C8.85073734 40.04578192 7.70569459 39.08647955 6.5625 38.125 C5.92441406 37.59132812 5.28632813 37.05765625 4.62890625 36.5078125 C3 35 3 35 2 33 C-0.99220268 34.36370299 -3.29026529 35.94908083 -5.75 38.125 C-6.36359375 38.66382813 -6.9771875 39.20265625 -7.609375 39.7578125 C-8.06828125 40.16773438 -8.5271875 40.57765625 -9 41 C-8.85769192 39.58297487 -8.71099254 38.1663904 -8.5625 36.75 C-8.44068359 35.56664062 -8.44068359 35.56664062 -8.31640625 34.359375 C-8 32 -8 32 -7 28 C-13.93 27.505 -13.93 27.505 -21 27 C-17.77085357 23.77085357 -14.97169202 22.17318997 -11 20 C-11.61565832 15.99822092 -13.7729583 13.30464252 -16 10 C-16 9.34 -16 8.68 -16 8 C-14.39566191 8.47859241 -12.79153584 8.95789558 -11.1875 9.4375 C-10.29417969 9.70433594 -9.40085937 9.97117188 -8.48046875 10.24609375 C-6.64526945 10.80387873 -4.81966274 11.39344575 -3 12 C-2.80083984 11.07767578 -2.80083984 11.07767578 -2.59765625 10.13671875 C-2.33275391 8.92435547 -2.33275391 8.92435547 -2.0625 7.6875 C-1.80146484 6.48673828 -1.80146484 6.48673828 -1.53515625 5.26171875 C-1 3 -1 3 0 0 Z " fill="#F5F6F9" transform="translate(338,215)"/>
<path d="M0 0 C2.62895146 3.94342719 3.05927998 7.36359419 4 12 C8.29 10.68 12.58 9.36 17 8 C15.31482096 12.2129476 13.56523798 15.32315889 11 19 C11.721875 19.49371094 12.44375 19.98742187 13.1875 20.49609375 C14.5796875 21.45708984 14.5796875 21.45708984 16 22.4375 C16.928125 23.07558594 17.85625 23.71367187 18.8125 24.37109375 C19.534375 24.90863281 20.25625 25.44617188 21 26 C21 26.33 21 26.66 21 27 C14.565 27.495 14.565 27.495 8 28 C8.350625 29.5675 8.70125 31.135 9.0625 32.75 C9.83989957 36.22543336 10.13732426 38.59598052 9 42 C8.44570313 41.36191406 7.89140625 40.72382813 7.3203125 40.06640625 C6.59585937 39.24011719 5.87140625 38.41382813 5.125 37.5625 C4.40570313 36.73878906 3.68640625 35.91507813 2.9453125 35.06640625 C1.16761255 32.94017845 1.16761255 32.94017845 -1 32 C-1.20625 32.556875 -1.4125 33.11375 -1.625 33.6875 C-3.55000774 36.92501302 -6.03850902 38.68231141 -9 41 C-9.07972012 36.2965127 -8.93491183 32.67455917 -8 28 C-12.29 27.67 -16.58 27.34 -21 27 C-17.77085357 23.77085357 -14.97169202 22.17318997 -11 20 C-12.56641751 15.69235185 -14.68336156 11.93828536 -17 8 C-16.39671875 8.20496094 -15.7934375 8.40992188 -15.171875 8.62109375 C-14.37265625 8.89050781 -13.5734375 9.15992188 -12.75 9.4375 C-11.96109375 9.70433594 -11.1721875 9.97117188 -10.359375 10.24609375 C-8.25178012 10.91954708 -6.15246027 11.49150595 -4 12 C-3.79503906 11.21753906 -3.59007812 10.43507812 -3.37890625 9.62890625 C-3.10949219 8.61699219 -2.84007812 7.60507813 -2.5625 6.5625 C-2.29566406 5.55316406 -2.02882813 4.54382813 -1.75390625 3.50390625 C-1 1 -1 1 0 0 Z " fill="#F5F7F9" transform="translate(463,194)"/>
<path d="M0 0 C0.66 0 1.32 0 2 0 C2.50559908 1.43554025 3.0042749 2.8735202 3.5 4.3125 C3.7784375 5.11300781 4.056875 5.91351563 4.34375 6.73828125 C5 9 5 9 5 12 C5.68707031 11.69964844 6.37414062 11.39929688 7.08203125 11.08984375 C7.98308594 10.70957031 8.88414062 10.32929688 9.8125 9.9375 C10.70582031 9.55464844 11.59914063 9.17179688 12.51953125 8.77734375 C15 8 15 8 18 9 C16.02 12.3 14.04 15.6 12 19 C14.475 20.423125 14.475 20.423125 17 21.875 C19.8125 23.4921875 19.8125 23.4921875 22 25 C22 25.66 22 26.32 22 27 C17.71 27 13.42 27 9 27 C9.33 31.29 9.66 35.58 10 40 C7.4609375 37.65625 7.4609375 37.65625 4.921875 35.3125 C2.837347 33.62402557 2.837347 33.62402557 -1 34 C-2.9792785 35.2832557 -2.9792785 35.2832557 -4.75 37 C-5.36359375 37.556875 -5.9771875 38.11375 -6.609375 38.6875 C-7.06828125 39.120625 -7.5271875 39.55375 -8 40 C-8.0272415 38.58344207 -8.04650467 37.16672955 -8.0625 35.75 C-8.07410156 34.96109375 -8.08570313 34.1721875 -8.09765625 33.359375 C-8 31 -8 31 -7 27 C-11.29 27 -15.58 27 -20 27 C-20 26.34 -20 25.68 -20 25 C-17.8125 23.4921875 -17.8125 23.4921875 -15 21.875 C-14.071875 21.33617187 -13.14375 20.79734375 -12.1875 20.2421875 C-11.465625 19.83226562 -10.74375 19.42234375 -10 19 C-10.44472656 18.30132812 -10.88945312 17.60265625 -11.34765625 16.8828125 C-11.91355469 15.97273437 -12.47945313 15.06265625 -13.0625 14.125 C-13.63097656 13.22007812 -14.19945312 12.31515625 -14.78515625 11.3828125 C-15.18605469 10.59648437 -15.58695312 9.81015625 -16 9 C-15.67 8.34 -15.34 7.68 -15 7 C-11.04 8.65 -7.08 10.3 -3 12 C-2.690625 10.576875 -2.38125 9.15375 -2.0625 7.6875 C-1.48800637 5.04482928 -0.85697694 2.57093082 0 0 Z " fill="#F5F7F9" transform="translate(393,131)"/>
<path d="M0 0 C1.22244667 0.00333092 1.22244667 0.00333092 2.46958923 0.00672913 C3.85090782 0.00684242 3.85090782 0.00684242 5.26013184 0.00695801 C6.2611644 0.01211929 7.26219696 0.01728058 8.29356384 0.02259827 C9.31316696 0.02401321 10.33277008 0.02542816 11.38327026 0.02688599 C14.65417867 0.03250355 17.92501972 0.04505902 21.19590759 0.05775452 C23.40749515 0.06276725 25.61908377 0.06733055 27.83067322 0.07142639 C33.26494116 0.08247868 38.69916957 0.09923389 44.13340759 0.12025452 C41.9080346 2.56874491 39.75173248 4.00058703 36.80137634 5.48036194 C35.49487122 6.14070686 35.49487122 6.14070686 34.16197205 6.81439209 C33.22442078 7.28013138 32.28686951 7.74587067 31.32090759 8.22572327 C30.35564148 8.70979141 29.39037537 9.19385956 28.39585876 9.69259644 C26.3563997 10.71334603 24.31542427 11.73107071 22.27305603 12.74598694 C19.1412224 14.30386717 16.01599682 15.8744483 12.89122009 17.44642639 C10.90983365 18.4361286 8.92807517 19.42508643 6.94590759 20.41322327 C6.00835632 20.88503525 5.07080505 21.35684723 4.10484314 21.84295654 C3.23383972 22.27373001 2.3628363 22.70450348 1.46543884 23.14833069 C0.69949402 23.53010971 -0.06645081 23.91188873 -0.85560608 24.30523682 C-2.86659241 25.12025452 -2.86659241 25.12025452 -5.86659241 25.12025452 C-4.19229032 0.27008673 -4.19229032 0.27008673 0 0 Z " fill="#072B76" transform="translate(6.8665924072265625,203.87974548339844)"/>
<path d="M0 0 C0.33 0.66 0.66 1.32 1 2 C2.9990316 2.66956486 4.99934528 3.33530071 7 4 C10.44918426 5.57795928 13.8262165 7.29669739 17.2109375 9.0078125 C18.17907379 9.49329559 19.14721008 9.97877869 20.14468384 10.47897339 C23.22336085 12.02389017 26.29920251 13.57435956 29.375 15.125 C31.46726304 16.17614932 33.55970896 17.2269347 35.65234375 18.27734375 C40.77035551 20.84734982 45.88605337 23.42191525 51 26 C51 26.33 51 26.66 51 27 C28.98871791 30.29662059 13.46708363 21.60905034 -5 11 C-3.71368455 6.96208801 -2.30766945 3.56639824 0 0 Z " fill="#D80737" transform="translate(35,125)"/>
<path d="M0 0 C2.12508244 3.18762365 2.5020163 5.26512223 3 9 C5.97 9 8.94 9 12 9 C11.154375 9.61875 10.30875 10.2375 9.4375 10.875 C6.66897487 14.42439119 6.72839124 15.05366218 7.1875 19.3125 C7.43224085 20.87929892 7.69481238 22.4438453 8 24 C7.113125 23.319375 6.22625 22.63875 5.3125 21.9375 C2.2607903 19.74844122 2.2607903 19.74844122 -0.625 20.125 C-2.85405857 20.94623211 -4.92389842 21.84661023 -7 23 C-6.51421457 19.87709365 -6.0013988 17.00419641 -5 14 C-5.61875 13.731875 -6.2375 13.46375 -6.875 13.1875 C-9 12 -9 12 -11 9 C-8.36 9 -5.72 9 -3 9 C-2.01 6.03 -1.02 3.06 0 0 Z " fill="#F3F5F8" transform="translate(425,256)"/>
<path d="M0 0 C2.5221286 1.24743936 5.04270078 2.49787069 7.5625 3.75 C8.26697266 4.09804687 8.97144531 4.44609375 9.69726562 4.8046875 C14.22551026 7.05837608 18.6309758 9.45092412 23 12 C23 12.33 23 12.66 23 13 C13.76 13 4.52 13 -5 13 C-2 4 -2 4 0 0 Z " fill="#092C77" transform="translate(27,139)"/>
<path d="M0 0 C15.18 0 30.36 0 46 0 C45.01 0.99 44.02 1.98 43 3 C42.34 3 41.68 3 41 3 C41 2.34 41 1.68 41 1 C27.47 1 13.94 1 0 1 C0 0.67 0 0.34 0 0 Z " fill="#1D3C82" transform="translate(5,204)"/>
</svg>
