<?xml version="1.0" encoding="UTF-8"?>
<svg version="1.1" xmlns="http://www.w3.org/2000/svg" width="300" height="300">
<path d="M0 0 C93.39 0 186.78 0 283 0 C283 54.78 283 109.56 283 166 C212.27225752 166.04033135 212.27225752 166.04033135 182.80664062 166.04882812 C176.06160479 166.05078614 169.31656898 166.05280666 162.5715332 166.05493164 C161.72609729 166.05519539 160.88066137 166.05545914 160.00960618 166.05573088 C146.34241114 166.06008583 132.67522029 166.06797274 119.00802774 166.0771528 C104.99247937 166.08648866 90.9769332 166.09205547 76.96138185 166.09408849 C68.30591679 166.09546386 59.65046356 166.0998152 50.99500214 166.10791647 C45.06787352 166.11318309 39.14075105 166.11480449 33.21362025 166.11350138 C29.78876259 166.11285787 26.36392567 166.11387697 22.93907166 166.11920547 C19.2347192 166.1241351 15.53041856 166.123001 11.82606506 166.12025452 C10.73173049 166.12316736 9.63739591 166.1260802 8.50989968 166.12908131 C7.52559107 166.12709026 6.54128247 166.12509921 5.52714634 166.12304783 C4.67087699 166.12342755 3.81460765 166.12380727 2.93239075 166.1241985 C1 166 1 166 0 165 C-0.09690407 162.87373202 -0.12186822 160.74418181 -0.12025452 158.6157074 C-0.12111053 157.94270096 -0.12196655 157.26969452 -0.12284851 156.57629395 C-0.12451333 154.29749973 -0.11896456 152.01877782 -0.11352539 149.73999023 C-0.11321929 148.08783756 -0.11335215 146.43568476 -0.11389065 144.78353214 C-0.11411718 140.34356414 -0.10830505 135.90362287 -0.10128021 131.46366119 C-0.09560162 127.30328788 -0.09531799 123.1429212 -0.09460449 118.98254395 C-0.08934905 106.80085906 -0.07538801 94.6191792 -0.0625 82.4375 C-0.041875 55.233125 -0.02125 28.02875 0 0 Z " fill="#C31D2D" transform="translate(9,66)"/>
<path d="M0 0 C42.9 0 85.8 0 130 0 C130 23.43 130 46.86 130 71 C87.1 71 44.2 71 0 71 C0 47.57 0 24.14 0 0 Z " fill="#FDFBFC" transform="translate(9,66)"/>
<path d="M0 0 C42.9 0 85.8 0 130 0 C130 23.43 130 46.86 130 71 C97.6904009 71.04030303 97.6904009 71.04030303 84.19335938 71.04882812 C74.85896254 71.05477117 65.5245747 71.06177298 56.19018555 71.07543945 C49.39323687 71.08538615 42.59629546 71.09185339 35.79933971 71.09408849 C32.19821869 71.09539563 28.59711848 71.09848164 24.9960041 71.10573006 C20.98243398 71.11374364 16.96890036 71.11399115 12.95532227 71.11352539 C11.15134727 71.1189183 11.15134727 71.1189183 9.31092834 71.12442017 C8.22412781 71.1230455 7.13732727 71.12167084 6.01759338 71.12025452 C5.06722482 71.12117631 4.11685625 71.1220981 3.13768864 71.12304783 C1 71 1 71 0 70 C-0.09429342 67.82194281 -0.11742538 65.6407872 -0.11352539 63.46069336 C-0.11364593 62.76671983 -0.11376646 62.0727463 -0.11389065 61.35774326 C-0.11314169 59.10174464 -0.10551429 56.84582768 -0.09765625 54.58984375 C-0.09618678 53.20088745 -0.0951661 51.8119306 -0.09460449 50.42297363 C-0.08935224 45.26114067 -0.07539114 40.09931954 -0.0625 34.9375 C-0.041875 23.408125 -0.02125 11.87875 0 0 Z " fill="#FCFCFD" transform="translate(9,161)"/>
<path d="M0 0 C42.57 0 85.14 0 129 0 C129 23.43 129 46.86 129 71 C86.43 71 43.86 71 0 71 C0 47.57 0 24.14 0 0 Z " fill="#FCFCFD" transform="translate(163,161)"/>
<path d="M0 0 C42.57 0 85.14 0 129 0 C129 23.43 129 46.86 129 71 C86.43 71 43.86 71 0 71 C0 47.57 0 24.14 0 0 Z " fill="#FDFBFC" transform="translate(163,66)"/>
<path d="M0 0 C0 19.8 0 39.6 0 60 C-33.33 60 -66.66 60 -101 60 C-97.64806254 56.64806254 -95.38020375 54.8773956 -91.36328125 52.63671875 C-89.68081299 51.68913696 -89.68081299 51.68913696 -87.96435547 50.72241211 C-87.07269684 50.22570511 -87.07269684 50.22570511 -86.1630249 49.71896362 C-82.98443186 47.94724842 -79.81860284 46.15301252 -76.65234375 44.359375 C-76.00666443 43.99408188 -75.36098511 43.62878876 -74.69573975 43.25242615 C-68.5256832 39.75165631 -62.44316081 36.11180815 -56.375 32.4375 C-46.72632374 26.60409713 -37.00089855 20.91903998 -27.22241211 15.30615234 C-20.05130488 11.18970059 -12.90860657 7.02977175 -5.80859375 2.79174805 C-1.10568787 0 -1.10568787 0 0 0 Z " fill="#183166" transform="translate(131,172)"/>
<path d="M0 0 C6.93 3.96 6.93 3.96 14 8 C16.2171875 9.26199219 18.434375 10.52398437 20.71875 11.82421875 C33.26934171 18.97048594 45.77455073 26.18160116 58.19140625 33.55859375 C62.62708963 36.19240327 67.07452996 38.80546753 71.52734375 41.41015625 C72.17704636 41.7903038 72.82674896 42.17045135 73.49613953 42.56211853 C76.08453708 44.07632058 78.67307821 45.59027047 81.26290894 47.10202026 C95.72488627 55.54434237 95.72488627 55.54434237 101 59 C101 59.33 101 59.66 101 60 C67.67 60 34.34 60 0 60 C0 40.2 0 20.4 0 0 Z " fill="#183066" transform="translate(171,172)"/>
<path d="M0 0 C33.33 0 66.66 0 101 0 C101 19.47 101 38.94 101 59 C97.43497946 57.57399179 94.53303581 56.25419089 91.28125 54.33984375 C90.36448486 53.80254639 89.44771973 53.26524902 88.50317383 52.71166992 C87.51212646 52.12619385 86.5210791 51.54071777 85.5 50.9375 C84.44901123 50.32044189 83.39802246 49.70338379 82.31518555 49.06762695 C80.04962812 47.73721944 77.7847957 46.40565456 75.52099609 45.07226562 C72.01306078 43.00663979 68.50116865 40.94781514 64.98828125 38.890625 C63.79890484 38.19401838 62.60953312 37.49740375 61.42016602 36.80078125 C60.82648224 36.45305664 60.23279846 36.10533203 59.62112427 35.74707031 C56.57499665 33.96251702 53.52962813 32.17667005 50.484375 30.390625 C49.87356583 30.03238647 49.26275665 29.67414795 48.63343811 29.30505371 C44.80720479 27.06070644 40.98168923 24.81513963 37.15657043 22.56889343 C34.57788686 21.05474948 31.99884744 19.54121223 29.41976929 18.02774048 C28.20997506 17.31757602 27.0003513 16.60712107 25.79092407 15.89633179 C17.23062836 10.86542042 8.63023203 5.90955981 0 1 C0 0.67 0 0.34 0 0 Z " fill="#193066" transform="translate(30,66)"/>
<path d="M0 0 C33 0 66 0 100 0 C96.66410533 2.66871574 93.89389127 4.77629554 90.28125 6.85546875 C88.90610229 7.65174683 88.90610229 7.65174683 87.50317383 8.46411133 C86.51212646 9.03282959 85.5210791 9.60154785 84.5 10.1875 C82.32658375 11.44489919 80.15341739 12.7027304 77.98046875 13.9609375 C76.83884277 14.62061523 75.6972168 15.28029297 74.52099609 15.95996094 C69.20765567 19.03446491 63.91454175 22.14348898 58.62057495 25.25119019 C56.19301271 26.6761287 53.76480131 28.09995918 51.33662415 29.52384949 C49.48443508 30.61001495 47.63234177 31.69634352 45.78027344 32.78271484 C39.95724006 36.19826076 34.13366101 39.61287587 28.30990601 43.02719116 C26.50381373 44.08611965 24.69782409 45.145223 22.8918457 46.2043457 C20.67428628 47.50452523 18.45628794 48.80395651 16.23779297 50.10253906 C14.00042797 51.41371391 11.7650822 52.72792367 9.53173828 54.04589844 C8.43974121 54.68817383 7.34774414 55.33044922 6.22265625 55.9921875 C4.75131226 56.86012939 4.75131226 56.86012939 3.25024414 57.74560547 C1 59 1 59 0 59 C0 39.53 0 20.06 0 0 Z " fill="#183066" transform="translate(171,66)"/>
<path d="M0 0 C4.54511495 1.51503832 7.60429293 2.76742601 11.578125 5.16796875 C12.64329346 5.80629639 13.70846191 6.44462402 14.8059082 7.10229492 C15.36637848 7.44167084 15.92684875 7.78104675 16.50430298 8.13070679 C19.51515578 9.95338779 22.53763597 11.7566351 25.55859375 13.5625 C26.1782048 13.93356369 26.79781586 14.30462738 27.436203 14.68693542 C33.68742799 18.42491707 39.9952383 22.06240468 46.3125 25.6875 C54.6492109 30.48022404 62.96704844 35.30236119 71.25 40.1875 C72.14887939 40.71625732 73.04775879 41.24501465 73.97387695 41.78979492 C78.40059381 44.40772746 82.80630812 47.0191896 87 50 C87 50.33 87 50.66 87 51 C58.29 51 29.58 51 0 51 C0 34.17 0 17.34 0 0 Z " fill="#1A3267" transform="translate(9,78)"/>
<path d="M0 0 C0 16.83 0 33.66 0 51 C-28.71 51 -57.42 51 -87 51 C-84.15378325 48.15378325 -81.8309848 46.61775007 -78.35546875 44.6640625 C-76.64532593 43.69641968 -76.64532593 43.69641968 -74.90063477 42.70922852 C-74.29583282 42.36981232 -73.69103088 42.03039612 -73.06790161 41.68069458 C-69.86476938 39.88239292 -66.67116899 38.06729637 -63.4765625 36.25390625 C-62.51258293 35.70744698 -62.51258293 35.70744698 -61.52912903 35.14994812 C-56.0045257 32.01395553 -50.52363384 28.80779924 -45.0625 25.5625 C-38.81743559 21.85223876 -32.56604749 18.15374591 -26.296875 14.484375 C-25.6353392 14.09712753 -24.97380341 13.70988007 -24.29222107 13.31089783 C-21.64855777 11.76372204 -19.00468033 10.21691644 -16.3598938 8.67166138 C-14.52725137 7.6008654 -12.69522839 6.52901617 -10.86328125 5.45703125 C-9.27447144 4.5285437 -9.27447144 4.5285437 -7.65356445 3.58129883 C-1.64381658 0 -1.64381658 0 0 0 Z " fill="#1A3267" transform="translate(292,78)"/>
<path d="M0 0 C28.38 0 56.76 0 86 0 C83.43092296 2.56907704 81.55692076 3.9880089 78.4765625 5.7578125 C77.55319092 6.29196777 76.62981934 6.82612305 75.6784668 7.37646484 C74.16700073 8.24198975 74.16700073 8.24198975 72.625 9.125 C70.4359577 10.39020947 68.24716638 11.65585327 66.05859375 12.921875 C65.4858522 13.25234833 64.91311066 13.58282166 64.32301331 13.92330933 C58.36732608 17.35989603 52.43286995 20.83233941 46.50183105 24.31124878 C44.68578572 25.37600509 42.86883758 26.43920743 41.05175781 27.50219727 C34.76853737 31.18110047 28.50375263 34.88832584 22.26171875 38.63671875 C21.00893367 39.3869871 19.75608638 40.13715158 18.50317383 40.88720703 C16.12752514 42.30943679 13.75718018 43.74000431 11.3894043 45.17529297 C10.33019775 45.80967285 9.27099121 46.44405273 8.1796875 47.09765625 C7.24882324 47.65976807 6.31795898 48.22187988 5.35888672 48.80102539 C3 50 3 50 0 50 C0 33.5 0 17 0 0 Z " fill="#183066" transform="translate(9,169)"/>
<path d="M0 0 C28.38 0 56.76 0 86 0 C86 16.5 86 33 86 50 C81.8763966 48.62546553 79.15711567 47.69296387 75.62109375 45.55859375 C74.79794678 45.06649414 73.9747998 44.57439453 73.12670898 44.06738281 C72.23927002 43.52952148 71.35183105 42.99166016 70.4375 42.4375 C68.4587415 41.253224 66.47955276 40.06966666 64.5 38.88671875 C63.44683594 38.25556152 62.39367187 37.6244043 61.30859375 36.97412109 C56.14074658 33.89064912 50.94726871 30.85126502 45.75305176 27.81253052 C43.93469929 26.74836092 42.11713699 25.68285408 40.29980469 24.61694336 C34.4673332 21.1967583 28.6312437 17.78300115 22.78648376 14.3838501 C20.07279494 12.8051862 17.36068046 11.2238292 14.64871216 9.64221191 C13.34504232 8.8829533 12.04058182 8.1250506 10.73532104 7.36853027 C8.9296774 6.32189985 7.12668639 5.2708377 5.32421875 4.21875 C4.29385498 3.61998047 3.26349121 3.02121094 2.2019043 2.40429688 C1.47527588 1.94087891 0.74864746 1.47746094 0 1 C0 0.67 0 0.34 0 0 Z " fill="#183066" transform="translate(206,169)"/>
</svg>
