<?xml version="1.0" encoding="UTF-8"?>
<svg version="1.1" xmlns="http://www.w3.org/2000/svg" width="300" height="300">
<path d="M0 0 C0.71884369 -0.00979385 1.43768738 -0.01958771 2.17831421 -0.02967834 C37.18834128 -0.40730519 69.59928441 6.5205677 97.984375 28.23828125 C98.8403125 28.88410156 99.69625 29.52992187 100.578125 30.1953125 C103.09948016 32.15415013 105.54959786 34.17286659 107.984375 36.23828125 C108.94085938 37.0478125 109.89734375 37.85734375 110.8828125 38.69140625 C118.13342801 44.99409869 124.10681863 51.92160218 129.80615234 59.64257812 C130.82614148 61.02398074 131.86635786 62.3904049 132.91015625 63.75390625 C151.31041213 88.62597627 159.4301681 119.11076728 159.359375 149.67578125 C159.35916351 150.5166629 159.35895203 151.35754456 159.35873413 152.22390747 C159.32600106 165.26485516 158.5566009 177.62674477 154.984375 190.23828125 C154.64535156 191.50800781 154.30632812 192.77773437 153.95703125 194.0859375 C149.09379414 210.26788305 141.30224741 225.87023488 130.984375 239.23828125 C130.01757812 240.51832031 130.01757812 240.51832031 129.03125 241.82421875 C120.73721195 252.51206453 111.8154755 262.10007799 100.984375 270.23828125 C100.0459375 270.95371094 99.1075 271.66914063 98.140625 272.40625 C83.25582945 283.24376222 66.73098998 291.38898424 48.984375 296.23828125 C48.29843262 296.44565918 47.61249023 296.65303711 46.90576172 296.86669922 C23.48613358 303.81622528 -7.7032111 303.26665232 -31.015625 296.23828125 C-31.73089355 296.04524414 -32.44616211 295.85220703 -33.18310547 295.65332031 C-51.52557735 290.70292573 -69.52350437 281.53088854 -84.015625 269.23828125 C-85.17253203 268.29217942 -86.33012437 267.34691518 -87.48828125 266.40234375 C-109.44178875 248.28194162 -125.2862602 225.04255145 -134.453125 198.11328125 C-134.77120117 197.18507568 -135.08927734 196.25687012 -135.41699219 195.30053711 C-140.17733315 180.5032555 -141.57398611 165.93576854 -141.453125 150.48828125 C-141.45008362 149.65922272 -141.44704224 148.83016418 -141.44390869 147.97598267 C-141.37403435 135.06615404 -140.67359693 122.69781015 -137.015625 110.23828125 C-136.80663574 109.51560059 -136.59764648 108.79291992 -136.38232422 108.04833984 C-131.34150404 91.24183003 -123.67993729 75.17655656 -113.015625 61.23828125 C-112.36980469 60.38234375 -111.72398438 59.52640625 -111.05859375 58.64453125 C-109.09975612 56.12317609 -107.08103966 53.67305839 -105.015625 51.23828125 C-104.20609375 50.28179687 -103.3965625 49.3253125 -102.5625 48.33984375 C-96.25980756 41.08922824 -89.33230407 35.11583762 -81.61132812 29.41650391 C-80.22992551 28.39651477 -78.86350135 27.35629839 -77.5 26.3125 C-60.39276811 13.65663968 -39.96224547 5.52586742 -19.015625 2.23828125 C-19.180625 3.18703125 -19.345625 4.13578125 -19.515625 5.11328125 C-20.0682885 8.03997026 -20.0682885 8.03997026 -20.015625 10.23828125 C-18.365625 8.91828125 -16.715625 7.59828125 -15.015625 6.23828125 C-12.0436865 7.36279852 -9.68121813 8.46121916 -7.015625 10.23828125 C-7.36625 9.49578125 -7.716875 8.75328125 -8.078125 7.98828125 C-9.06440278 5.09519977 -9.10984736 4.02357454 -8.015625 1.23828125 C-6.10296324 -0.67438051 -2.60593707 0.02846479 0 0 Z " fill="#165EAC" transform="translate(141.015625,-0.23828125)"/>
<path d="M0 0 C99 0 198 0 300 0 C297.62709053 17.79682099 297.62709053 17.79682099 295.875 24.3125 C295.55740723 25.49743042 295.55740723 25.49743042 295.23339844 26.70629883 C286.68194311 56.97616549 267.15168837 85.17996058 242 104 C241.06285156 104.71414063 240.12570313 105.42828125 239.16015625 106.1640625 C224.27698605 117.00559961 207.74730908 125.15051332 190 130 C189.31405762 130.20737793 188.62811523 130.41475586 187.92138672 130.62841797 C164.50175858 137.57794403 133.3124139 137.02837107 110 130 C109.28473145 129.80696289 108.56946289 129.61392578 107.83251953 129.41503906 C89.49004765 124.46464448 71.49212063 115.29260729 57 103 C55.84309297 102.05389817 54.68550063 101.10863393 53.52734375 100.1640625 C24.09531883 75.87089992 4.50501197 41.05796574 0 3 C0 2.01 0 1.02 0 0 Z " fill="#F2F3F3" transform="translate(0,166)"/>
<path d="M0 0 C0.71884369 -0.00979385 1.43768738 -0.01958771 2.17831421 -0.02967834 C37.18834128 -0.40730519 69.59928441 6.5205677 97.984375 28.23828125 C98.8403125 28.88410156 99.69625 29.52992187 100.578125 30.1953125 C103.09948016 32.15415013 105.54959786 34.17286659 107.984375 36.23828125 C108.94085938 37.0478125 109.89734375 37.85734375 110.8828125 38.69140625 C118.13342801 44.99409869 124.10681863 51.92160218 129.80615234 59.64257812 C130.82614148 61.02398074 131.86635786 62.3904049 132.91015625 63.75390625 C148.30930951 84.56931341 155.60365039 108.8828467 158.984375 134.23828125 C109.814375 134.23828125 60.644375 134.23828125 9.984375 134.23828125 C9.984375 116.41828125 9.984375 98.59828125 9.984375 80.23828125 C8.004375 79.90828125 6.024375 79.57828125 3.984375 79.23828125 C0.48744484 77.93890042 -2.84355156 76.29489948 -6.203125 74.67578125 C-7.1413208 74.22468994 -8.0795166 73.77359863 -9.04614258 73.30883789 C-15.98491572 69.89756046 -22.10179903 66.25815679 -28.015625 61.23828125 C-28.89476563 60.50738281 -29.77390625 59.77648438 -30.6796875 59.0234375 C-38.03565036 52.6764784 -43.53893285 45.84730462 -48.015625 37.23828125 C-48.015625 36.57828125 -48.015625 35.91828125 -48.015625 35.23828125 C-49.665625 35.89828125 -51.315625 36.55828125 -53.015625 37.23828125 C-51.695625 33.27828125 -50.375625 29.31828125 -49.015625 25.23828125 C-51.490625 24.24828125 -51.490625 24.24828125 -54.015625 23.23828125 C-56.328125 21.11328125 -56.328125 21.11328125 -58.015625 19.23828125 C-54.385625 18.90828125 -50.755625 18.57828125 -47.015625 18.23828125 C-46.70625 16.69140625 -46.396875 15.14453125 -46.078125 13.55078125 C-44.95905408 10.66733574 -44.04540676 8.7978325 -41.27050781 7.29003906 C-34.12926821 4.53715722 -26.57807314 3.20731357 -19.015625 2.23828125 C-19.180625 3.18703125 -19.345625 4.13578125 -19.515625 5.11328125 C-20.0682885 8.03997026 -20.0682885 8.03997026 -20.015625 10.23828125 C-18.365625 8.91828125 -16.715625 7.59828125 -15.015625 6.23828125 C-12.0436865 7.36279852 -9.68121813 8.46121916 -7.015625 10.23828125 C-7.36625 9.49578125 -7.716875 8.75328125 -8.078125 7.98828125 C-9.06440278 5.09519977 -9.10984736 4.02357454 -8.015625 1.23828125 C-6.10296324 -0.67438051 -2.60593707 0.02846479 0 0 Z " fill="#92ACD9" transform="translate(141.015625,-0.23828125)"/>
<path d="M0 0 C99 0 198 0 300 0 C297.67869718 17.40977113 297.67869718 17.40977113 295.5 25.3125 C295.28730469 26.13427734 295.07460938 26.95605469 294.85546875 27.80273438 C293.26331377 33.73668623 293.26331377 33.73668623 291 36 C288.93699872 36.24839699 288.93699872 36.24839699 286.33418846 36.24609566 C285.34440542 36.25007775 284.35462237 36.25405985 283.3348459 36.25816262 C282.23953322 36.25233693 281.14422053 36.24651125 280.01571655 36.24050903 C278.2796853 36.24307231 278.2796853 36.24307231 276.50858271 36.24568737 C273.28639664 36.24842062 270.06436987 36.24213758 266.84220266 36.23213124 C263.37117602 36.22351972 259.90015724 36.22641527 256.42912292 36.22793579 C250.41209514 36.2289861 244.39511062 36.22269427 238.37809372 36.21146011 C229.67843079 36.19522783 220.97878885 36.18999944 212.27911241 36.18748413 C198.16555526 36.18310345 184.05202118 36.16978425 169.93847656 36.15087891 C156.22591264 36.13252974 142.51335497 36.11836853 128.80078125 36.10986328 C127.95598695 36.10933783 127.11119265 36.10881239 126.24079852 36.10827102 C122.00284766 36.105661 117.76489676 36.10313357 113.52694583 36.10064721 C78.35128077 36.0799031 43.17564251 36.04466745 8 36 C7.18780561 33.44199292 6.37878039 30.88305461 5.5715332 28.32348633 C5.34264656 27.60372871 5.11375992 26.8839711 4.87793732 26.14240265 C3.27088077 21.03514101 1.99583209 15.98542176 1.1875 10.6875 C1.00670898 9.61725586 1.00670898 9.61725586 0.82226562 8.52539062 C0.34848131 5.64748931 0 2.9213324 0 0 Z " fill="#F4F3F3" transform="translate(0,166)"/>
<path d="M0 0 C93.06 0 186.12 0 282 0 C281.27044998 4.3773001 280.86184148 6.78219056 279.07421875 10.53125 C278.68943359 11.34207031 278.30464844 12.15289062 277.90820312 12.98828125 C277.50537109 13.81714844 277.10253906 14.64601562 276.6875 15.5 C276.1006543 16.74330078 276.1006543 16.74330078 275.50195312 18.01171875 C274.37183385 20.36941369 273.24714047 22.70173612 272 25 C271.52272587 26.02317636 271.04545174 27.04635273 270.55371475 28.10053444 C267.76808854 31.26331026 267.46914377 31.43543801 263.54099655 31.73828697 C261.65287837 31.76355283 259.76414463 31.75531241 257.87615967 31.7215271 C256.31519967 31.72921692 256.31519967 31.72921692 254.72270513 31.7370621 C251.22434338 31.74697079 247.72769571 31.71390226 244.22949219 31.68115234 C241.72647136 31.67946049 239.22344756 31.68040874 236.72042847 31.68380737 C231.32583187 31.68517511 225.93177212 31.66812291 220.53731537 31.63438034 C212.73792564 31.58562655 204.93874646 31.56999263 197.13922086 31.56245239 C184.4852727 31.54931919 171.83155655 31.50938588 159.17773438 31.45263672 C146.88542848 31.39756617 134.59318559 31.35509393 122.30078125 31.32958984 C121.54313527 31.3280135 120.78548928 31.32643716 120.00488433 31.32481305 C116.20401317 31.31698285 112.40314156 31.3094006 108.60226965 31.30194163 C77.06801105 31.23973685 45.53404075 31.13360838 14 31 C12.73679014 28.816679 11.47689615 26.63154929 10.21875 24.4453125 C9.86651367 23.83727783 9.51427734 23.22924316 9.15136719 22.6027832 C0 6.67223502 0 6.67223502 0 0 Z " fill="#C3161D" transform="translate(9,201)"/>
<path d="M0 0 C46.53 0 93.06 0 141 0 C146.76528675 18.44891758 146.76528675 18.44891758 147.8125 25.3125 C147.93302734 26.02599609 148.05355469 26.73949219 148.17773438 27.47460938 C148.65151869 30.35251069 149 33.0786676 149 36 C99.83 36 50.66 36 0 36 C0 24.12 0 12.24 0 0 Z " fill="#FAFAFB" transform="translate(151,98)"/>
<path d="M0 0 C49.17 0 98.34 0 149 0 C149 10.56 149 21.12 149 32 C99.83 32 50.66 32 0 32 C0 21.44 0 10.88 0 0 Z " fill="#CD181F" transform="translate(151,134)"/>
<path d="M0 0 C62.04 0 124.08 0 188 0 C173.48443228 14.51556772 153.64453989 23.63209132 134 29 C133.31405762 29.20737793 132.62811523 29.41475586 131.92138672 29.62841797 C108.50175858 36.57794403 77.3124139 36.02837107 54 29 C53.28473145 28.80696289 52.56946289 28.61392578 51.83251953 28.41503906 C33.84396822 23.56016304 14.86883654 14.62347162 1 2 C0.67 1.34 0.34 0.68 0 0 Z " fill="#BE191E" transform="translate(56,267)"/>
<path d="M0 0 C41.25 0 82.5 0 125 0 C140 26.66666667 140 26.66666667 140 32 C93.8 32 47.6 32 0 32 C0 21.44 0 10.88 0 0 Z " fill="#E99076" transform="translate(151,66)"/>
<path d="M0 0 C11.4486836 -0.15843399 22.89663377 -0.2867344 34.34616756 -0.3626852 C39.66324173 -0.39914637 44.97952408 -0.44856634 50.29614258 -0.52807617 C55.43147574 -0.60439027 60.56604956 -0.64604378 65.7019062 -0.6641407 C67.65672312 -0.67702935 69.6115006 -0.70219871 71.56599236 -0.7401104 C88.80041951 -1.06097593 88.80041951 -1.06097593 94.5769043 3.38037109 C95.75321093 4.55254959 96.89966839 5.75622748 98 7 C99.02711977 7.88001899 100.06544404 8.74721864 101.1171875 9.59765625 C110.15821312 17.67823297 117.74466285 26.57443809 124 37 C83.08 37 42.16 37 0 37 C0 24.79 0 12.58 0 0 Z " fill="#FDFDFD" transform="translate(151,29)"/>
<path d="M0 0 C31.08162567 -1.01078457 63.46661156 8.26757986 88 28 C88 28.33 88 28.66 88 29 C58.96 29 29.92 29 0 29 C0 19.43 0 9.86 0 0 Z " fill="#D91921" transform="translate(151,0)"/>
<path d="M0 0 C49.17 0 98.34 0 149 0 C149 10.56 149 21.12 149 32 C140.75 32 132.5 32 124 32 C119.5 23.1875 119.5 23.1875 118.13867188 20.48510742 C117.32355089 18.91423048 116.46679215 17.3645606 115.57922363 15.83345032 C114 13 114 13 112.80273438 10.12841797 C110.9099854 6.47749621 109.31935109 4.4755226 106 2 C98.32038691 -0.14594677 89.92136142 0.58218231 82.03125 0.70703125 C79.66612899 0.70510847 77.30100738 0.69834001 74.93591309 0.68693542 C68.72745985 0.66996739 62.5212044 0.71862967 56.31311035 0.78112793 C49.9717736 0.83330079 43.63056673 0.8231818 37.2890625 0.81835938 C24.85871506 0.81806026 12.42979897 0.88711908 0 1 C0 0.67 0 0.34 0 0 Z " fill="#E88C76" transform="translate(151,134)"/>
<path d="M0 0 C1.58206057 0.00667536 3.16410534 0.0186375 4.74609375 0.03515625 C5.55240234 0.03966797 6.35871094 0.04417969 7.18945312 0.04882812 C9.18753131 0.06065107 11.18557158 0.07858711 13.18359375 0.09765625 C13.18359375 4.71765625 13.18359375 9.33765625 13.18359375 14.09765625 C10.2909375 14.38769531 10.2909375 14.38769531 7.33984375 14.68359375 C4.78772919 14.94631143 2.23564756 15.20934911 -0.31640625 15.47265625 C-1.58484375 15.59898438 -2.85328125 15.7253125 -4.16015625 15.85546875 C-11.77915625 16.61017121 -11.77915625 16.61017121 -19.25390625 18.19140625 C-23.08080784 19.1649163 -26.37732607 19.29840779 -30.31640625 19.22265625 C-31.54359375 19.20460938 -32.77078125 19.1865625 -34.03515625 19.16796875 C-34.95296875 19.14476563 -35.87078125 19.1215625 -36.81640625 19.09765625 C-37.32008382 17.64058899 -37.81923181 16.18195529 -38.31640625 14.72265625 C-38.59484375 13.91054687 -38.87328125 13.0984375 -39.16015625 12.26171875 C-39.81640625 10.09765625 -39.81640625 10.09765625 -39.81640625 8.09765625 C-37.13066243 7.27894244 -34.44304905 6.46756637 -31.75390625 5.66015625 C-30.6256543 5.31500977 -30.6256543 5.31500977 -29.47460938 4.96289062 C-24.91919681 3.60218298 -20.54055272 2.64347397 -15.81640625 2.09765625 C-15.98140625 3.04640625 -16.14640625 3.99515625 -16.31640625 4.97265625 C-16.86906975 7.89934526 -16.86906975 7.89934526 -16.81640625 10.09765625 C-15.16640625 8.77765625 -13.51640625 7.45765625 -11.81640625 6.09765625 C-8.84446775 7.22217352 -6.48199938 8.32059416 -3.81640625 10.09765625 C-4.16703125 9.35515625 -4.51765625 8.61265625 -4.87890625 7.84765625 C-5.86518403 4.95457477 -5.91062861 3.88294954 -4.81640625 1.09765625 C-3.81640625 0.09765625 -3.81640625 0.09765625 0 0 Z " fill="#3696D2" transform="translate(137.81640625,-0.09765625)"/>
<path d="M0 0 C17.36522617 -0.4235421 33.45912519 3.09045807 49.6875 9.0625 C50.35894043 9.30774414 51.03038086 9.55298828 51.72216797 9.80566406 C55.37894377 11.19898797 57.80569726 12.60427295 61 15 C40.87 15 20.74 15 0 15 C0 10.05 0 5.1 0 0 Z " fill="#E88E73" transform="translate(151,14)"/>
<path d="M0 0 C2.30291016 0.67095703 2.30291016 0.67095703 4.65234375 1.35546875 C5.6484668 1.64566895 6.64458984 1.93586914 7.67089844 2.23486328 C9.86323313 2.87421231 12.05528716 3.51452448 14.24707031 4.15576172 C19.14567034 5.58853393 24.04437061 7.01845247 28.95703125 8.40234375 C37.21779164 10.74505663 45.16234238 13.45115695 53 17 C53 17.33 53 17.66 53 18 C35.51 18 18.02 18 0 18 C0 12.06 0 6.12 0 0 Z " fill="#CE1A22" transform="translate(151,80)"/>
<path d="M0 0 C2.19554579 3.76586993 4.32581944 7.5398252 6.33203125 11.41015625 C6.91114258 12.50457031 6.91114258 12.50457031 7.50195312 13.62109375 C13.76953125 25.57967552 13.76953125 25.57967552 13.76953125 30.03515625 C9.14953125 30.03515625 4.52953125 30.03515625 -0.23046875 30.03515625 C-0.94332031 28.71902344 -1.65617187 27.40289062 -2.390625 26.046875 C-7.39525272 16.85088249 -12.38614069 7.73183554 -18.23046875 -0.96484375 C-15.64725609 -1.26822105 -13.06937761 -1.53323383 -10.48046875 -1.77734375 C-9.75085938 -1.86693359 -9.02125 -1.95652344 -8.26953125 -2.04882812 C-4.65104793 -2.3613335 -2.78111335 -2.44991246 0 0 Z " fill="#DB1A21" transform="translate(277.23046875,67.96484375)"/>
<path d="M0 0 C4.29 0 8.58 0 13 0 C13 10.23 13 20.46 13 31 C8.71 31 4.42 31 0 31 C0 20.77 0 10.54 0 0 Z " fill="#D51921" transform="translate(287,135)"/>
<path d="M0 0 C0.66 0 1.32 0 2 0 C2.66 3.3 3.32 6.6 4 10 C7.96 10 11.92 10 16 10 C12.54602565 13.45397435 11.30872286 14.56375905 7 16 C7.34224609 16.92232422 7.34224609 16.92232422 7.69140625 17.86328125 C7.97886719 18.67152344 8.26632813 19.47976562 8.5625 20.3125 C8.85253906 21.11300781 9.14257812 21.91351563 9.44140625 22.73828125 C10 25 10 25 9 28 C6.69 26.02 4.38 24.04 2 22 C-1.56521654 23.78260827 -4.71455357 25.75992289 -8 28 C-7.40075776 23.80530429 -6.42500059 19.99000166 -5 16 C-5.7425 15.7525 -6.485 15.505 -7.25 15.25 C-10 14 -10 14 -14 10 C-10.04 10 -6.08 10 -2 10 C-1.34 6.7 -0.68 3.4 0 0 Z " fill="#EAF2F8" transform="translate(126,81)"/>
<path d="M0 0 C0.66 0.33 1.32 0.66 2 1 C2.91223868 4.29419525 3.40281175 7.63015202 4 11 C7.96 11 11.92 11 16 11 C12.77588233 13.76352943 9.96479572 15.52069807 6 17 C6.30035156 17.69867188 6.60070312 18.39734375 6.91015625 19.1171875 C7.29042969 20.02726562 7.67070313 20.93734375 8.0625 21.875 C8.44535156 22.77992187 8.82820313 23.68484375 9.22265625 24.6171875 C10 27 10 27 9 29 C6.69 27.02 4.38 25.04 2 23 C-1.93673644 24.31224548 -4.22719294 25.91910327 -7 29 C-7.66 28.67 -8.32 28.34 -9 28 C-7.02 22.555 -7.02 22.555 -5 17 C-7.475 16.01 -7.475 16.01 -10 15 C-11.32 13.68 -12.64 12.36 -14 11 C-10.04 11 -6.08 11 -2 11 C-1.7834375 9.1128125 -1.7834375 9.1128125 -1.5625 7.1875 C-1.26251314 4.57332877 -0.84186703 2.52560108 0 0 Z " fill="#EEF4F9" transform="translate(97,57)"/>
<path d="M0 0 C0.66 0 1.32 0 2 0 C2.66 3.3 3.32 6.6 4 10 C7.96 10 11.92 10 16 10 C13.38485683 12.12038635 10.80362384 14.13091744 8 16 C8.66 19.63 9.32 23.26 10 27 C6 25 6 25 4.0625 23.25 C2.01455867 21.67690754 2.01455867 21.67690754 -0.5625 22.625 C-2.82085837 23.89894575 -4.23093345 25.14669219 -6 27 C-6.66 27 -7.32 27 -8 27 C-7.34 23.37 -6.68 19.74 -6 16 C-7.32 15.195625 -8.64 14.39125 -10 13.5625 C-11.35218996 12.73850924 -12.69107565 11.89112037 -14 11 C-14 10.67 -14 10.34 -14 10 C-10.04 10 -6.08 10 -2 10 C-1.34 6.7 -0.68 3.4 0 0 Z " fill="#F8FAFC" transform="translate(126,35)"/>
<path d="M0 0 C2.18975773 3.28463659 2.99806563 6.20696275 4 10 C9.445 10.495 9.445 10.495 15 11 C12.19713709 14.11429212 9.90669429 15.56171454 6 17 C6.30035156 17.69867188 6.60070312 18.39734375 6.91015625 19.1171875 C7.29042969 20.02726562 7.67070313 20.93734375 8.0625 21.875 C8.44535156 22.77992187 8.82820313 23.68484375 9.22265625 24.6171875 C10 27 10 27 9 29 C6.36 27.02 3.72 25.04 1 23 C-0.093125 23.61875 -1.18625 24.2375 -2.3125 24.875 C-2.92738281 25.22304687 -3.54226562 25.57109375 -4.17578125 25.9296875 C-5.81982289 26.89428581 -7.41400588 27.94267059 -9 29 C-7.66666667 25 -6.33333333 21 -5 17 C-5.7425 16.7525 -6.485 16.505 -7.25 16.25 C-10.20124062 14.90852699 -11.84814974 13.39094474 -14 11 C-8.555 10.505 -8.555 10.505 -3 10 C-2.01 6.7 -1.02 3.4 0 0 Z " fill="#F1F5F9" transform="translate(43,57)"/>
<path d="M0 0 C0.66 0.33 1.32 0.66 2 1 C2.90591398 3.95820059 3.40058396 6.96010437 4 10 C9.445 10.495 9.445 10.495 15 11 C12.22719294 14.08089673 9.93673644 15.68775452 6 17 C6.30035156 17.61488281 6.60070312 18.22976562 6.91015625 18.86328125 C7.29042969 19.67152344 7.67070313 20.47976562 8.0625 21.3125 C8.63677734 22.51326172 8.63677734 22.51326172 9.22265625 23.73828125 C10 26 10 26 9 29 C6.69 27.02 4.38 25.04 2 23 C-2.10958767 24.45044271 -5.43258745 26.51110752 -9 29 C-8.67515625 28.07767578 -8.67515625 28.07767578 -8.34375 27.13671875 C-8.0653125 26.32847656 -7.786875 25.52023438 -7.5 24.6875 C-7.2215625 23.88699219 -6.943125 23.08648437 -6.65625 22.26171875 C-5.86066893 19.91230578 -5.86066893 19.91230578 -6 17 C-7.77030621 15.56657393 -7.77030621 15.56657393 -10 14.375 C-11.34547747 13.60415353 -12.68241502 12.81760854 -14 12 C-14 11.67 -14 11.34 -14 11 C-10.04 11 -6.08 11 -2 11 C-1.7834375 9.1128125 -1.7834375 9.1128125 -1.5625 7.1875 C-1.26251314 4.57332877 -0.84186703 2.52560108 0 0 Z " fill="#F2F6FB" transform="translate(72,34)"/>
<path d="M0 0 C0.66 0 1.32 0 2 0 C2.66 3.3 3.32 6.6 4 10 C7.63 10 11.26 10 15 10 C10.25 14.875 10.25 14.875 8 16 C8.66 19.63 9.32 23.26 10 27 C6 25 6 25 4.0625 23.25 C3.381875 22.8375 2.70125 22.425 2 22 C-1.70452744 22.94987883 -4.77763302 24.97451219 -8 27 C-7.34 23.37 -6.68 19.74 -6 16 C-7.155 15.195625 -8.31 14.39125 -9.5 13.5625 C-10.68653894 12.73616038 -11.8588092 11.88791631 -13 11 C-13 10.67 -13 10.34 -13 10 C-9.37 10 -5.74 10 -2 10 C-1.34 6.7 -0.68 3.4 0 0 Z " fill="#F3F6FA" transform="translate(126,131)"/>
<path d="M0 0 C2.56616632 3.84924948 2.55097676 6.4349304 3 11 C6.96 11 10.92 11 15 11 C12.38485683 13.12038635 9.80362384 15.13091744 7 17 C7.74250597 21.08378283 8.82923301 25.01939223 10 29 C9.46890625 28.55527344 8.9378125 28.11054688 8.390625 27.65234375 C7.68421875 27.08644531 6.9778125 26.52054688 6.25 25.9375 C5.55390625 25.36902344 4.8578125 24.80054688 4.140625 24.21484375 C2.11371156 22.80094881 2.11371156 22.80094881 -0.03125 23.15625 C-2.17828711 24.07640876 -3.88218502 25.16163876 -5.75 26.5625 C-6.67039062 27.24505859 -6.67039062 27.24505859 -7.609375 27.94140625 C-8.06828125 28.29074219 -8.5271875 28.64007813 -9 29 C-8.52309796 27.37433394 -8.04340334 25.74948689 -7.5625 24.125 C-7.29566406 23.22007812 -7.02882813 22.31515625 -6.75390625 21.3828125 C-6 19 -6 19 -5 17 C-5.7425 16.7525 -6.485 16.505 -7.25 16.25 C-10.20124062 14.90852699 -11.84814974 13.39094474 -14 11 C-10.37 11 -6.74 11 -3 11 C-2.690625 9.55625 -2.38125 8.1125 -2.0625 6.625 C-1.54516353 4.21076314 -1.10514766 2.21029533 0 0 Z " fill="#F3F6FA" transform="translate(17,130)"/>
<path d="M0 0 C0.66 0.33 1.32 0.66 2 1 C2.6328125 3.28515625 2.6328125 3.28515625 3.125 6.0625 C3.29257813 6.98160156 3.46015625 7.90070312 3.6328125 8.84765625 C3.75398438 9.55792969 3.87515625 10.26820312 4 11 C7.3 11 10.6 11 14 11 C11.66666667 13.33333333 9.33333333 15.66666667 7 18 C7.99 21.3 8.98 24.6 10 28 C8.783125 26.96875 7.56625 25.9375 6.3125 24.875 C3.1480627 22.34065255 3.1480627 22.34065255 -0.75 22.375 C-3.09796286 24.07075095 -5.06322439 25.8480271 -7 28 C-7.66 27.67 -8.32 27.34 -9 27 C-7.02 21.555 -7.02 21.555 -5 16 C-7.475 15.01 -7.475 15.01 -10 14 C-12.3125 11.875 -12.3125 11.875 -14 10 C-8.555 9.505 -8.555 9.505 -3 9 C-2.01 6.03 -1.02 3.06 0 0 Z " fill="#F2F7FB" transform="translate(97,9)"/>
<path d="M0 0 C3.12259437 3.12259437 3.14293342 6.71466712 4 11 C7.63 11 11.26 11 15 11 C12.19713709 14.11429212 9.90669429 15.56171454 6 17 C6.30035156 17.69867188 6.60070312 18.39734375 6.91015625 19.1171875 C7.29042969 20.02726562 7.67070313 20.93734375 8.0625 21.875 C8.44535156 22.77992188 8.82820313 23.68484375 9.22265625 24.6171875 C10 27 10 27 9 29 C8.54109375 28.55527344 8.0821875 28.11054688 7.609375 27.65234375 C6.99578125 27.08644531 6.3821875 26.52054688 5.75 25.9375 C4.84507813 25.08478516 4.84507813 25.08478516 3.921875 24.21484375 C2.08995552 22.78351167 2.08995552 22.78351167 -0.03125 23.1875 C-2.95987169 24.39613752 -5.41904072 26.18159687 -8 28 C-7.855625 27.29875 -7.71125 26.5975 -7.5625 25.875 C-6.98521625 22.92443859 -6.48304859 19.96729849 -6 17 C-6.5775 16.65066406 -7.155 16.30132812 -7.75 15.94140625 C-8.4925 15.48636719 -9.235 15.03132812 -10 14.5625 C-10.7425 14.11003906 -11.485 13.65757812 -12.25 13.19140625 C-13.11625 12.60166016 -13.11625 12.60166016 -14 12 C-14 11.67 -14 11.34 -14 11 C-10.04 11 -6.08 11 -2 11 C-1.855625 9.9275 -1.71125 8.855 -1.5625 7.75 C-1.16250558 5.08337051 -0.72408076 2.58600271 0 0 Z " fill="#F5F7FB" transform="translate(72,130)"/>
<path d="M0 0 C0.66 0.33 1.32 0.66 2 1 C2.91223868 4.29419525 3.40281175 7.63015202 4 11 C7.63 11 11.26 11 15 11 C14.236875 11.598125 13.47375 12.19625 12.6875 12.8125 C9.85997601 15.03799512 9.85997601 15.03799512 7 18 C7.99 21.3 8.98 24.6 10 28 C6 26 6 26 4 24.3125 C2.13706984 22.81516697 2.13706984 22.81516697 0.125 23.0625 C-2.8312527 24.36672913 -5.36462398 26.1432578 -8 28 C-7.34 24.37 -6.68 20.74 -6 17 C-7.155 16.195625 -8.31 15.39125 -9.5 14.5625 C-10.68653894 13.73616038 -11.8588092 12.88791631 -13 12 C-13 11.67 -13 11.34 -13 11 C-9.37 11 -5.74 11 -2 11 C-1.7834375 9.1128125 -1.7834375 9.1128125 -1.5625 7.1875 C-1.26251314 4.57332877 -0.84186703 2.52560108 0 0 Z " fill="#F4F7FB" transform="translate(97,104)"/>
<path d="M0 0 C2.95183101 2.95183101 3.08663988 5.95511947 4 10 C7.3 10.33 10.6 10.66 14 11 C9.25 15.875 9.25 15.875 7 17 C7.99 20.63 8.98 24.26 10 28 C6.43478346 26.21739173 3.28544643 24.24007711 0 22 C-2.31 23.98 -4.62 25.96 -7 28 C-7.66 27.67 -8.32 27.34 -9 27 C-8.01 23.7 -7.02 20.4 -6 17 C-7.155 16.195625 -8.31 15.39125 -9.5 14.5625 C-10.68653894 13.73616038 -11.8588092 12.88791631 -13 12 C-13 11.67 -13 11.34 -13 11 C-9.7 11 -6.4 11 -3 11 C-2.01 7.37 -1.02 3.74 0 0 Z " fill="#F4F7FB" transform="translate(43,104)"/>
<path d="M0 0 C0.66 0.33 1.32 0.66 2 1 C2.6328125 3.28515625 2.6328125 3.28515625 3.125 6.0625 C3.29257813 6.98160156 3.46015625 7.90070313 3.6328125 8.84765625 C3.75398438 9.55792969 3.87515625 10.26820312 4 11 C7.3 11 10.6 11 14 11 C11.66666667 13.33333333 9.33333333 15.66666667 7 18 C7.99 21.3 8.98 24.6 10 28 C9.0925 27.38125 8.185 26.7625 7.25 26.125 C3.95501152 23.88153032 3.95501152 23.88153032 0 22 C-2.31 23.98 -4.62 25.96 -7 28 C-7.66 27.67 -8.32 27.34 -9 27 C-8.01 23.7 -7.02 20.4 -6 17 C-7.155 16.195625 -8.31 15.39125 -9.5 14.5625 C-10.68653894 13.73616038 -11.8588092 12.88791631 -13 12 C-13 11.67 -13 11.34 -13 11 C-9.37 11 -5.74 11 -2 11 C-1.7834375 9.1128125 -1.7834375 9.1128125 -1.5625 7.1875 C-1.26251314 4.57332877 -0.84186703 2.52560108 0 0 Z " fill="#F4F6FA" transform="translate(72,81)"/>
<path d="M0 0 C2.18975773 3.28463659 2.99806563 6.20696275 4 10 C7.3 10.33 10.6 10.66 14 11 C11.74259377 13.33524782 9.7194239 15.18705073 7 17 C7.99 20.63 8.98 24.26 10 28 C6.43478346 26.21739173 3.28544643 24.24007711 0 22 C-4.455 24.97 -4.455 24.97 -9 28 C-7.515 22.555 -7.515 22.555 -6 17 C-6.66 16.67 -7.32 16.34 -8 16 C-7.34 14.35 -6.68 12.7 -6 11 C-5.01 11 -4.02 11 -3 11 C-2.86722656 10.37351562 -2.73445312 9.74703125 -2.59765625 9.1015625 C-2.42105469 8.28429687 -2.24445312 7.46703125 -2.0625 6.625 C-1.88847656 5.81289062 -1.71445313 5.00078125 -1.53515625 4.1640625 C-1 2 -1 2 0 0 Z " fill="#F4F7FB" transform="translate(17,81)"/>
<path d="M0 0 C0.99 0.33 1.98 0.66 3 1 C2.40975852 2.65087847 1.80233994 4.29562407 1.1875 5.9375 C0.85105469 6.85402344 0.51460937 7.77054687 0.16796875 8.71484375 C-1 11 -1 11 -4 12 C-3.52494322 10.18641846 -3.04483958 8.37415821 -2.5625 6.5625 C-2.29566406 5.55316406 -2.02882813 4.54382813 -1.75390625 3.50390625 C-1 1 -1 1 0 0 Z " fill="#1250A7" transform="translate(9,97)"/>
</svg>
