<?xml version="1.0" encoding="UTF-8"?>
<svg version="1.1" xmlns="http://www.w3.org/2000/svg" width="800" height="600">
<path d="M0 0 C1.27482239 -0.00974854 2.54964478 -0.01949707 3.86309814 -0.02954102 C7.9816388 -0.05689546 12.10012876 -0.06797381 16.21875 -0.07421875 C16.91821243 -0.07551662 17.61767487 -0.0768145 18.33833313 -0.0781517 C39.73746391 -0.10829792 60.58576121 0.47766605 81.71875 4.23828125 C82.82718262 4.4202002 83.93561523 4.60211914 85.07763672 4.78955078 C157.92846683 16.76195185 228.88506457 49.88036968 283.3125 100.04296875 C284.6617035 101.27389792 286.01946869 102.49609607 287.40600586 103.68481445 C293.30602232 108.74612134 298.79807107 114.16911976 304.28125 119.67578125 C305.6415332 121.03026367 305.6415332 121.03026367 307.02929688 122.41210938 C312.13480171 127.52501885 317.05596849 132.71894004 321.71875 138.23828125 C322.25991455 138.8727417 322.8010791 139.50720215 323.35864258 140.16088867 C337.26923523 156.56323812 349.60026569 173.83260761 360.71875 192.23828125 C361.20166504 193.03508301 361.68458008 193.83188477 362.18212891 194.65283203 C386.84680126 235.68924683 403.40216225 280.57338074 412.40625 327.55078125 C412.69169678 329.00327271 412.69169678 329.00327271 412.98291016 330.48510742 C417.07361044 352.79137153 418.27230922 375.15116183 418.16558075 397.79016876 C418.1560845 399.90005258 418.15125558 402.00991158 418.14703369 404.11981201 C418.09134084 424.74623925 417.44193052 444.89679501 413.71875 465.23828125 C413.50444336 466.48399902 413.29013672 467.7297168 413.06933594 469.01318359 C406.15054477 508.83903464 393.39472227 547.45396912 374.71630859 583.31689453 C373.67933625 585.31419565 372.66173687 587.32069409 371.64453125 589.328125 C352.70182909 626.32747195 326.17813288 658.78529879 296.96875 688.11328125 C296.17662109 688.91008301 295.38449219 689.70688477 294.56835938 690.52783203 C289.77955762 695.30360985 284.85848741 699.84425541 279.71875 704.23828125 C278.74292969 705.09550781 277.76710938 705.95273437 276.76171875 706.8359375 C219.00740411 756.68952511 145.18893502 788.49821226 69.71875 798.23828125 C68.45861084 798.41560791 67.19847168 798.59293457 65.90014648 798.77563477 C51.48995323 800.65197173 37.02008716 800.57902064 22.51538086 800.55395508 C19.6216674 800.54933887 16.7283758 800.55620301 13.8347168 800.57446289 C-4.73254235 800.69043914 -22.87138551 799.97053564 -41.28125 797.23828125 C-41.99987213 797.13359528 -42.71849426 797.0289093 -43.45889282 796.92105103 C-47.20972933 796.36338372 -50.93393955 795.71086023 -54.65625 794.98828125 C-55.75815674 794.77703613 -56.86006348 794.56579102 -57.99536133 794.34814453 C-91.11864103 787.8251038 -122.78030398 777.71837725 -153.28125 763.23828125 C-154.29654785 762.75746094 -155.3118457 762.27664063 -156.35791016 761.78125 C-189.57074903 745.9152775 -220.50251148 725.43705797 -247.69921875 700.57421875 C-249.11797909 699.29068065 -250.54304872 698.01359461 -251.99487305 696.76757812 C-257.82520698 691.75900861 -263.28321815 686.41989419 -268.71875 680.98828125 C-269.60884766 680.11042969 -270.49894531 679.23257813 -271.41601562 678.328125 C-276.73093347 673.02485416 -281.63914859 667.55387809 -286.31152344 661.67553711 C-288.16328412 659.38424721 -290.09116769 657.21031006 -292.09375 655.05078125 C-336.82508037 604.95872169 -364.90807998 537.83524204 -376.96875 472.42578125 C-377.15920898 471.40935547 -377.34966797 470.39292969 -377.54589844 469.34570312 C-381.34219611 447.7074689 -382.77820959 426.14620777 -382.67236328 404.1953125 C-382.65625918 400.24053485 -382.67233662 396.28677867 -382.69140625 392.33203125 C-382.70541747 375.44792628 -381.58768515 358.96227355 -379.28125 342.23828125 C-379.1813678 341.49874207 -379.0814856 340.75920288 -378.97857666 339.99725342 C-378.45731466 336.20598636 -377.84513479 332.43998917 -377.15625 328.67578125 C-376.95088623 327.54978516 -376.74552246 326.42378906 -376.53393555 325.26367188 C-365.37044527 266.83703759 -341.48274868 208.91453861 -304.64257812 161.98046875 C-303.31160531 160.27712908 -302.00394823 158.55846945 -300.703125 156.83203125 C-284.60036397 135.50743328 -266.19493015 113.90386434 -245.0390625 97.4609375 C-242.63353407 95.52220424 -240.35361523 93.51577217 -238.0625 91.4453125 C-233.44610845 87.31865407 -228.62483749 83.5541065 -223.65625 79.86328125 C-222.78162109 79.21190186 -221.90699219 78.56052246 -221.00585938 77.8894043 C-213.59360411 72.40544697 -206.0821877 67.15333405 -198.28125 62.23828125 C-197.21680664 61.56514893 -197.21680664 61.56514893 -196.13085938 60.87841797 C-154.24644461 34.59711816 -106.43529829 13.94753995 -57.28125 6.23828125 C-57.9321539 9.88623599 -58.89923056 13.26397206 -60.12890625 16.7578125 C-60.66547852 18.29018555 -60.66547852 18.29018555 -61.21289062 19.85351562 C-61.58607422 20.90861328 -61.95925781 21.96371094 -62.34375 23.05078125 C-62.72080078 24.12521484 -63.09785156 25.19964844 -63.48632812 26.30664062 C-64.41499658 28.95158243 -65.34673189 31.59540179 -66.28125 34.23828125 C-65.79769043 33.86541992 -65.31413086 33.49255859 -64.81591797 33.10839844 C-62.59756446 31.39968818 -60.37692935 29.69396753 -58.15625 27.98828125 C-57.01542969 27.10849609 -57.01542969 27.10849609 -55.8515625 26.2109375 C-51.74909844 23.06335732 -47.62624041 20.04239647 -43.28125 17.23828125 C-35.93153885 22.88404082 -28.58773089 28.53658299 -21.28125 34.23828125 C-23.21170899 27.19379931 -25.65963438 20.40092846 -28.29931641 13.59765625 C-30.28125 8.44238097 -30.28125 8.44238097 -30.28125 6.23828125 C-28.84765625 4.984375 -28.84765625 4.984375 -26.84375 3.67578125 C-26.20566406 3.24136719 -25.56757813 2.80695312 -24.91015625 2.359375 C-17.41771173 -0.8357685 -8.00283279 0.05029442 0 0 Z " fill="#145DAC" transform="translate(382.28125,-0.23828125)"/>
<path d="M0 0 C263.34 0 526.68 0 798 0 C793.99381445 29.04484526 788.88805479 56.27318176 780 84 C779.71012207 84.90685547 779.42024414 85.81371094 779.12158203 86.74804688 C773.04383168 105.49576015 765.0975415 123.60646527 755.99755859 141.07861328 C754.96058625 143.0759144 753.94298687 145.08241284 752.92578125 147.08984375 C733.98307909 184.0891907 707.45938288 216.54701754 678.25 245.875 C677.45787109 246.67180176 676.66574219 247.46860352 675.84960938 248.28955078 C671.06080762 253.0653286 666.13973741 257.60597416 661 262 C659.53626953 263.28583984 659.53626953 263.28583984 658.04296875 264.59765625 C600.28865411 314.45124386 526.47018502 346.25993101 451 356 C449.73986084 356.17732666 448.47972168 356.35465332 447.18139648 356.53735352 C432.77120323 358.41369048 418.30133716 358.34073939 403.79663086 358.31567383 C400.9029174 358.31105762 398.0096258 358.31792176 395.1159668 358.33618164 C376.54870765 358.45215789 358.40986449 357.73225439 340 355 C339.28137787 354.89531403 338.56275574 354.79062805 337.82235718 354.68276978 C334.07152067 354.12510247 330.34731045 353.47257898 326.625 352.75 C325.52309326 352.53875488 324.42118652 352.32750977 323.28588867 352.10986328 C290.16260897 345.58682255 258.50094602 335.480096 228 321 C226.98470215 320.51917969 225.9694043 320.03835938 224.92333984 319.54296875 C191.71050097 303.67699625 160.77873852 283.19877672 133.58203125 258.3359375 C132.16327091 257.0523994 130.73820128 255.77531336 129.28637695 254.52929688 C123.45604302 249.52072736 117.99803185 244.18161294 112.5625 238.75 C111.67240234 237.87214844 110.78230469 236.99429688 109.86523438 236.08984375 C104.55031653 230.78657291 99.64210141 225.31559684 94.96972656 219.43725586 C93.11796588 217.14596596 91.19008231 214.97202881 89.1875 212.8125 C37.09728359 154.47964469 9.5534963 76.42797038 0 0 Z " fill="#F2F2F2" transform="translate(1,442)"/>
<path d="M0 0 C1.27482239 -0.00974854 2.54964478 -0.01949707 3.86309814 -0.02954102 C7.9816388 -0.05689546 12.10012876 -0.06797381 16.21875 -0.07421875 C16.91821243 -0.07551662 17.61767487 -0.0768145 18.33833313 -0.0781517 C39.73746391 -0.10829792 60.58576121 0.47766605 81.71875 4.23828125 C82.82718262 4.4202002 83.93561523 4.60211914 85.07763672 4.78955078 C157.92846683 16.76195185 228.88506457 49.88036968 283.3125 100.04296875 C284.6617035 101.27389792 286.01946869 102.49609607 287.40600586 103.68481445 C293.30602232 108.74612134 298.79807107 114.16911976 304.28125 119.67578125 C305.6415332 121.03026367 305.6415332 121.03026367 307.02929688 122.41210938 C312.13480171 127.52501885 317.05596849 132.71894004 321.71875 138.23828125 C322.25991455 138.8727417 322.8010791 139.50720215 323.35864258 140.16088867 C337.26923523 156.56323812 349.60026569 173.83260761 360.71875 192.23828125 C361.20166504 193.03508301 361.68458008 193.83188477 362.18212891 194.65283203 C386.95128775 235.86308864 403.59022872 280.96422775 412.46875 328.17578125 C412.66742676 329.22789795 412.86610352 330.28001465 413.07080078 331.36401367 C414.69021984 340.32077488 415.64918816 349.14700559 416.71875 358.23828125 C286.03875 358.23828125 155.35875 358.23828125 20.71875 358.23828125 C20.71875 310.71828125 20.71875 263.19828125 20.71875 214.23828125 C19.39875 213.90828125 18.07875 213.57828125 16.71875 213.23828125 C14.04539078 212.46412098 11.38104403 211.67354465 8.71875 210.86328125 C8.0071875 210.65445313 7.295625 210.445625 6.5625 210.23046875 C3.69186337 209.35213963 1.16737191 208.5760842 -1.24804688 206.75732422 C-3.34367703 205.19164088 -5.09738666 204.42255888 -7.5625 203.58203125 C-8.39491211 203.28723877 -9.22732422 202.99244629 -10.08496094 202.6887207 C-10.97473633 202.37507568 -11.86451172 202.06143066 -12.78125 201.73828125 C-23.12107277 197.9587422 -32.52828884 193.05773749 -42.03027344 187.53540039 C-44.30654518 186.22370497 -46.60281166 184.95468448 -48.90625 183.69140625 C-52.87787458 181.49230301 -56.72252112 179.14456139 -60.53125 176.67578125 C-61.11648438 176.30259766 -61.70171875 175.92941406 -62.3046875 175.54492188 C-64.93461816 173.84961904 -67.44751548 172.10511952 -69.890625 170.1484375 C-72.21015396 168.20360699 -72.21015396 168.20360699 -74.71484375 166.80078125 C-77.84579521 164.89457032 -80.57280687 162.6206959 -83.34375 160.23828125 C-83.90811768 159.75552734 -84.47248535 159.27277344 -85.05395508 158.77539062 C-98.27072202 147.40723855 -110.33480643 135.67666708 -120.28125 121.23828125 C-120.84972656 120.41972656 -121.41820312 119.60117188 -122.00390625 118.7578125 C-124.76544683 114.70710065 -127.23373801 110.70558015 -129.28125 106.23828125 C-129.63316406 105.53832031 -129.98507813 104.83835937 -130.34765625 104.1171875 C-132.72639326 99.20223611 -133.74572763 95.69589335 -133.28125 90.23828125 C-134.04050781 90.81578125 -134.79976562 91.39328125 -135.58203125 91.98828125 C-136.57589844 92.73078125 -137.56976563 93.47328125 -138.59375 94.23828125 C-139.57988281 94.98078125 -140.56601563 95.72328125 -141.58203125 96.48828125 C-144.28125 98.23828125 -144.28125 98.23828125 -147.28125 98.23828125 C-146.9730835 97.43608154 -146.66491699 96.63388184 -146.34741211 95.80737305 C-145.20876973 92.83016511 -144.07851247 89.84994856 -142.95385742 86.86743164 C-142.46533827 85.57709859 -141.97349425 84.28801926 -141.47827148 83.00024414 C-140.76714833 81.1493268 -140.06893663 79.2934651 -139.37109375 77.4375 C-138.94691162 76.32205811 -138.52272949 75.20661621 -138.08569336 74.05737305 C-136.98211733 71.19499577 -136.98211733 71.19499577 -138.28125 68.23828125 C-140.66414731 66.34187892 -140.66414731 66.34187892 -143.62890625 64.48046875 C-144.70849609 63.77277344 -145.78808594 63.06507812 -146.90039062 62.3359375 C-148.04785319 61.59455055 -149.19564398 60.85367136 -150.34375 60.11328125 C-152.58763634 58.6568506 -154.82747589 57.19453917 -157.06640625 55.73046875 C-158.06551025 55.0844873 -159.06461426 54.43850586 -160.09399414 53.77294922 C-161.17668579 53.01328857 -161.17668579 53.01328857 -162.28125 52.23828125 C-162.28125 51.90828125 -162.28125 51.57828125 -162.28125 51.23828125 C-151.58904968 51.04269222 -140.95325792 51.64773536 -130.28125 52.23828125 C-129.9409375 50.28921875 -129.9409375 50.28921875 -129.59375 48.30078125 C-129.1621002 46.27869024 -128.7235234 44.25807526 -128.28125 42.23828125 C-128.15186035 41.55797852 -128.0224707 40.87767578 -127.88916016 40.17675781 C-127.44672093 37.91206888 -126.93202622 35.67245514 -126.40625 33.42578125 C-126.21156128 32.33245483 -126.21156128 32.33245483 -126.01293945 31.21704102 C-125.08380981 27.53900709 -124.1461888 25.76645432 -120.85083008 23.75415039 C-117.70037652 22.39923595 -114.54664683 21.285452 -111.28125 20.23828125 C-110.26675781 19.89708252 -109.25226563 19.55588379 -108.20703125 19.2043457 C-105.05856983 18.18044149 -101.89654211 17.22950302 -98.71875 16.30078125 C-97.5743042 15.96304687 -96.4298584 15.6253125 -95.25073242 15.27734375 C-82.73111143 11.66402995 -70.03715 8.87544243 -57.28125 6.23828125 C-57.9321539 9.88623599 -58.89923056 13.26397206 -60.12890625 16.7578125 C-60.48662109 17.77939453 -60.84433594 18.80097656 -61.21289062 19.85351562 C-61.77266602 21.43616211 -61.77266602 21.43616211 -62.34375 23.05078125 C-62.72080078 24.12521484 -63.09785156 25.19964844 -63.48632812 26.30664062 C-64.41499658 28.95158243 -65.34673189 31.59540179 -66.28125 34.23828125 C-65.79769043 33.86541992 -65.31413086 33.49255859 -64.81591797 33.10839844 C-62.59756446 31.39968818 -60.37692935 29.69396753 -58.15625 27.98828125 C-57.39570313 27.40175781 -56.63515625 26.81523437 -55.8515625 26.2109375 C-51.74909844 23.06335732 -47.62624041 20.04239647 -43.28125 17.23828125 C-35.93153885 22.88404082 -28.58773089 28.53658299 -21.28125 34.23828125 C-23.21170899 27.19379931 -25.65963438 20.40092846 -28.29931641 13.59765625 C-30.28125 8.44238097 -30.28125 8.44238097 -30.28125 6.23828125 C-28.84765625 4.984375 -28.84765625 4.984375 -26.84375 3.67578125 C-26.20566406 3.24136719 -25.56757813 2.80695312 -24.91015625 2.359375 C-17.41771173 -0.8357685 -8.00283279 0.05029442 0 0 Z " fill="#92ACD9" transform="translate(382.28125,-0.23828125)"/>
<path d="M0 0 C263.34 0 526.68 0 798 0 C793.38349458 33.46966428 786.73389352 64.24526939 776 96 C775.67 95.01 775.34 94.02 775 93 C526.84 93 278.68 93 23 93 C22.67 93.99 22.34 94.98 22 96 C11.44135866 64.3734484 4.14610842 33.16886734 0 0 Z " fill="#F5F4F5" transform="translate(1,442)"/>
<path d="M0 0 C248.16 0 496.32 0 752 0 C752 5.2748873 751.82262155 7.16878394 749.875 11.7109375 C749.41988037 12.7827124 748.96476074 13.8544873 748.49584961 14.95874023 C748.00221924 16.08610596 747.50858887 17.21347168 747 18.375 C746.49670166 19.54168213 745.99340332 20.70836426 745.47485352 21.91040039 C741.91620869 30.08661493 738.18494829 38.1326455 734.03320312 46.0234375 C732.89336481 48.20399776 731.78240858 50.39812879 730.671875 52.59375 C729.84457437 54.20875589 729.01646093 55.82334569 728.1875 57.4375 C727.65660767 58.49118774 727.65660767 58.49118774 727.11499023 59.56616211 C726.34042343 61.05445713 725.52302128 62.52103472 724.67013347 63.96587318 C723.35241625 66.35976639 722.29934831 68.65018098 721.2439605 71.15664393 C718.55553525 76.89937258 715.62673192 82.59236311 709.44477662 84.99175422 C701.47575979 86.64291062 693.3202412 86.26873184 685.2260437 86.13853455 C682.45088863 86.14654822 679.67617208 86.18014257 676.90120804 86.21248347 C670.87113522 86.26916662 664.84369827 86.2628953 658.81358719 86.2149086 C649.84727591 86.14375156 640.88307595 86.17004839 631.91669208 86.21545087 C615.90309143 86.29331854 599.89070355 86.27447475 583.87708917 86.21498474 C569.86477648 86.16324553 555.85289122 86.14438155 541.84048843 86.15805244 C540.44614427 86.1593472 540.44614427 86.1593472 539.02363153 86.16066812 C535.25022838 86.16421557 531.47682543 86.16791481 527.70342265 86.17184296 C492.31001808 86.20820602 456.91736334 86.14787884 421.52412818 86.0424881 C390.07716625 85.94939956 358.63112867 85.93538089 327.18408203 85.98999023 C319.13039137 86.00389833 311.07670063 86.01770225 303.02300835 86.03064632 C302.03151172 86.0322405 301.0400151 86.03383468 300.01847312 86.03547716 C273.74214454 86.07644004 247.46588038 86.05253095 221.18956864 86.00863463 C218.36247048 86.00398738 215.53537228 85.99937019 212.708274 85.99479618 C210.83285087 85.99175977 208.95742782 85.9886777 207.08200485 85.98554966 C193.07690945 85.96288285 179.07209376 85.9735323 165.06701279 85.99983025 C149.14455042 86.0294361 133.22303444 86.00836151 117.30076753 85.92074364 C108.38816722 85.8730716 99.47749188 85.86379382 90.56487194 85.9098401 C84.61267076 85.93669436 78.66208016 85.91268519 72.71018262 85.84715622 C69.31629139 85.81119797 65.92945049 85.80491547 62.53512441 85.84490382 C42.87705039 86.0575064 42.87705039 86.0575064 38.06207171 82.61410148 C34.5539124 78.88789019 32.78712003 74.73840678 31 70 C30.13889473 68.47104135 29.25459026 66.95412602 28.3203125 65.46875 C27.58197956 64.14948447 26.85019176 62.82653457 26.125 61.5 C25.71701172 60.7562915 25.30902344 60.01258301 24.88867188 59.24633789 C17.29644237 45.28164717 10.28085305 31.17937491 4.3125 16.4375 C3.87808594 15.37265381 3.44367187 14.30780762 2.99609375 13.21069336 C2.60164063 12.21175049 2.2071875 11.21280762 1.80078125 10.18359375 C1.27738159 8.86186157 1.27738159 8.86186157 0.7434082 7.51342773 C0 5 0 5 0 0 Z " fill="#C3161D" transform="translate(24,535)"/>
<path d="M0 0 C123.09 0 246.18 0 373 0 C381.66476664 21.6619166 387.44750956 44.02532576 391.75 66.9375 C392.04789429 68.5153125 392.04789429 68.5153125 392.35180664 70.125 C393.97157797 79.08195395 394.93041088 87.90849249 396 97 C265.32 97 134.64 97 0 97 C0 64.99 0 32.98 0 0 Z " fill="#FAFAFA" transform="translate(403,261)"/>
<path d="M0 0 C130.68 0 261.36 0 396 0 C397.12528764 11.25287636 397.12528764 11.25287636 397.12939453 16.8515625 C397.13254669 18.0998584 397.13569885 19.3481543 397.13894653 20.63427734 C397.13591019 22.60968506 397.13591019 22.60968506 397.1328125 24.625 C397.13348809 26.02164731 397.13446024 27.4182945 397.13571167 28.81494141 C397.13717662 31.72624849 397.13507308 34.63752466 397.13037109 37.54882812 C397.12467455 41.25361595 397.12796004 44.95833128 397.13394356 48.66311646 C397.13758183 51.5424045 397.13639568 54.42167577 397.13381577 57.30096436 C397.13283787 59.32255094 397.13583921 61.34413822 397.13894653 63.36572266 C397.13579437 64.61401855 397.13264221 65.86231445 397.12939453 67.1484375 C397.12820114 68.77531494 397.12820114 68.77531494 397.12698364 70.43505859 C396.96546956 74.96940831 396.4514708 79.485292 396 84 C265.32 84 134.64 84 0 84 C0 56.28 0 28.56 0 0 Z " fill="#CD171E" transform="translate(403,358)"/>
<path d="M0 0 C163.68 0 327.36 0 496 0 C492.62279136 5.62868106 492.62279136 5.62868106 489.3671875 7.9453125 C488.29537231 8.71597046 488.29537231 8.71597046 487.2019043 9.50219727 C486.43402588 10.03772217 485.66614746 10.57324707 484.875 11.125 C484.07167236 11.693396 483.26834473 12.26179199 482.44067383 12.84741211 C428.06940015 51.04316527 366.06787173 76.47337947 300 85 C298.73986084 85.17732666 297.47972168 85.35465332 296.18139648 85.53735352 C281.77120323 87.41369048 267.30133716 87.34073939 252.79663086 87.31567383 C249.9029174 87.31105762 247.0096258 87.31792176 244.1159668 87.33618164 C225.54870765 87.45215789 207.40986449 86.73225439 189 84 C188.28137787 83.89531403 187.56275574 83.79062805 186.82235718 83.68276978 C183.07152067 83.12510247 179.34731045 82.47257898 175.625 81.75 C174.52309326 81.53875488 173.42118652 81.32750977 172.28588867 81.10986328 C139.16260897 74.58682255 107.50094602 64.480096 77 50 C75.98470215 49.51917969 74.9694043 49.03835938 73.92333984 48.54296875 C53.91040799 38.98267107 34.997905 27.96165298 17 15 C16.26604004 14.47277344 15.53208008 13.94554687 14.77587891 13.40234375 C12.52941874 11.77971382 10.29386001 10.14331927 8.0625 8.5 C7.36930664 7.99533203 6.67611328 7.49066406 5.96191406 6.97070312 C1.11706095 3.35118286 1.11706095 3.35118286 0 0 Z " fill="#BD151B" transform="translate(152,713)"/>
<path d="M0 0 C4.16000188 -0.12095787 8.32039768 -0.20880239 12.48126245 -0.29413652 C15.23849863 -0.36642316 17.98968335 -0.49223552 20.74478221 -0.62044668 C32.11031933 -0.95313559 32.11031933 -0.95313559 36.17366481 2.38908243 C38.00950155 4.9529197 39.31906885 7.39436285 40.59692073 10.26963663 C41.46860481 11.72177784 42.35497952 13.16535578 43.26488948 14.59385538 C44.11121951 16.04451769 44.95086595 17.49909613 45.78442073 18.95713663 C46.24582454 19.7618339 46.70722835 20.56653116 47.18261409 21.39561319 C58.65110755 41.57769576 69.24310203 62.20818053 76.59692073 84.26963663 C-46.49307927 84.26963663 -169.58307927 84.26963663 -296.40307927 84.26963663 C-296.40307927 56.87963663 -296.40307927 29.48963663 -296.40307927 1.26963663 C-260.71733042 1.14145212 -225.03157971 1.01384299 -189.34582447 0.88745436 C-185.10644584 0.87243901 -180.86706723 0.85741687 -176.62768865 0.84239054 C-175.3620274 0.83790462 -175.3620274 0.83790462 -174.07079723 0.83332807 C-160.51434845 0.78526347 -146.95790168 0.73665314 -133.40145561 0.68783122 C-119.42977186 0.6375264 -105.45808604 0.58783098 -91.48639822 0.53866959 C-84.42831248 0.51381968 -77.37022714 0.48888871 -70.3121445 0.46317044 C-68.78929653 0.45762795 -67.26644845 0.45211394 -65.74360026 0.4466289 C-62.01720511 0.43320156 -58.29081187 0.41943746 -54.5644207 0.40494442 C-47.50478787 0.37807366 -40.44527467 0.35840796 -33.38558888 0.35555124 C-22.25274354 0.34742331 -11.12881777 0.32745068 0 0 Z " fill="#E98E73" transform="translate(699.4030792713165,176.73036336898804)"/>
<path d="M0 0 C29.84367401 -0.22070961 59.68689625 -0.40525141 89.53116651 -0.51065329 C93.05943471 -0.52315944 96.58770118 -0.53610275 100.1159668 -0.54931641 C100.81834185 -0.55193951 101.5207169 -0.55456261 102.24437604 -0.55726521 C113.59755107 -0.60070606 124.95021657 -0.67951064 136.30308994 -0.77152796 C147.96372973 -0.8652472 159.62407346 -0.91988252 171.28507215 -0.94088495 C177.83031311 -0.95390009 184.37440085 -0.9843958 190.91927147 -1.05730057 C197.08622808 -1.1254358 203.2515622 -1.14606415 209.41885948 -1.13107681 C211.67590672 -1.13381649 213.93301105 -1.15355682 216.1897316 -1.19205475 C228.64734777 -1.39405681 237.20110738 -1.14086993 246.61270618 7.56325722 C247.40051314 8.36738234 248.1883201 9.17150745 249 10 C250.20514625 11.00354469 251.42132934 11.99426775 252.65625 12.9609375 C263.84136267 22.45599194 274.47823143 32.39527498 284.875 42.75 C286.07020264 43.93819336 286.07020264 43.93819336 287.28955078 45.15039062 C292.06486767 49.93873019 296.62508867 54.84390078 301 60 C301.54285645 60.63615234 302.08571289 61.27230469 302.64501953 61.92773438 C309.48707763 69.99920891 316.05072439 78.2357558 322.25 86.8125 C322.79865723 87.57095215 323.34731445 88.3294043 323.91259766 89.11083984 C326.2148366 92.33689321 328.25237022 95.43864368 330 99 C295.36429388 100.04960013 260.73857783 100.13669392 226.09094144 100.10353777 C218.23044006 100.09622369 210.3699404 100.09487328 202.5094361 100.09374207 C188.50238142 100.0915771 174.49533271 100.08498805 160.48828125 100.07543945 C146.917318 100.06619802 133.3463564 100.05915055 119.77539062 100.05493164 C118.93266972 100.05466892 118.08994882 100.05440619 117.22169092 100.05413551 C112.99215447 100.05283006 108.762618 100.05156645 104.53308153 100.05032361 C69.68871571 100.04003095 34.84436099 100.02163708 0 100 C0 67 0 34 0 0 Z " fill="#FDFDFD" transform="translate(403,78)"/>
<path d="M0 0 C32.45711187 0 32.45711187 0 44.625 1.6875 C46.01728383 1.8704992 47.40961931 2.05310578 48.80200195 2.23535156 C114.67032912 11.051576 182.45278427 35.36928331 235 77 C235 77.33 235 77.66 235 78 C157.45 78 79.9 78 0 78 C0 52.26 0 26.52 0 0 Z " fill="#D91921" transform="translate(403,0)"/>
<path d="M0 0 C130.68 0 261.36 0 396 0 C397.12528764 11.25287636 397.12528764 11.25287636 397.12939453 16.8515625 C397.13254669 18.0998584 397.13569885 19.3481543 397.13894653 20.63427734 C397.13591019 22.60968506 397.13591019 22.60968506 397.1328125 24.625 C397.13348809 26.02164731 397.13446024 27.4182945 397.13571167 28.81494141 C397.13717662 31.72624849 397.13507308 34.63752466 397.13037109 37.54882812 C397.12467455 41.25361595 397.12796004 44.95833128 397.13394356 48.66311646 C397.13758183 51.5424045 397.13639568 54.42167577 397.13381577 57.30096436 C397.13283787 59.32255094 397.13583921 61.34413822 397.13894653 63.36572266 C397.13579437 64.61401855 397.13264221 65.86231445 397.12939453 67.1484375 C397.12820114 68.77531494 397.12820114 68.77531494 397.12698364 70.43505859 C396.96546956 74.96940831 396.4514708 79.485292 396 84 C374.22 84 352.44 84 330 84 C327.69 79.05 325.38 74.1 323 69 C312.86916383 47.59082195 300.79568043 27.54129242 286 9 C285.46277504 8.15072415 285.46277504 8.15072415 284.91469705 7.28429121 C282.82076732 4.31167204 281.19515843 2.3259078 277.60947442 1.34812748 C274.6033135 1.09942521 271.66488685 1.07383079 268.64859009 1.12025452 C266.92580827 1.10515773 266.92580827 1.10515773 265.16822278 1.08975595 C261.9886852 1.06890511 258.81103005 1.07931039 255.63156915 1.10299766 C252.20006095 1.12091866 248.76878769 1.09842341 245.33731079 1.08087158 C239.3949858 1.05599217 233.45310494 1.05663982 227.51076126 1.07469368 C218.91925855 1.10075913 210.32815218 1.08822075 201.73665373 1.06630235 C187.79720567 1.03178687 173.85793154 1.0284312 159.91845703 1.04467773 C146.37869955 1.06039165 132.83907199 1.06142632 119.29931641 1.04272461 C118.46453399 1.04157668 117.62975156 1.04042875 116.76967271 1.03924603 C112.58175619 1.03339658 108.39384016 1.02725859 104.20592427 1.02097714 C69.47057264 0.96925088 34.73537167 0.96809673 0 1 C0 0.67 0 0.34 0 0 Z " fill="#E98F75" transform="translate(403,358)"/>
<path d="M0 0 C0.33 0 0.66 0 1 0 C1 12.21 1 24.42 1 37 C6.61 37 12.22 37 18 37 C22.35131543 37.2140404 26.66229533 37.45921045 31 37.8125 C32.11810059 37.90233154 33.23620117 37.99216309 34.38818359 38.0847168 C43.40198249 38.85764388 52.15005248 40.16371038 61 42 C62.94779914 42.38861034 64.89572502 42.77658581 66.84375 43.1640625 C68.93779885 43.58706492 71.03155083 44.01153966 73.125 44.4375 C74.07842285 44.63061768 75.0318457 44.82373535 76.01416016 45.02270508 C89.07929166 47.74803591 101.84209147 51.41073413 114.5 55.625 C115.13975769 55.83765503 115.77951538 56.05031006 116.43865967 56.26940918 C133.17268277 61.86139425 149.3980547 68.74606765 165 77 C165 77.33 165 77.66 165 78 C110.55 78 56.1 78 0 78 C0 52.26 0 26.52 0 0 Z " fill="#E88E73" transform="translate(403,0)"/>
<path d="M0 0 C8.1365625 0.0309375 8.1365625 0.0309375 16.4375 0.0625 C16.4375 12.2725 16.4375 24.4825 16.4375 37.0625 C8.1771875 37.43375 8.1771875 37.43375 -0.25 37.8125 C-26.31963818 39.14583527 -52.75978591 41.82622951 -77.77734375 49.671875 C-90.31003741 53.50706311 -104.56927525 52.18121982 -117.5625 52.0625 C-118.76605159 47.98372301 -119.94753163 43.89887596 -121.125 39.8125 C-121.46724609 38.65363281 -121.80949219 37.49476562 -122.16210938 36.30078125 C-122.64067383 34.62822266 -122.64067383 34.62822266 -123.12890625 32.921875 C-123.57665405 31.38225098 -123.57665405 31.38225098 -124.03344727 29.81152344 C-124.56790522 27.0344138 -124.80037586 25.60057041 -123.5625 23.0625 C-121.75366211 22.00097656 -121.75366211 22.00097656 -119.33984375 21.203125 C-117.96578369 20.74208374 -117.96578369 20.74208374 -116.56396484 20.27172852 C-115.55285645 19.95518311 -114.54174805 19.6386377 -113.5 19.3125 C-112.45537598 18.97468506 -111.41075195 18.63687012 -110.33447266 18.28881836 C-94.51875386 13.30979578 -77.96007338 8.61947816 -61.5625 6.0625 C-62.2134039 9.71045474 -63.18048056 13.08819081 -64.41015625 16.58203125 C-64.76787109 17.60361328 -65.12558594 18.62519531 -65.49414062 19.67773438 C-66.05391602 21.26038086 -66.05391602 21.26038086 -66.625 22.875 C-67.00205078 23.94943359 -67.37910156 25.02386719 -67.76757812 26.13085938 C-68.69624658 28.77580118 -69.62798189 31.41962054 -70.5625 34.0625 C-70.07894043 33.68963867 -69.59538086 33.31677734 -69.09716797 32.93261719 C-66.87881446 31.22390693 -64.65817935 29.51818628 -62.4375 27.8125 C-61.67695313 27.22597656 -60.91640625 26.63945312 -60.1328125 26.03515625 C-56.03034844 22.88757607 -51.90749041 19.86661522 -47.5625 17.0625 C-40.21278885 22.70825957 -32.86898089 28.36080174 -25.5625 34.0625 C-27.49295899 27.01801806 -29.94088438 20.22514721 -32.58056641 13.421875 C-34.5625 8.26659972 -34.5625 8.26659972 -34.5625 6.0625 C-33.12890625 4.80859375 -33.12890625 4.80859375 -31.125 3.5 C-30.48691406 3.06558594 -29.84882813 2.63117187 -29.19140625 2.18359375 C-20.46989962 -1.53568174 -9.33747824 -0.05020866 0 0 Z " fill="#3696D2" transform="translate(386.5625,-0.0625)"/>
<path d="M0 0 C4.104375 1.340625 8.20875 2.68125 12.4375 4.0625 C29.93933313 9.71578778 47.56744476 14.70485183 65.4375 19.0625 C74.80303624 21.34659143 83.9050179 24.09248716 92.99316406 27.29907227 C95.12846836 28.04487015 97.2714758 28.76363019 99.41796875 29.4765625 C114.22310577 34.3947019 128.69271857 39.76888761 143 46 C143 46.33 143 46.66 143 47 C95.81 47 48.62 47 0 47 C0 31.49 0 15.98 0 0 Z " fill="#CE1820" transform="translate(403,214)"/>
<path d="M0 0 C37.95824737 -2.97376526 37.95824737 -2.97376526 47.06835938 1.51025391 C51.42679986 5.54393595 53.24037686 10.63212653 55.01123047 16.19433594 C56.38525919 20.09318484 58.39979738 23.47926666 60.48168945 27.03759766 C86 70.8226834 86 70.8226834 86 83 C73.46 83 60.92 83 48 83 C40.72469429 68.44938859 40.72469429 68.44938859 37.94824219 62.84448242 C36.31347681 59.555576 34.659371 56.27654772 33 53 C32.68981934 52.38543945 32.37963867 51.77087891 32.06005859 51.13769531 C23.29143749 33.87867483 12.56145785 17.96455652 1.00292969 2.46435547 C0 1 0 1 0 0 Z " fill="#DA1920" transform="translate(690,178)"/>
<path d="M0 0 C11.55 0 23.1 0 35 0 C35.60694965 5.46254681 36.12544053 10.3367525 36.12939453 15.73803711 C36.13254669 16.98640854 36.13569885 18.23477997 36.13894653 19.52098083 C36.13715608 20.85643551 36.13510496 22.19188985 36.1328125 23.52734375 C36.13348788 24.9254203 36.13445985 26.32349673 36.13571167 27.72157288 C36.13717811 30.63885628 36.13506852 33.55610888 36.13037109 36.47338867 C36.12467979 40.18605223 36.12795576 43.89864338 36.13394356 47.61130428 C36.1375823 50.49488353 36.13639537 53.37844604 36.13381577 56.26202583 C36.13315536 57.62976655 36.1339434 58.99750887 36.13629532 60.36524773 C36.13887621 62.28768758 36.13423649 64.21013287 36.12939453 66.13256836 C36.12859894 67.22016953 36.12780334 68.30777069 36.12698364 69.42832947 C35.96569405 73.96492393 35.45169322 78.48306775 35 83 C23.45 83 11.9 83 0 83 C0.2475 79.101875 0.2475 79.101875 0.5 75.125 C1.10418554 63.73466401 1.1139026 52.34033308 1.125 40.9375 C1.12749756 40.05555969 1.12999512 39.17361938 1.13256836 38.26495361 C1.16221454 25.47292293 0.72331519 12.77282775 0 0 Z " fill="#D51820" transform="translate(764,359)"/>
<path d="M0 0 C2.39581691 2.39581691 2.78214228 4.06675219 3.7265625 7.3046875 C4.0359375 8.36300781 4.3453125 9.42132813 4.6640625 10.51171875 C4.98117187 11.62160156 5.29828125 12.73148437 5.625 13.875 C6.11226563 15.52822266 6.11226563 15.52822266 6.609375 17.21484375 C9 25.48158482 9 25.48158482 9 30 C19.89 29.67 30.78 29.34 42 29 C38.98186471 32.01813529 36.55473261 34.13442935 33.0859375 36.453125 C32.16039062 37.071875 31.23484375 37.690625 30.28125 38.328125 C29.3221875 38.96234375 28.363125 39.5965625 27.375 40.25 C25.92480469 41.22453125 25.92480469 41.22453125 24.4453125 42.21875 C23.52234375 42.83234375 22.599375 43.4459375 21.6484375 44.078125 C20.80458496 44.63918945 19.96073242 45.20025391 19.09130859 45.77832031 C17 47 17 47 15 47 C15.37511719 47.92039062 15.75023437 48.84078125 16.13671875 49.7890625 C18.82813267 56.4288257 21.46834377 63.08651486 23.9375 69.8125 C24.35902344 70.95332031 24.78054688 72.09414063 25.21484375 73.26953125 C26 76 26 76 25 78 C24.56244385 77.6376123 24.1248877 77.27522461 23.67407227 76.90185547 C12.23465656 67.41363509 12.23465656 67.41363509 0 59 C-0.43755615 59.3623877 -0.8751123 59.72477539 -1.32592773 60.09814453 C-16.91188132 72.9741209 -16.91188132 72.9741209 -25 78 C-22.96150996 70.80613443 -20.51843632 63.84290835 -17.8125 56.875 C-17.44447266 55.91851562 -17.07644531 54.96203125 -16.69726562 53.9765625 C-15.80144555 51.64975711 -14.90232227 49.32428979 -14 47 C-14.69351562 46.75894531 -15.38703125 46.51789063 -16.1015625 46.26953125 C-19.48999111 44.78538125 -22.37939697 42.82527325 -25.375 40.6875 C-25.94500732 40.28595703 -26.51501465 39.88441406 -27.10229492 39.47070312 C-28.73742483 38.31742534 -30.36881082 37.15884483 -32 36 C-32.79277344 35.44957031 -33.58554687 34.89914062 -34.40234375 34.33203125 C-35.95484187 33.24940986 -37.48161187 32.12996326 -39 31 C-39 30.67 -39 30.34 -39 30 C-28.77 30 -18.54 30 -8 30 C-7.34 26.7 -6.68 23.4 -6 20 C-5.53063767 18.20711249 -5.03555848 16.4202994 -4.4921875 14.6484375 C-4.22792969 13.77832031 -3.96367187 12.90820312 -3.69140625 12.01171875 C-3.42199219 11.14160156 -3.15257812 10.27148438 -2.875 9.375 C-2.59785156 8.46621094 -2.32070313 7.55742187 -2.03515625 6.62109375 C-1.36102123 4.41272041 -0.68260023 2.20576837 0 0 Z " fill="#F8F9FC" transform="translate(338,346)"/>
<path d="M0 0 C0.66 0 1.32 0 2 0 C2.98566743 3.68579337 3.96235549 7.3739099 4.9375 11.0625 C5.35418945 12.62000977 5.35418945 12.62000977 5.77929688 14.20898438 C6.04677734 15.22412109 6.31425781 16.23925781 6.58984375 17.28515625 C6.95903931 18.67553101 6.95903931 18.67553101 7.33569336 20.09399414 C8.08185531 23.3580756 8.52648157 26.68537096 9 30 C19.89 29.67 30.78 29.34 42 29 C38.52024133 32.47975867 36.10279267 34.79886145 32.13671875 37.33203125 C30.80737305 38.18764648 30.80737305 38.18764648 29.45117188 39.06054688 C28.53916016 39.63869141 27.62714844 40.21683594 26.6875 40.8125 C25.75615234 41.40998047 24.82480469 42.00746094 23.86523438 42.62304688 C21.58036593 44.08770613 19.29195457 45.54646439 17 47 C18.31577366 53.59880427 20.20521129 59.66670609 22.625 65.9375 C23.26588314 67.61218868 23.9040466 69.28792151 24.5390625 70.96484375 C24.95986084 72.05720337 24.95986084 72.05720337 25.38916016 73.17163086 C26 75 26 75 26 77 C21.84370094 75.23797795 18.55523802 72.42213477 15.0625 69.625 C14.45470703 69.14289063 13.84691406 68.66078125 13.22070312 68.1640625 C12.62322266 67.6896875 12.02574219 67.2153125 11.41015625 66.7265625 C10.53447998 66.03675293 10.53447998 66.03675293 9.64111328 65.33300781 C8.17124179 64.13909255 6.76589564 62.86675112 5.37109375 61.5859375 C3.15352021 59.8149609 3.15352021 59.8149609 0.6875 59.85546875 C-3.45125605 61.61804945 -6.59139785 64.41644596 -10 67.3125 C-11.39583097 68.47526325 -12.79166425 69.63802373 -14.1875 70.80078125 C-14.84105469 71.35072754 -15.49460937 71.90067383 -16.16796875 72.46728516 C-18.41637313 74.34834628 -20.70090275 76.18137816 -23 78 C-23.66 77.67 -24.32 77.34 -25 77 C-24.69707031 76.19780029 -24.39414063 75.39560059 -24.08203125 74.5690918 C-22.95993401 71.59057098 -21.84225301 68.61044146 -20.72753906 65.62915039 C-20.24427735 64.33942542 -19.75926331 63.05035562 -19.27246094 61.76196289 C-18.57286085 59.90945042 -17.88008767 58.05436431 -17.1875 56.19921875 C-16.76855469 55.08377686 -16.34960938 53.96833496 -15.91796875 52.8190918 C-14.84518793 50.01870118 -14.84518793 50.01870118 -15 47 C-17.27376174 45.08165451 -17.27376174 45.08165451 -20.25 43.2421875 C-21.87421875 42.18064453 -21.87421875 42.18064453 -23.53125 41.09765625 C-24.68714589 40.35621849 -25.84340069 39.61533999 -27 38.875 C-29.25318308 37.41887413 -31.50187702 35.95614377 -33.75 34.4921875 C-35.25820312 33.52321533 -35.25820312 33.52321533 -36.796875 32.53466797 C-37.52390625 32.02822754 -38.2509375 31.52178711 -39 31 C-39 30.67 -39 30.34 -39 30 C-28.44 30 -17.88 30 -7 30 C-6.67 27.03 -6.34 24.06 -6 21 C-5.58607994 19.16223146 -5.12385024 17.33387636 -4.58984375 15.52734375 C-4.18862305 14.1496582 -4.18862305 14.1496582 -3.77929688 12.74414062 C-3.50150391 11.81794922 -3.22371094 10.89175781 -2.9375 9.9375 C-2.51500977 8.49600586 -2.51500977 8.49600586 -2.08398438 7.02539062 C-1.39598716 4.68153571 -0.7012399 2.33992007 0 0 Z " fill="#F8F9FC" transform="translate(115,152)"/>
<path d="M0 0 C2.39581691 2.39581691 2.78214228 4.06675219 3.7265625 7.3046875 C4.0359375 8.36300781 4.3453125 9.42132813 4.6640625 10.51171875 C4.98117187 11.62160156 5.29828125 12.73148438 5.625 13.875 C6.11226563 15.52822266 6.11226563 15.52822266 6.609375 17.21484375 C9 25.48158482 9 25.48158482 9 30 C19.89 29.67 30.78 29.34 42 29 C38.98186471 32.01813529 36.55473261 34.13442935 33.0859375 36.453125 C32.16039062 37.071875 31.23484375 37.690625 30.28125 38.328125 C29.3221875 38.96234375 28.363125 39.5965625 27.375 40.25 C25.92480469 41.22453125 25.92480469 41.22453125 24.4453125 42.21875 C23.52234375 42.83234375 22.599375 43.4459375 21.6484375 44.078125 C20.80458496 44.63918945 19.96073242 45.20025391 19.09130859 45.77832031 C17 47 17 47 15 47 C15.2266333 47.55872803 15.4532666 48.11745605 15.68676758 48.69311523 C16.73151948 51.27343671 17.77202692 53.85545035 18.8125 56.4375 C19.16892578 57.31599609 19.52535156 58.19449219 19.89257812 59.09960938 C25.08321215 72.0047637 25.08321215 72.0047637 26 76 C25.67 76.66 25.34 77.32 25 78 C24.56244385 77.6376123 24.1248877 77.27522461 23.67407227 76.90185547 C12.23465656 67.41363509 12.23465656 67.41363509 0 59 C-0.43755615 59.3623877 -0.8751123 59.72477539 -1.32592773 60.09814453 C-17.39677567 73.3747052 -17.39677567 73.3747052 -25 78 C-22.85714799 70.31094281 -20.16322088 62.88566211 -17.33764648 55.42651367 C-16.88627319 54.2253894 -16.88627319 54.2253894 -16.42578125 53 C-16.15161377 52.278125 -15.87744629 51.55625 -15.5949707 50.8125 C-14.89603801 49.00123593 -14.89603801 49.00123593 -15 47 C-17.47169474 45.33220598 -19.94287117 43.77632855 -22.5 42.25 C-28.23077359 38.75354588 -33.77976098 35.2414442 -39 31 C-39 30.67 -39 30.34 -39 30 C-28.77 30 -18.54 30 -8 30 C-7.34 26.7 -6.68 23.4 -6 20 C-5.37310069 17.75932472 -4.71154797 15.52774896 -4 13.3125 C-3.65453125 12.22195312 -3.3090625 11.13140625 -2.953125 10.0078125 C-2.48132813 8.51894531 -2.48132813 8.51894531 -2 7 C-1.31293997 4.67162991 -0.65255069 2.33830662 0 0 Z " fill="#F8FAFC" transform="translate(260,152)"/>
<path d="M0 0 C0.66 0 1.32 0 2 0 C2.24234375 1.00417969 2.4846875 2.00835937 2.734375 3.04296875 C3.07271611 4.4245283 3.41126954 5.80603586 3.75 7.1875 C3.90726563 7.84169922 4.06453125 8.49589844 4.2265625 9.16992188 C5.8839263 15.89499421 7.9504839 22.33907267 10 29 C20.23 29.33 30.46 29.66 41 30 C37.98761119 33.01238881 35.71725179 35.00176167 32.234375 37.234375 C30.90019531 38.09482422 30.90019531 38.09482422 29.5390625 38.97265625 C28.61867188 39.55917969 27.69828125 40.14570313 26.75 40.75 C25.81414062 41.35199219 24.87828125 41.95398438 23.9140625 42.57421875 C21.61221002 44.05398106 19.30749196 45.52905333 17 47 C17.60016712 51.24265606 18.59477617 55.03361377 20.06640625 59.0546875 C20.46923828 60.16328125 20.87207031 61.271875 21.28710938 62.4140625 C21.70798828 63.55617187 22.12886719 64.69828125 22.5625 65.875 C22.98724609 67.0403125 23.41199219 68.205625 23.84960938 69.40625 C24.8951089 72.27256331 25.94537388 75.13703486 27 78 C24.3436948 76.74617487 22.05725365 75.3990884 19.7578125 73.57421875 C19.16613281 73.10693359 18.57445312 72.63964844 17.96484375 72.15820312 C17.35769531 71.67287109 16.75054687 71.18753906 16.125 70.6875 C15.52558594 70.21376953 14.92617187 69.74003906 14.30859375 69.25195312 C13.71433594 68.78080078 13.12007812 68.30964844 12.5078125 67.82421875 C11.9190332 67.35935059 11.33025391 66.89448242 10.72363281 66.41552734 C9.5825832 65.47844439 8.47095742 64.50424369 7.39355469 63.49462891 C4.43549502 60.75317838 4.43549502 60.75317838 0.625 59.79296875 C-3.43490708 61.65980102 -6.61038326 64.43257655 -10 67.3125 C-11.39583097 68.47526325 -12.79166425 69.63802373 -14.1875 70.80078125 C-14.84105469 71.35072754 -15.49460938 71.90067383 -16.16796875 72.46728516 C-18.41637313 74.34834628 -20.70090275 76.18137816 -23 78 C-23.66 77.67 -24.32 77.34 -25 77 C-24.69707031 76.19780029 -24.39414063 75.39560059 -24.08203125 74.5690918 C-22.95993401 71.59057098 -21.84225301 68.61044146 -20.72753906 65.62915039 C-20.24427735 64.33942542 -19.75926331 63.05035562 -19.27246094 61.76196289 C-18.57286085 59.90945042 -17.88008767 58.05436431 -17.1875 56.19921875 C-16.76855469 55.08377686 -16.34960938 53.96833496 -15.91796875 52.8190918 C-14.84518793 50.01870118 -14.84518793 50.01870118 -15 47 C-17.27376174 45.08165451 -17.27376174 45.08165451 -20.25 43.2421875 C-21.87421875 42.18064453 -21.87421875 42.18064453 -23.53125 41.09765625 C-24.68714589 40.35621849 -25.84340069 39.61533999 -27 38.875 C-29.25318308 37.41887413 -31.50187702 35.95614377 -33.75 34.4921875 C-35.25820312 33.52321533 -35.25820312 33.52321533 -36.796875 32.53466797 C-37.52390625 32.02822754 -38.2509375 31.52178711 -39 31 C-39 30.67 -39 30.34 -39 30 C-28.44 30 -17.88 30 -7 30 C-6.67 27.03 -6.34 24.06 -6 21 C-5.30467883 18.81921997 -4.60720655 16.638064 -3.83203125 14.484375 C-2.24444299 9.74397063 -1.15940958 4.85965291 0 0 Z " fill="#F9FAFD" transform="translate(193,90)"/>
<path d="M0 0 C2.39581691 2.39581691 2.78214228 4.06675219 3.7265625 7.3046875 C4.0359375 8.36300781 4.3453125 9.42132813 4.6640625 10.51171875 C4.98117187 11.62160156 5.29828125 12.73148438 5.625 13.875 C6.11226563 15.52822266 6.11226563 15.52822266 6.609375 17.21484375 C9 25.48158482 9 25.48158482 9 30 C19.23 30 29.46 30 40 30 C36.71060201 33.28939799 34.34584985 35.64698638 30.64453125 38.11328125 C29.85755859 38.63857422 29.07058594 39.16386719 28.25976562 39.70507812 C27.45216797 40.23552734 26.64457031 40.76597656 25.8125 41.3125 C24.99330078 41.86228516 24.17410156 42.41207031 23.33007812 42.97851562 C17.26038432 47 17.26038432 47 15 47 C15.2266333 47.56396484 15.4532666 48.12792969 15.68676758 48.70898438 C16.7296191 51.30561289 17.77106741 53.90280208 18.8125 56.5 C19.16892578 57.386875 19.52535156 58.27375 19.89257812 59.1875 C20.59845924 60.94896479 21.30049004 62.71197774 21.99853516 64.4765625 C22.64317045 66.10087999 23.29829528 67.7210938 23.96630859 69.3359375 C26.11086147 74.66741558 26.11086147 74.66741558 25 78 C24.55197021 77.63237549 24.10394043 77.26475098 23.64233398 76.88598633 C21.57590054 75.19255915 19.50672292 73.50251731 17.4375 71.8125 C16.73302734 71.23435547 16.02855469 70.65621094 15.30273438 70.06054688 C13.21445375 68.35720277 11.11147423 66.67447956 9 65 C8.35691895 64.47970215 7.71383789 63.9594043 7.05126953 63.42333984 C3.91185829 60.76777354 3.91185829 60.76777354 0.04443359 60.19702148 C-2.30122113 61.11830861 -3.9552536 62.27501866 -5.93359375 63.8359375 C-6.66513672 64.40570313 -7.39667969 64.97546875 -8.15039062 65.5625 C-8.90513672 66.160625 -9.65988281 66.75875 -10.4375 67.375 C-19.55302624 74.54222921 -19.55302624 74.54222921 -24 77 C-23.3437514 71.47133026 -21.52494091 66.60539428 -19.5625 61.4375 C-19.24990234 60.60025391 -18.93730469 59.76300781 -18.61523438 58.90039062 C-17.12259601 54.91476217 -15.60432738 50.94229191 -14 47 C-15.09489746 46.5968457 -15.09489746 46.5968457 -16.21191406 46.18554688 C-18.94037539 45.02535351 -21.16556062 43.70034737 -23.609375 42.03125 C-24.44597656 41.46019531 -25.28257812 40.88914063 -26.14453125 40.30078125 C-27.00433594 39.70652344 -27.86414063 39.11226562 -28.75 38.5 C-29.62527344 37.90574219 -30.50054687 37.31148437 -31.40234375 36.69921875 C-37.87221443 32.25557113 -37.87221443 32.25557113 -39 30 C-23.655 29.505 -23.655 29.505 -8 29 C-7.4225 26.628125 -6.845 24.25625 -6.25 21.8125 C-4.43264413 14.44962551 -2.32440576 7.2204945 0 0 Z " fill="#F9FBFD" transform="translate(338,214)"/>
<path d="M0 0 C0.66 0 1.32 0 2 0 C2.98566743 3.68579337 3.96235549 7.3739099 4.9375 11.0625 C5.35418945 12.62000977 5.35418945 12.62000977 5.77929688 14.20898438 C6.04677734 15.22412109 6.31425781 16.23925781 6.58984375 17.28515625 C6.95903931 18.67553101 6.95903931 18.67553101 7.33569336 20.09399414 C8.08185531 23.3580756 8.52648157 26.68537096 9 30 C19.56 30 30.12 30 41 30 C37.98761119 33.01238881 35.71725179 35.00176167 32.234375 37.234375 C30.90019531 38.09482422 30.90019531 38.09482422 29.5390625 38.97265625 C28.61867188 39.55917969 27.69828125 40.14570313 26.75 40.75 C25.81414062 41.35199219 24.87828125 41.95398438 23.9140625 42.57421875 C21.61221002 44.05398106 19.30749196 45.52905333 17 47 C18.40356642 54.14341435 20.57381365 60.75182408 23.125 67.5625 C23.49753906 68.57119141 23.87007812 69.57988281 24.25390625 70.61914062 C25.16412197 73.08139085 26.07956288 75.54155658 27 78 C24.23150843 76.70442476 21.91371107 75.27609096 19.5390625 73.35546875 C18.90226562 72.84306641 18.26546875 72.33066406 17.609375 71.80273438 C16.95453125 71.26970703 16.2996875 70.73667969 15.625 70.1875 C14.65433594 69.40536133 14.65433594 69.40536133 13.6640625 68.60742188 C9.74434839 65.44241078 5.86240617 62.23461569 2 59 C-0.89759025 60.34215132 -3.25259213 61.87017178 -5.71484375 63.8984375 C-6.40126953 64.46046875 -7.08769531 65.0225 -7.79492188 65.6015625 C-8.85549805 66.47941406 -8.85549805 66.47941406 -9.9375 67.375 C-11.34235544 68.52875845 -12.74730127 69.68240684 -14.15234375 70.8359375 C-14.81218262 71.37959961 -15.47202148 71.92326172 -16.15185547 72.48339844 C-18.41808979 74.34308768 -20.70470414 76.17634027 -23 78 C-23.66 77.67 -24.32 77.34 -25 77 C-24.69707031 76.19780029 -24.39414063 75.39560059 -24.08203125 74.5690918 C-22.95993401 71.59057098 -21.84225301 68.61044146 -20.72753906 65.62915039 C-20.24427735 64.33942542 -19.75926331 63.05035562 -19.27246094 61.76196289 C-18.57286085 59.90945042 -17.88008767 58.05436431 -17.1875 56.19921875 C-16.76855469 55.08377686 -16.34960938 53.96833496 -15.91796875 52.8190918 C-14.84518793 50.01870118 -14.84518793 50.01870118 -15 47 C-17.27376174 45.08165451 -17.27376174 45.08165451 -20.25 43.2421875 C-21.87421875 42.18064453 -21.87421875 42.18064453 -23.53125 41.09765625 C-24.68714589 40.35621849 -25.84340069 39.61533999 -27 38.875 C-29.25318308 37.41887413 -31.50187702 35.95614377 -33.75 34.4921875 C-35.25820312 33.52321533 -35.25820312 33.52321533 -36.796875 32.53466797 C-37.52390625 32.02822754 -38.2509375 31.52178711 -39 31 C-39 30.67 -39 30.34 -39 30 C-28.44 30 -17.88 30 -7 30 C-6.67 27.03 -6.34 24.06 -6 21 C-5.58607994 19.16223146 -5.12385024 17.33387636 -4.58984375 15.52734375 C-4.18862305 14.1496582 -4.18862305 14.1496582 -3.77929688 12.74414062 C-3.50150391 11.81794922 -3.22371094 10.89175781 -2.9375 9.9375 C-2.51500977 8.49600586 -2.51500977 8.49600586 -2.08398438 7.02539062 C-1.39598716 4.68153571 -0.7012399 2.33992007 0 0 Z " fill="#F8FAFC" transform="translate(193,214)"/>
<path d="M0 0 C0.66 0 1.32 0 2 0 C2.17128418 0.66531738 2.34256836 1.33063477 2.51904297 2.01611328 C3.30218624 5.05297471 4.08856362 8.08898978 4.875 11.125 C5.14441406 12.17171875 5.41382813 13.2184375 5.69140625 14.296875 C6.08779297 15.82441406 6.08779297 15.82441406 6.4921875 17.3828125 C6.73308105 18.31496582 6.97397461 19.24711914 7.22216797 20.20751953 C8.04691184 23.16841732 9.02803713 26.08411139 10 29 C20.23 29.33 30.46 29.66 41 30 C37.98761119 33.01238881 35.71725179 35.00176167 32.234375 37.234375 C30.90019531 38.09482422 30.90019531 38.09482422 29.5390625 38.97265625 C28.61867188 39.55917969 27.69828125 40.14570313 26.75 40.75 C25.81414062 41.35199219 24.87828125 41.95398438 23.9140625 42.57421875 C21.61221002 44.05398106 19.30749196 45.52905333 17 47 C18.27762401 53.4655518 20.11773266 59.29029024 22.625 65.375 C23.26766813 66.94341627 23.90589555 68.51366159 24.5390625 70.0859375 C24.95986084 71.1076001 24.95986084 71.1076001 25.38916016 72.14990234 C26 74 26 74 26 77 C21.84370094 75.23797795 18.55523802 72.42213477 15.0625 69.625 C14.45470703 69.14289063 13.84691406 68.66078125 13.22070312 68.1640625 C12.62322266 67.6896875 12.02574219 67.2153125 11.41015625 66.7265625 C10.53447998 66.03675293 10.53447998 66.03675293 9.64111328 65.33300781 C8.17124179 64.13909255 6.76589564 62.86675112 5.37109375 61.5859375 C3.14933291 59.80435473 3.14933291 59.80435473 0.65234375 59.890625 C-3.25494732 61.52489696 -6.20804472 64.04537145 -9.4375 66.75 C-10.40139648 67.53890625 -10.40139648 67.53890625 -11.38476562 68.34375 C-13.26489748 69.88603075 -15.13396009 71.44071323 -17 73 C-17.59699707 73.49693359 -18.19399414 73.99386719 -18.80908203 74.50585938 C-20.20697367 75.66946979 -21.60363206 76.83456153 -23 78 C-23.66 77.67 -24.32 77.34 -25 77 C-24.69707031 76.19780029 -24.39414063 75.39560059 -24.08203125 74.5690918 C-22.95993401 71.59057098 -21.84225301 68.61044146 -20.72753906 65.62915039 C-20.24427735 64.33942542 -19.75926331 63.05035562 -19.27246094 61.76196289 C-18.57286085 59.90945042 -17.88008767 58.05436431 -17.1875 56.19921875 C-16.76855469 55.08377686 -16.34960938 53.96833496 -15.91796875 52.8190918 C-14.84518793 50.01870118 -14.84518793 50.01870118 -15 47 C-17.27376174 45.08165451 -17.27376174 45.08165451 -20.25 43.2421875 C-21.87421875 42.18064453 -21.87421875 42.18064453 -23.53125 41.09765625 C-24.68714589 40.35621849 -25.84340069 39.61533999 -27 38.875 C-29.25318308 37.41887413 -31.50187702 35.95614377 -33.75 34.4921875 C-35.25820312 33.52321533 -35.25820312 33.52321533 -36.796875 32.53466797 C-37.52390625 32.02822754 -38.2509375 31.52178711 -39 31 C-39 30.67 -39 30.34 -39 30 C-28.44 30 -17.88 30 -7 30 C-6.67 27.03 -6.34 24.06 -6 21 C-5.58607994 19.16223146 -5.12385024 17.33387636 -4.58984375 15.52734375 C-4.18862305 14.1496582 -4.18862305 14.1496582 -3.77929688 12.74414062 C-3.50150391 11.81794922 -3.22371094 10.89175781 -2.9375 9.9375 C-2.51500977 8.49600586 -2.51500977 8.49600586 -2.08398438 7.02539062 C-1.39598716 4.68153571 -0.7012399 2.33992007 0 0 Z " fill="#F8FAFC" transform="translate(193,346)"/>
<path d="M0 0 C0.66 0 1.32 0 2 0 C3.14889592 4.06164024 4.2935796 8.12445591 5.4375 12.1875 C5.76298828 13.33798828 6.08847656 14.48847656 6.42382812 15.67382812 C6.89272461 17.34155273 6.89272461 17.34155273 7.37109375 19.04296875 C7.65911865 20.06414795 7.94714355 21.08532715 8.24389648 22.13745117 C8.92969508 24.73383105 9.4733448 27.366724 10 30 C20.23 30 30.46 30 41 30 C37.98761119 33.01238881 35.71725179 35.00176167 32.234375 37.234375 C30.90019531 38.09482422 30.90019531 38.09482422 29.5390625 38.97265625 C28.61867188 39.55917969 27.69828125 40.14570313 26.75 40.75 C25.81414062 41.35199219 24.87828125 41.95398438 23.9140625 42.57421875 C21.61221002 44.05398106 19.30749196 45.52905333 17 47 C17.63037881 50.56614296 18.57253661 53.80807162 19.84765625 57.1953125 C20.20537109 58.15824219 20.56308594 59.12117188 20.93164062 60.11328125 C21.68860063 62.12922656 22.44642012 64.14484934 23.20507812 66.16015625 C23.56150391 67.12050781 23.91792969 68.08085937 24.28515625 69.0703125 C24.61394775 69.94445801 24.94273926 70.81860352 25.28149414 71.71923828 C26 74 26 74 26 77 C23.21360547 75.69787511 20.89076196 74.25585371 18.50390625 72.3203125 C17.86259766 71.80339844 17.22128906 71.28648437 16.56054688 70.75390625 C15.57151367 69.94759766 15.57151367 69.94759766 14.5625 69.125 C13.90701172 68.59519531 13.25152344 68.06539063 12.57617188 67.51953125 C11.30109503 66.4887269 10.0271251 65.45655146 8.75439453 64.42285156 C6.5118203 62.60407581 4.25721744 60.80055495 2 59 C-0.89759025 60.34215132 -3.25259213 61.87017178 -5.71484375 63.8984375 C-6.40126953 64.46046875 -7.08769531 65.0225 -7.79492188 65.6015625 C-8.85549805 66.47941406 -8.85549805 66.47941406 -9.9375 67.375 C-11.34235544 68.52875845 -12.74730127 69.68240684 -14.15234375 70.8359375 C-14.81218262 71.37959961 -15.47202148 71.92326172 -16.15185547 72.48339844 C-18.41808979 74.34308768 -20.70470414 76.17634027 -23 78 C-23.66 77.67 -24.32 77.34 -25 77 C-24.53775024 75.80455566 -24.53775024 75.80455566 -24.06616211 74.58496094 C-22.92616801 71.62127861 -21.79610393 68.65405357 -20.67260742 65.68408203 C-20.18468587 64.40035086 -19.69285403 63.11809874 -19.19702148 61.83740234 C-18.48431472 59.99451563 -17.78687815 58.14574639 -17.08984375 56.296875 C-16.66566162 55.18666992 -16.24147949 54.07646484 -15.80444336 52.93261719 C-14.81249858 49.3472396 -14.81249858 49.3472396 -16 46 C-17.90353513 44.32350625 -17.90353513 44.32350625 -20.33203125 42.90625 C-21.21310547 42.35066406 -22.09417969 41.79507813 -23.00195312 41.22265625 C-23.92943359 40.65417969 -24.85691406 40.08570313 -25.8125 39.5 C-27.63437299 38.36918228 -29.45348617 37.23390357 -31.26953125 36.09375 C-32.08010986 35.59552734 -32.89068848 35.09730469 -33.72583008 34.58398438 C-36 33 -36 33 -40 29 C-29.44 29 -18.88 29 -8 29 C-7.05125 25.885625 -6.1025 22.77125 -5.125 19.5625 C-4.82996582 18.60029541 -4.53493164 17.63809082 -4.23095703 16.64672852 C-2.56540766 11.13557072 -1.18093075 5.63521807 0 0 Z " fill="#F8FAFC" transform="translate(45,346)"/>
<path d="M0 0 C0.66 0 1.32 0 2 0 C2.98566743 3.68579337 3.96235549 7.3739099 4.9375 11.0625 C5.35418945 12.62000977 5.35418945 12.62000977 5.77929688 14.20898438 C6.04677734 15.22412109 6.31425781 16.23925781 6.58984375 17.28515625 C6.95903931 18.67553101 6.95903931 18.67553101 7.33569336 20.09399414 C8.08185531 23.3580756 8.52648157 26.68537096 9 30 C19.56 30 30.12 30 41 30 C37.98761119 33.01238881 35.71725179 35.00176167 32.234375 37.234375 C30.90019531 38.09482422 30.90019531 38.09482422 29.5390625 38.97265625 C28.61867188 39.55917969 27.69828125 40.14570313 26.75 40.75 C25.81414062 41.35199219 24.87828125 41.95398438 23.9140625 42.57421875 C21.61221002 44.05398106 19.30749196 45.52905333 17 47 C18.27762401 53.4655518 20.11773266 59.29029024 22.625 65.375 C23.26766813 66.94341627 23.90589555 68.51366159 24.5390625 70.0859375 C24.95986084 71.1076001 24.95986084 71.1076001 25.38916016 72.14990234 C26 74 26 74 26 77 C21.8710029 75.24363556 18.59968132 72.46503188 15.125 69.6875 C14.52558594 69.21376953 13.92617187 68.74003906 13.30859375 68.25195312 C9.49035502 65.22469444 5.73200047 62.13282608 2 59 C-0.76849157 60.29557524 -3.08628893 61.72390904 -5.4609375 63.64453125 C-6.41613281 64.41313477 -6.41613281 64.41313477 -7.390625 65.19726562 C-8.04546875 65.73029297 -8.7003125 66.26332031 -9.375 66.8125 C-10.02210937 67.33392578 -10.66921875 67.85535156 -11.3359375 68.39257812 C-15.25565161 71.55758922 -19.13759383 74.76538431 -23 78 C-23.66 77.67 -24.32 77.34 -25 77 C-24.69707031 76.19780029 -24.39414063 75.39560059 -24.08203125 74.5690918 C-22.95993401 71.59057098 -21.84225301 68.61044146 -20.72753906 65.62915039 C-20.24427735 64.33942542 -19.75926331 63.05035562 -19.27246094 61.76196289 C-18.57286085 59.90945042 -17.88008767 58.05436431 -17.1875 56.19921875 C-16.76855469 55.08377686 -16.34960938 53.96833496 -15.91796875 52.8190918 C-14.84518793 50.01870118 -14.84518793 50.01870118 -15 47 C-17.27376174 45.08165451 -17.27376174 45.08165451 -20.25 43.2421875 C-21.87421875 42.18064453 -21.87421875 42.18064453 -23.53125 41.09765625 C-24.68714589 40.35621849 -25.84340069 39.61533999 -27 38.875 C-29.25318308 37.41887413 -31.50187702 35.95614377 -33.75 34.4921875 C-35.25820312 33.52321533 -35.25820312 33.52321533 -36.796875 32.53466797 C-37.52390625 32.02822754 -38.2509375 31.52178711 -39 31 C-39 30.67 -39 30.34 -39 30 C-28.44 30 -17.88 30 -7 30 C-6.67 27.03 -6.34 24.06 -6 21 C-5.58607994 19.16223146 -5.12385024 17.33387636 -4.58984375 15.52734375 C-4.18862305 14.1496582 -4.18862305 14.1496582 -3.77929688 12.74414062 C-3.50150391 11.81794922 -3.22371094 10.89175781 -2.9375 9.9375 C-2.51500977 8.49600586 -2.51500977 8.49600586 -2.08398438 7.02539062 C-1.39598716 4.68153571 -0.7012399 2.33992007 0 0 Z " fill="#F8FAFC" transform="translate(115,276)"/>
<path d="M0 0 C2.39581691 2.39581691 2.78214228 4.06675219 3.7265625 7.3046875 C4.0359375 8.36300781 4.3453125 9.42132813 4.6640625 10.51171875 C4.98117187 11.62160156 5.29828125 12.73148438 5.625 13.875 C6.11226563 15.52822266 6.11226563 15.52822266 6.609375 17.21484375 C9 25.48158482 9 25.48158482 9 30 C19.23 30 29.46 30 40 30 C36.71060201 33.28939799 34.34584985 35.64698638 30.64453125 38.11328125 C29.85755859 38.63857422 29.07058594 39.16386719 28.25976562 39.70507812 C27.45216797 40.23552734 26.64457031 40.76597656 25.8125 41.3125 C24.99330078 41.86228516 24.17410156 42.41207031 23.33007812 42.97851562 C17.26038432 47 17.26038432 47 15 47 C15.2266333 47.54825439 15.4532666 48.09650879 15.68676758 48.66137695 C23.97247351 68.79165053 23.97247351 68.79165053 26 78 C19.67268545 74.12513295 14.08825167 69.67106551 8.60668945 64.69604492 C6.39703097 62.74746317 4.2343462 61.11831811 1.6015625 59.7890625 C-2.86469232 60.15119127 -5.61630309 63.30340096 -8.875 66.1875 C-13.71779109 70.38489076 -18.31446618 74.00878573 -24 77 C-22.63218625 69.98095574 -20.49261049 63.5832708 -17.875 56.9375 C-17.31619141 55.49600586 -17.31619141 55.49600586 -16.74609375 54.02539062 C-15.83644515 51.68129617 -14.92101046 49.33964819 -14 47 C-15.09489746 46.5968457 -15.09489746 46.5968457 -16.21191406 46.18554688 C-18.94037539 45.02535351 -21.16556062 43.70034737 -23.609375 42.03125 C-24.44597656 41.46019531 -25.28257812 40.88914063 -26.14453125 40.30078125 C-27.00433594 39.70652344 -27.86414063 39.11226562 -28.75 38.5 C-29.62527344 37.90574219 -30.50054687 37.31148437 -31.40234375 36.69921875 C-37.87221443 32.25557113 -37.87221443 32.25557113 -39 30 C-28.77 30 -18.54 30 -8 30 C-7.34 26.7 -6.68 23.4 -6 20 C-5.36638876 17.57445696 -4.70320743 15.15628792 -4 12.75 C-3.67 11.61046875 -3.34 10.4709375 -3 9.296875 C-2.05388854 6.17766379 -1.04752681 3.08646292 0 0 Z " fill="#FCFCFD" transform="translate(338,90)"/>
<path d="M0 0 C2.39581691 2.39581691 2.78214228 4.06675219 3.7265625 7.3046875 C4.0359375 8.36300781 4.3453125 9.42132813 4.6640625 10.51171875 C4.98117187 11.62160156 5.29828125 12.73148437 5.625 13.875 C6.11226563 15.52822266 6.11226563 15.52822266 6.609375 17.21484375 C9 25.48158482 9 25.48158482 9 30 C19.23 30 29.46 30 40 30 C36.71060201 33.28939799 34.34584985 35.64698638 30.64453125 38.11328125 C29.85755859 38.63857422 29.07058594 39.16386719 28.25976562 39.70507812 C27.45216797 40.23552734 26.64457031 40.76597656 25.8125 41.3125 C24.99330078 41.86228516 24.17410156 42.41207031 23.33007812 42.97851562 C17.26038432 47 17.26038432 47 15 47 C15.37511719 47.92039062 15.75023437 48.84078125 16.13671875 49.7890625 C18.82813267 56.4288257 21.46834377 63.08651486 23.9375 69.8125 C24.35902344 70.95332031 24.78054688 72.09414063 25.21484375 73.26953125 C26 76 26 76 25 78 C24.56244385 77.6376123 24.1248877 77.27522461 23.67407227 76.90185547 C12.23465656 67.41363509 12.23465656 67.41363509 0 59 C-0.43755615 59.3623877 -0.8751123 59.72477539 -1.32592773 60.09814453 C-17.39677567 73.3747052 -17.39677567 73.3747052 -25 78 C-22.85714799 70.31094281 -20.16322088 62.88566211 -17.33764648 55.42651367 C-16.88627319 54.2253894 -16.88627319 54.2253894 -16.42578125 53 C-16.15161377 52.278125 -15.87744629 51.55625 -15.5949707 50.8125 C-14.89603801 49.00123593 -14.89603801 49.00123593 -15 47 C-16.69640031 45.70645716 -18.46127131 44.50237407 -20.25 43.33984375 C-21.3328125 42.62892578 -22.415625 41.91800781 -23.53125 41.18554688 C-24.68719275 40.43572404 -25.8434469 39.68638107 -27 38.9375 C-29.25290191 37.47179074 -31.50199664 36.00058881 -33.75 34.52734375 C-34.75546875 33.87499756 -35.7609375 33.22265137 -36.796875 32.55053711 C-37.52390625 32.03885986 -38.2509375 31.52718262 -39 31 C-39 30.67 -39 30.34 -39 30 C-28.77 30 -18.54 30 -8 30 C-7.34 26.7 -6.68 23.4 -6 20 C-5.53063767 18.20711249 -5.03555848 16.4202994 -4.4921875 14.6484375 C-4.22792969 13.77832031 -3.96367187 12.90820312 -3.69140625 12.01171875 C-3.42199219 11.14160156 -3.15257812 10.27148438 -2.875 9.375 C-2.59785156 8.46621094 -2.32070313 7.55742187 -2.03515625 6.62109375 C-1.36102123 4.41272041 -0.68260023 2.20576837 0 0 Z " fill="#F9FAFC" transform="translate(260,276)"/>
<path d="M0 0 C0.66 0 1.32 0 2 0 C3.17547401 3.91407837 4.33884223 7.83165293 5.5 11.75 C5.83386719 12.86117187 6.16773438 13.97234375 6.51171875 15.1171875 C6.82753906 16.18710937 7.14335937 17.25703125 7.46875 18.359375 C7.76201172 19.34389648 8.05527344 20.32841797 8.35742188 21.34277344 C9 24 9 24 9 28 C10.29292969 27.9278125 11.58585937 27.855625 12.91796875 27.78125 C22.62448166 27.25705345 32.2766965 26.84031071 42 27 C39.51887925 29.7136123 36.75706914 31.58244702 33.67578125 33.57421875 C32.64775391 34.24130859 31.61972656 34.90839844 30.56054688 35.59570312 C29.48869141 36.28599609 28.41683594 36.97628906 27.3125 37.6875 C26.22904297 38.38939453 25.14558594 39.09128906 24.02929688 39.81445312 C21.35498076 41.54627898 18.67849512 43.27464735 16 45 C18.35665659 52.24696483 20.9679927 59.38097864 23.65820312 66.50976562 C23.96048828 67.31994141 24.26277344 68.13011719 24.57421875 68.96484375 C24.98546997 70.05720337 24.98546997 70.05720337 25.4050293 71.17163086 C26 73 26 73 26 75 C21.8710029 73.24363556 18.59968132 70.46503188 15.125 67.6875 C14.52558594 67.21376953 13.92617188 66.74003906 13.30859375 66.25195312 C9.49035502 63.22469444 5.73200047 60.13282608 2 57 C-3.01480802 58.56230558 -6.51839909 61.58722261 -10.5 64.875 C-11.15097656 65.40480469 -11.80195313 65.93460937 -12.47265625 66.48046875 C-13.73761279 67.51032226 -15.00071354 68.54246048 -16.26171875 69.57714844 C-18.49293492 71.40348662 -20.74425989 73.20408384 -23 75 C-23.66 74.67 -24.32 74.34 -25 74 C-24.6918335 73.19780029 -24.38366699 72.39560059 -24.06616211 71.5690918 C-22.92751973 68.59188386 -21.79726247 65.61166731 -20.67260742 62.62915039 C-20.18408827 61.33881734 -19.69224425 60.04973801 -19.19702148 58.76196289 C-18.48589833 56.91104555 -17.78768663 55.05518385 -17.08984375 53.19921875 C-16.66566162 52.08377686 -16.24147949 50.96833496 -15.80444336 49.8190918 C-14.70086733 46.95671452 -14.70086733 46.95671452 -16 44 C-18.38289731 42.10359767 -18.38289731 42.10359767 -21.34765625 40.2421875 C-22.42724609 39.53449219 -23.50683594 38.82679687 -24.61914062 38.09765625 C-25.76660319 37.3562693 -26.91439398 36.61539011 -28.0625 35.875 C-30.30638634 34.41856935 -32.54622589 32.95625792 -34.78515625 31.4921875 C-35.78426025 30.84620605 -36.78336426 30.20022461 -37.81274414 29.53466797 C-38.53453857 29.02822754 -39.25633301 28.52178711 -40 28 C-40 27.67 -40 27.34 -40 27 C-29.30779968 26.80441097 -18.67200792 27.40945411 -8 28 C-7.773125 26.700625 -7.54625 25.40125 -7.3125 24.0625 C-6.2930366 18.93563336 -4.90668758 13.94955854 -3.4375 8.9375 C-3.21553955 8.1751001 -2.9935791 7.4127002 -2.76489258 6.62719727 C-1.12744926 1.12744926 -1.12744926 1.12744926 0 0 Z " fill="#FAFBFD" transform="translate(260,24)"/>
<path d="M0 0 C2.38066675 2.38066675 2.65402357 3.84796543 3.47265625 7.0859375 C3.86227539 8.60574219 3.86227539 8.60574219 4.25976562 10.15625 C4.52466797 11.2184375 4.78957031 12.280625 5.0625 13.375 C5.33126953 14.42945313 5.60003906 15.48390625 5.87695312 16.5703125 C6.59148499 19.37854747 7.29809486 22.18858682 8 25 C8.495 26.98 8.495 26.98 9 29 C19.23 29 29.46 29 40 29 C36.98761119 32.01238881 34.71725179 34.00176167 31.234375 36.234375 C30.34492187 36.80800781 29.45546875 37.38164062 28.5390625 37.97265625 C27.61867187 38.55917969 26.69828125 39.14570313 25.75 39.75 C24.81414062 40.35199219 23.87828125 40.95398438 22.9140625 41.57421875 C20.61221002 43.05398106 18.30749196 44.52905333 16 46 C16.66627478 49.82263641 17.73962107 53.31304378 19.06640625 56.95703125 C19.46923828 58.06884766 19.87207031 59.18066406 20.28710938 60.32617188 C20.70798828 61.47666016 21.12886719 62.62714844 21.5625 63.8125 C21.98724609 64.98232422 22.41199219 66.15214844 22.84960938 67.35742188 C23.89655308 70.23945793 24.94678884 73.12024968 26 76 C21.81825194 76 20.5717116 74.21332008 17.4375 71.5 C16.36924423 70.58505567 15.30022047 69.67100732 14.23046875 68.7578125 C13.69341309 68.29665039 13.15635742 67.83548828 12.60302734 67.36035156 C8.81396926 64.14490355 4.89522436 61.08515558 1 58 C-1.89759025 59.34215132 -4.25259213 60.87017178 -6.71484375 62.8984375 C-7.40126953 63.46046875 -8.08769531 64.0225 -8.79492188 64.6015625 C-9.85549805 65.47941406 -9.85549805 65.47941406 -10.9375 66.375 C-12.34235544 67.52875845 -13.74730127 68.68240684 -15.15234375 69.8359375 C-15.81218262 70.37959961 -16.47202148 70.92326172 -17.15185547 71.48339844 C-19.41808979 73.34308768 -21.70470414 75.17634027 -24 77 C-24.66 76.67 -25.32 76.34 -26 76 C-25.69707031 75.19780029 -25.39414062 74.39560059 -25.08203125 73.5690918 C-23.95993401 70.59057098 -22.84225301 67.61044146 -21.72753906 64.62915039 C-21.24427735 63.33942542 -20.75926331 62.05035562 -20.27246094 60.76196289 C-19.57286085 58.90945042 -18.88008767 57.05436431 -18.1875 55.19921875 C-17.76855469 54.08377686 -17.34960938 52.96833496 -16.91796875 51.8190918 C-15.84518793 49.01870118 -15.84518793 49.01870118 -16 46 C-17.65 44.68 -19.3 43.36 -21 42 C-19.35 38.04 -17.7 34.08 -16 30 C-13.36 30 -10.72 30 -8 30 C-7.896875 28.7315625 -7.79375 27.463125 -7.6875 26.15625 C-7.08329286 20.72689572 -5.62612931 15.70054563 -4 10.5 C-3.72671875 9.59507812 -3.4534375 8.69015625 -3.171875 7.7578125 C-1.14691558 1.14691558 -1.14691558 1.14691558 0 0 Z " fill="#F9FAFC" transform="translate(46,215)"/>
<path d="M0 0 C0.33 0 0.66 0 1 0 C1.1958009 1.91583647 1.38132214 3.83272539 1.5625 5.75 C1.66691406 6.81734375 1.77132812 7.8846875 1.87890625 8.984375 C1.98560074 11.64141204 1.81930395 13.49960572 1 16 C-1.31 16 -3.62 16 -6 16 C-5.37183502 12.05050296 -4.1354471 8.80107972 -2.4375 5.1875 C-1.98246094 4.21167969 -1.52742188 3.23585937 -1.05859375 2.23046875 C-0.70925781 1.49441406 -0.35992187 0.75835937 0 0 Z " fill="#1D67B1" transform="translate(37,229)"/>
<path d="M0 0 C0.66 0 1.32 0 2 0 C1.45018084 6.04801071 0.09570426 11.30601106 -2 17 C-2.33 17 -2.66 17 -3 17 C-3.55353075 5.47835991 -3.55353075 5.47835991 0 0 Z " fill="#0E4FA3" transform="translate(41,221)"/>
<path d="M0 0 C0.66 0.33 1.32 0.66 2 1 C1.15695312 1.61488281 0.31390625 2.22976562 -0.5546875 2.86328125 C-1.66164811 3.67943017 -2.76840851 4.49585067 -3.875 5.3125 C-4.43058594 5.71662109 -4.98617188 6.12074219 -5.55859375 6.53710938 C-8.2804066 8.55387431 -10.10034104 10.15051156 -12 13 C-11.68493373 16.14221967 -11.68493373 16.14221967 -11 19 C-13 17 -13 17 -15 10 C-10.05 6.7 -5.1 3.4 0 0 Z " fill="#277BBE" transform="translate(290,189)"/>
<path d="M0 0 C0.33 0 0.66 0 1 0 C1 2.31 1 4.62 1 7 C1.99 7 2.98 7 4 7 C4 7.66 4 8.32 4 9 C1.69 9 -0.62 9 -3 9 C-2.44271087 5.65626525 -1.64826111 2.96687001 0 0 Z " fill="#4490CA" transform="translate(34,236)"/>
</svg>
