<?xml version="1.0" encoding="UTF-8"?>
<svg version="1.1" xmlns="http://www.w3.org/2000/svg" width="556" height="300">
<path d="M0 0 C0.82407184 0.00234117 1.64814369 0.00468233 2.49718741 0.00709444 C3.80392183 0.00491428 3.80392183 0.00491428 5.13705492 0.00269008 C8.09453461 -0.00099737 11.05196365 0.00252912 14.00944307 0.00595194 C16.13585262 0.0048012 18.26226197 0.003214 20.38867089 0.0012247 C26.26190651 -0.00297519 32.13512602 -0.00087497 38.00836173 0.00221092 C44.33090757 0.00446217 50.65345053 0.00098675 56.97599581 -0.00176901 C68.6568193 -0.0059707 80.33763622 -0.00558957 92.01845988 -0.00285754 C102.8095699 -0.00034588 113.60067802 0.00031655 124.39178827 -0.00088018 C125.46384682 -0.00099476 125.46384682 -0.00099476 126.55756312 -0.00111165 C129.45853166 -0.00142297 132.35950021 -0.00174137 135.26046875 -0.00207142 C162.49911212 -0.00513348 189.7377522 -0.00235228 216.97639506 0.00302548 C241.19124483 0.0077699 265.40608933 0.00734809 289.62093905 0.00256449 C316.80398055 -0.00278747 343.98701913 -0.00491483 371.17006108 -0.00182325 C374.06679526 -0.00150251 376.96352944 -0.00118967 379.86026362 -0.00088018 C380.9301978 -0.00076157 380.9301978 -0.00076157 382.02174681 -0.00064055 C392.80559815 0.00049817 403.58944739 -0.00083572 414.37329844 -0.00335974 C426.63415821 -0.00621508 438.89501019 -0.00541605 451.15586955 -0.00007899 C457.41647441 0.00255602 463.67706857 0.00356647 469.93767336 0.00027186 C475.66244191 -0.00269528 481.38718981 -0.00109124 487.11195647 0.00424941 C489.18937277 0.00537181 491.26679079 0.00478628 493.34420598 0.00237362 C496.15575869 -0.00064261 498.96723949 0.002427 501.77878836 0.00709444 C502.5958367 0.00475328 503.41288505 0.00241211 504.25469244 0 C507.85259295 0.01203594 510.80952591 0.25362966 514.32674959 1.13293558 C514.32674959 88.58293558 514.32674959 176.03293558 514.32674959 266.13293558 C342.39674959 266.13293558 170.46674959 266.13293558 -6.67325041 266.13293558 C-6.69387541 222.42856058 -6.71450041 178.72418558 -6.73575041 133.69543558 C-6.74485441 119.86967631 -6.75395841 106.04391703 -6.7633383 91.79919535 C-6.7678549 74.98242289 -6.7678549 74.98242289 -6.76869413 67.12254435 C-6.76962993 61.605084 -6.7733118 56.08763368 -6.77882597 50.57017618 C-6.7851681 44.21492452 -6.78809182 37.85968253 -6.78669536 31.50442767 C-6.78609002 28.24984651 -6.78763305 24.99529155 -6.79246554 21.7407133 C-6.7973894 18.26499575 -6.79625887 14.78933354 -6.79350492 11.3136149 C-6.79641759 10.28571817 -6.79933025 9.25782143 -6.80233118 8.1987763 C-6.80034031 7.27339371 -6.79834944 6.34801111 -6.79629824 5.39458662 C-6.79667796 4.58995924 -6.79705768 3.78533186 -6.7974489 2.95632184 C-6.5200568 -1.11613442 -3.35105557 0.01132382 0 0 Z " fill="#D7242A" transform="translate(24.673250406980515,15.867064416408539)"/>
<path d="M0 0 C0.82200654 0.00262701 1.64401309 0.00525403 2.49092892 0.00796065 C3.7943958 0.00622988 3.7943958 0.00622988 5.12419534 0.00446415 C8.07422713 0.00178972 11.02420576 0.00632639 13.97423485 0.01075396 C16.09524542 0.01031843 18.21625594 0.00944385 20.33726618 0.00816479 C26.19542257 0.00591632 32.05356086 0.00994591 37.91171494 0.01494285 C44.21782308 0.01924214 50.52393011 0.0178013 56.83003929 0.01704058 C67.76569134 0.01651501 78.70133659 0.0196305 89.636987 0.02527842 C101.11031874 0.03118889 112.58364811 0.03504304 124.05698135 0.03613123 C124.76949486 0.03619997 125.48200837 0.03626871 126.21611319 0.03633953 C129.83438731 0.03667785 133.45266144 0.03697924 137.07093557 0.03726641 C162.72078674 0.03936863 188.37063481 0.04611104 214.02048424 0.05556902 C238.94398667 0.06474859 263.86748826 0.07183459 288.79099205 0.07607684 C289.55880526 0.07620836 290.32661848 0.07633989 291.11769876 0.0764754 C298.82816669 0.07779388 306.53863463 0.0790697 314.24910258 0.08031426 C329.95719318 0.08285069 345.66528373 0.08567195 361.37337425 0.08866534 C362.45680028 0.08887127 362.45680028 0.08887127 363.5621137 0.08908137 C411.82159465 0.09828707 460.08107378 0.1141536 508.3405526 0.13100848 C508.3405526 0.46100848 508.3405526 0.79100848 508.3405526 1.13100848 C402.7405526 1.13100848 297.1405526 1.13100848 188.3405526 1.13100848 C188.3405526 8.72100848 188.3405526 16.31100848 188.3405526 24.13100848 C295.5905526 24.13100848 402.8405526 24.13100848 513.3405526 24.13100848 C513.3405526 30.73100848 513.3405526 37.33100848 513.3405526 44.13100848 C406.0905526 44.13100848 298.8405526 44.13100848 188.3405526 44.13100848 C188.3405526 50.73100848 188.3405526 57.33100848 188.3405526 64.13100848 C295.5905526 64.13100848 402.8405526 64.13100848 513.3405526 64.13100848 C513.3405526 70.73100848 513.3405526 77.33100848 513.3405526 84.13100848 C406.0905526 84.13100848 298.8405526 84.13100848 188.3405526 84.13100848 C188.3405526 90.73100848 188.3405526 97.33100848 188.3405526 104.13100848 C295.5905526 104.13100848 402.8405526 104.13100848 513.3405526 104.13100848 C513.3405526 111.06100848 513.3405526 117.99100848 513.3405526 125.13100848 C406.0905526 125.13100848 298.8405526 125.13100848 188.3405526 125.13100848 C188.3405526 131.73100848 188.3405526 138.33100848 188.3405526 145.13100848 C295.5905526 145.13100848 402.8405526 145.13100848 513.3405526 145.13100848 C513.3405526 151.73100848 513.3405526 158.33100848 513.3405526 165.13100848 C342.4005526 165.13100848 171.4605526 165.13100848 -4.6594474 165.13100848 C-4.9894474 198.46100848 -5.3194474 231.79100848 -5.6594474 266.13100848 C-5.9894474 266.13100848 -6.3194474 266.13100848 -6.6594474 266.13100848 C-6.6823128 232.38859774 -6.69994513 198.64618893 -6.71051273 164.90377218 C-6.71176351 160.9244232 -6.71305782 156.94507423 -6.71437904 152.96572527 C-6.71464135 152.17347467 -6.71490366 151.38122406 -6.71517392 150.56496587 C-6.71953081 137.71988426 -6.72741846 124.87480711 -6.7366002 112.02972815 C-6.74593622 98.85942908 -6.7515029 85.68913234 -6.7535359 72.51883009 C-6.75491123 64.38542561 -6.75926239 56.25203372 -6.76736387 48.11863311 C-6.77325134 41.89258587 -6.7739065 35.66654832 -6.77255508 29.44049868 C-6.77283162 26.87856437 -6.77483947 24.31662961 -6.77865288 21.75469813 C-6.7835829 18.27367668 -6.78244826 14.79271036 -6.77970192 11.3116878 C-6.78261476 10.28349934 -6.7855276 9.25531088 -6.78852871 8.1959652 C-6.78653766 7.27087432 -6.78454661 6.34578345 -6.78249523 5.39265952 C-6.78287495 4.58803214 -6.78325467 3.78340476 -6.7836459 2.95439473 C-6.50653064 -1.11399712 -3.34889705 0.01018364 0 0 Z " fill="#0A59A6" transform="translate(24.65944740176201,15.868991523981094)"/>
<path d="M0 0 C170.94 0 341.88 0 518 0 C518 6.6 518 13.2 518 20 C347.06 20 176.12 20 0 20 C0 13.4 0 6.8 0 0 Z " fill="#FDFCFC" transform="translate(20,243)"/>
<path d="M0 0 C170.94 0 341.88 0 518 0 C518 6.6 518 13.2 518 20 C347.06 20 176.12 20 0 20 C0 13.4 0 6.8 0 0 Z " fill="#FEFEFE" transform="translate(20,202)"/>
<path d="M0 0 C170.94 0 341.88 0 518 0 C518 6.6 518 13.2 518 20 C347.06 20 176.12 20 0 20 C0 13.4 0 6.8 0 0 Z " fill="#FEFEFD" transform="translate(20,161)"/>
<path d="M0 0 C107.25 0 214.5 0 325 0 C325 6.93 325 13.86 325 21 C217.75 21 110.5 21 0 21 C0 14.07 0 7.14 0 0 Z " fill="#FDF7F7" transform="translate(213,120)"/>
<path d="M0 0 C107.25 0 214.5 0 325 0 C325 6.6 325 13.2 325 20 C217.75 20 110.5 20 0 20 C0 13.4 0 6.8 0 0 Z " fill="#D92127" transform="translate(213,100)"/>
<path d="M0 0 C107.25 0 214.5 0 325 0 C325 6.6 325 13.2 325 20 C217.75 20 110.5 20 0 20 C0 13.4 0 6.8 0 0 Z " fill="#FCF9F8" transform="translate(213,80)"/>
<path d="M0 0 C107.25 0 214.5 0 325 0 C325 6.6 325 13.2 325 20 C217.75 20 110.5 20 0 20 C0 13.4 0 6.8 0 0 Z " fill="#D92127" transform="translate(213,60)"/>
<path d="M0 0 C107.25 0 214.5 0 325 0 C325 6.27 325 12.54 325 19 C217.75 19 110.5 19 0 19 C0 12.73 0 6.46 0 0 Z " fill="#FEFEFE" transform="translate(213,40)"/>
<path d="M0 0 C0.82200654 0.00262701 1.64401309 0.00525403 2.49092892 0.00796065 C3.7943958 0.00622988 3.7943958 0.00622988 5.12419534 0.00446415 C8.07422713 0.00178972 11.02420576 0.00632639 13.97423485 0.01075396 C16.09524542 0.01031843 18.21625594 0.00944385 20.33726618 0.00816479 C26.19542257 0.00591632 32.05356086 0.00994591 37.91171494 0.01494285 C44.21782308 0.01924214 50.52393011 0.0178013 56.83003929 0.01704058 C67.76569134 0.01651501 78.70133659 0.0196305 89.636987 0.02527842 C101.11031874 0.03118889 112.58364811 0.03504304 124.05698135 0.03613123 C124.76949486 0.03619997 125.48200837 0.03626871 126.21611319 0.03633953 C129.83438731 0.03667785 133.45266144 0.03697924 137.07093557 0.03726641 C162.72078674 0.03936863 188.37063481 0.04611104 214.02048424 0.05556902 C238.94398667 0.06474859 263.86748826 0.07183459 288.79099205 0.07607684 C289.55880526 0.07620836 290.32661848 0.07633989 291.11769876 0.0764754 C298.82816669 0.07779388 306.53863463 0.0790697 314.24910258 0.08031426 C329.95719318 0.08285069 345.66528373 0.08567195 361.37337425 0.08866534 C362.45680028 0.08887127 362.45680028 0.08887127 363.5621137 0.08908137 C411.82159465 0.09828707 460.08107378 0.1141536 508.3405526 0.13100848 C508.3405526 0.46100848 508.3405526 0.79100848 508.3405526 1.13100848 C402.7405526 1.13100848 297.1405526 1.13100848 188.3405526 1.13100848 C188.3405526 8.72100848 188.3405526 16.31100848 188.3405526 24.13100848 C188.0105526 24.13100848 187.6805526 24.13100848 187.3405526 24.13100848 C187.3405526 16.87100848 187.3405526 9.61100848 187.3405526 2.13100848 C93.2905526 2.62600848 93.2905526 2.62600848 -2.6594474 3.13100848 C-2.58040617 44.25127426 -2.58040617 44.25127426 -2.47927162 85.37148699 C-2.47023842 93.36526141 -2.47023842 93.36526141 -2.46855995 97.11988482 C-2.46550974 99.71513949 -2.4592872 102.31019215 -2.44829628 104.90540728 C-2.34778235 129.71000011 -2.34778235 129.71000011 -4.19432899 141.09525713 C-5.62550766 151.59941533 -5.02676888 162.48750191 -5.0735099 173.06460223 C-5.09119458 175.7560281 -5.11173109 178.44743025 -5.1321952 181.13883623 C-5.17864779 187.46005414 -5.21555201 193.78128877 -5.24886808 200.10258809 C-5.28732912 207.30962374 -5.33667485 214.51657268 -5.38685223 221.72353479 C-5.48967231 236.52595876 -5.57909207 251.32844506 -5.6594474 266.13100848 C-5.9894474 266.13100848 -6.3194474 266.13100848 -6.6594474 266.13100848 C-6.6823128 232.38859774 -6.69994513 198.64618893 -6.71051273 164.90377218 C-6.71176351 160.9244232 -6.71305782 156.94507423 -6.71437904 152.96572527 C-6.71464135 152.17347467 -6.71490366 151.38122406 -6.71517392 150.56496587 C-6.71953081 137.71988426 -6.72741846 124.87480711 -6.7366002 112.02972815 C-6.74593622 98.85942908 -6.7515029 85.68913234 -6.7535359 72.51883009 C-6.75491123 64.38542561 -6.75926239 56.25203372 -6.76736387 48.11863311 C-6.77325134 41.89258587 -6.7739065 35.66654832 -6.77255508 29.44049868 C-6.77283162 26.87856437 -6.77483947 24.31662961 -6.77865288 21.75469813 C-6.7835829 18.27367668 -6.78244826 14.79271036 -6.77970192 11.3116878 C-6.78261476 10.28349934 -6.7855276 9.25531088 -6.78852871 8.1959652 C-6.78653766 7.27087432 -6.78454661 6.34578345 -6.78249523 5.39265952 C-6.78287495 4.58803214 -6.78325467 3.78340476 -6.7836459 2.95439473 C-6.50653064 -1.11399712 -3.34889705 0.01018364 0 0 Z " fill="#2A3A50" transform="translate(24.65944740176201,15.868991523981094)"/>
<path d="M0 0 C2.1385485 2.1385485 2.42655063 3.13275314 3 6 C5.31 6.33 7.62 6.66 10 7 C9.319375 7.495 8.63875 7.99 7.9375 8.5 C5.80204136 10.74267312 5.80204136 10.74267312 5.95703125 13.046875 C6.22259233 15.04389436 6.60490464 17.02452318 7 19 C6.2575 18.484375 5.515 17.96875 4.75 17.4375 C2.19759615 15.77437194 2.19759615 15.77437194 -0.125 16.25 C-0.74375 16.4975 -1.3625 16.745 -2 17 C-2.99 17.33 -3.98 17.66 -5 18 C-4.125 13.25 -4.125 13.25 -3 11 C-3.804375 10.71125 -4.60875 10.4225 -5.4375 10.125 C-8 9 -8 9 -9 7 C-6.69 7 -4.38 7 -2 7 C-1.34 4.69 -0.68 2.38 0 0 Z " fill="#EEF4F5" transform="translate(201,100)"/>
<path d="M0 0 C2 3 2 3 3 6 C5.31 6.33 7.62 6.66 10 7 C9.319375 7.495 8.63875 7.99 7.9375 8.5 C5.80204136 10.74267312 5.80204136 10.74267312 5.95703125 13.046875 C6.22259233 15.04389436 6.60490464 17.02452318 7 19 C6.2575 18.484375 5.515 17.96875 4.75 17.4375 C2.19759615 15.77437194 2.19759615 15.77437194 -0.125 16.25 C-0.74375 16.4975 -1.3625 16.745 -2 17 C-2.99 17.33 -3.98 17.66 -5 18 C-4.34 15.69 -3.68 13.38 -3 11 C-3.804375 10.71125 -4.60875 10.4225 -5.4375 10.125 C-8 9 -8 9 -9 7 C-6.69 7 -4.38 7 -2 7 C-1.34 4.69 -0.68 2.38 0 0 Z " fill="#E0EBF1" transform="translate(201,137)"/>
<path d="M0 0 C0.66 0 1.32 0 2 0 C2.33 1.98 2.66 3.96 3 6 C5.31 6 7.62 6 10 6 C9.319375 6.495 8.63875 6.99 7.9375 7.5 C5.80204136 9.74267312 5.80204136 9.74267312 5.95703125 12.046875 C6.22259233 14.04389436 6.60490464 16.02452318 7 18 C6.278125 17.46375 5.55625 16.9275 4.8125 16.375 C2.08478986 14.6555022 2.08478986 14.6555022 -0.6875 15.75 C-1.450625 16.1625 -2.21375 16.575 -3 17 C-3.66 17.33 -4.32 17.66 -5 18 C-4.7525 16.7625 -4.505 15.525 -4.25 14.25 C-3.90427779 12.07896977 -3.90427779 12.07896977 -4 10 C-5.77154652 7.47409152 -5.77154652 7.47409152 -8 6 C-5.69 6 -3.38 6 -1 6 C-0.67 4.02 -0.34 2.04 0 0 Z " fill="#E2ECF1" transform="translate(179,138)"/>
<path d="M0 0 C2.1385485 2.1385485 2.42655063 3.13275314 3 6 C5.31 6.33 7.62 6.66 10 7 C9.319375 7.495 8.63875 7.99 7.9375 8.5 C5.80204136 10.74267312 5.80204136 10.74267312 5.95703125 13.046875 C6.22259233 15.04389436 6.60490464 17.02452318 7 19 C6.2575 18.484375 5.515 17.96875 4.75 17.4375 C2.20008215 15.78983691 2.20008215 15.78983691 -0.125 16.1875 C-2.26800361 17.0500132 -2.26800361 17.0500132 -5 19 C-4.125 13.25 -4.125 13.25 -3 11 C-3.639375 10.71125 -4.27875 10.4225 -4.9375 10.125 C-7 9 -7 9 -8 7 C-5.69 7 -3.38 7 -1 7 C-0.67 4.69 -0.34 2.38 0 0 Z " fill="#E2ECF1" transform="translate(51,137)"/>
<path d="M0 0 C0.66 0 1.32 0 2 0 C2.33 1.98 2.66 3.96 3 6 C5.64 6 8.28 6 11 6 C9.71034824 7.37562854 8.37310707 8.70766393 7 10 C6.34 10 5.68 10 5 10 C5.66 12.64 6.32 15.28 7 18 C6.29875 17.46375 5.5975 16.9275 4.875 16.375 C2.00303974 14.62820892 2.00303974 14.62820892 -1.3125 15.8125 C-2.199375 16.204375 -3.08625 16.59625 -4 17 C-3.67 14.69 -3.34 12.38 -3 10 C-3.639375 9.71125 -4.27875 9.4225 -4.9375 9.125 C-7 8 -7 8 -8 6 C-5.69 6 -3.38 6 -1 6 C-0.67 4.02 -0.34 2.04 0 0 Z " fill="#DEE9F0" transform="translate(83,119)"/>
<path d="M0 0 C2 3 2 3 2 7 C4.64 7 7.28 7 10 7 C8.71034824 8.37562854 7.37310707 9.70766393 6 11 C5.34 11 4.68 11 4 11 C4.350625 11.598125 4.70125 12.19625 5.0625 12.8125 C6 15 6 15 5 18 C4.01 17.34 3.02 16.68 2 16 C-0.02919843 16.25723969 -0.02919843 16.25723969 -2 17 C-2.99 17.33 -3.98 17.66 -5 18 C-4.9175 16.9275 -4.835 15.855 -4.75 14.75 C-4.63762783 10.95990735 -4.63762783 10.95990735 -7 8.5625 C-7.66 8.046875 -8.32 7.53125 -9 7 C-6.69 7 -4.38 7 -2 7 C-1.34 4.69 -0.68 2.38 0 0 Z " fill="#E8F0F3" transform="translate(116,100)"/>
<path d="M0 0 C2.1385485 2.1385485 2.42655063 3.13275314 3 6 C5.31 6.33 7.62 6.66 10 7 C9.319375 7.495 8.63875 7.99 7.9375 8.5 C5.80204136 10.74267312 5.80204136 10.74267312 5.95703125 13.046875 C6.22259233 15.04389436 6.60490464 17.02452318 7 19 C6.2575 18.484375 5.515 17.96875 4.75 17.4375 C2.19759615 15.77437194 2.19759615 15.77437194 -0.125 16.25 C-0.74375 16.4975 -1.3625 16.745 -2 17 C-2.99 17.33 -3.98 17.66 -5 18 C-4.34 15.69 -3.68 13.38 -3 11 C-3.804375 10.71125 -4.60875 10.4225 -5.4375 10.125 C-8 9 -8 9 -9 7 C-5.535 6.505 -5.535 6.505 -2 6 C-1.34 4.02 -0.68 2.04 0 0 Z " fill="#E6EFF2" transform="translate(51,100)"/>
<path d="M0 0 C2.35953094 2.35953094 2.49141413 3.77895617 3 7 C5.31 7 7.62 7 10 7 C9.319375 7.495 8.63875 7.99 7.9375 8.5 C5.80204136 10.74267312 5.80204136 10.74267312 5.95703125 13.046875 C6.22259233 15.04389436 6.60490464 17.02452318 7 19 C6.2575 18.484375 5.515 17.96875 4.75 17.4375 C2.19759615 15.77437194 2.19759615 15.77437194 -0.125 16.25 C-0.74375 16.4975 -1.3625 16.745 -2 17 C-2.99 17.33 -3.98 17.66 -5 18 C-4.34 15.69 -3.68 13.38 -3 11 C-3.639375 10.71125 -4.27875 10.4225 -4.9375 10.125 C-7 9 -7 9 -8 7 C-6.02 6.67 -4.04 6.34 -2 6 C-1.34 4.02 -0.68 2.04 0 0 Z " fill="#D5E4EC" transform="translate(51,80)"/>
<path d="M0 0 C0.66 0 1.32 0 2 0 C2.33 1.98 2.66 3.96 3 6 C5.64 6 8.28 6 11 6 C10.154375 6.680625 9.30875 7.36125 8.4375 8.0625 C5.5625 10.85416667 5.5625 10.85416667 6.1875 14.8125 C6.455625 15.864375 6.72375 16.91625 7 18 C6.2575 17.46375 5.515 16.9275 4.75 16.375 C3.8425 15.92125 2.935 15.4675 2 15 C-0.15017528 15.74172877 -0.15017528 15.74172877 -2 17 C-2.99 17 -3.98 17 -5 17 C-4.6596875 15.63875 -4.6596875 15.63875 -4.3125 14.25 C-3.67394455 11.00496499 -3.67394455 11.00496499 -5.4375 8.625 C-5.953125 8.08875 -6.46875 7.5525 -7 7 C-5.02 7 -3.04 7 -1 7 C-0.67 4.69 -0.34 2.38 0 0 Z " fill="#E1ECF1" transform="translate(179,61)"/>
<path d="M0 0 C2 3 2 3 3 6 C5.31 6.33 7.62 6.66 10 7 C8.71034824 8.37562854 7.37310707 9.70766393 6 11 C5.34 11 4.68 11 4 11 C4.350625 11.598125 4.70125 12.19625 5.0625 12.8125 C6 15 6 15 5 18 C4.01 17.34 3.02 16.68 2 16 C-0.02919843 16.25723969 -0.02919843 16.25723969 -2 17 C-2.99 17.33 -3.98 17.66 -5 18 C-4.125 13.25 -4.125 13.25 -3 11 C-3.804375 10.71125 -4.60875 10.4225 -5.4375 10.125 C-8 9 -8 9 -9 7 C-6.69 7 -4.38 7 -2 7 C-1.34 4.69 -0.68 2.38 0 0 Z " fill="#E4EEF2" transform="translate(73,100)"/>
<path d="M0 0 C0.66 0 1.32 0 2 0 C2.33 1.98 2.66 3.96 3 6 C5.31 6 7.62 6 10 6 C10 6.66 10 7.32 10 8 C8 9.625 8 9.625 6 11 C6.33 13.31 6.66 15.62 7 18 C6.278125 17.46375 5.55625 16.9275 4.8125 16.375 C2.08478986 14.6555022 2.08478986 14.6555022 -0.6875 15.75 C-1.450625 16.1625 -2.21375 16.575 -3 17 C-3.66 17.33 -4.32 17.66 -5 18 C-4.773125 16.9275 -4.54625 15.855 -4.3125 14.75 C-3.64224175 11.07021424 -3.64224175 11.07021424 -5.4375 8.5625 C-5.953125 8.046875 -6.46875 7.53125 -7 7 C-5.02 7 -3.04 7 -1 7 C-0.67 4.69 -0.34 2.38 0 0 Z " fill="#E2ECF2" transform="translate(158,61)"/>
<path d="M0 0 C0.66 0.33 1.32 0.66 2 1 C2.625 3.5625 2.625 3.5625 3 6 C5.31 6 7.62 6 10 6 C10 6.66 10 7.32 10 8 C8 9.625 8 9.625 6 11 C6.33 13.31 6.66 15.62 7 18 C6.278125 17.46375 5.55625 16.9275 4.8125 16.375 C2.08478986 14.6555022 2.08478986 14.6555022 -0.6875 15.75 C-1.450625 16.1625 -2.21375 16.575 -3 17 C-3.66 17.33 -4.32 17.66 -5 18 C-4.773125 16.9275 -4.54625 15.855 -4.3125 14.75 C-3.64224175 11.07021424 -3.64224175 11.07021424 -5.4375 8.5625 C-5.953125 8.046875 -6.46875 7.53125 -7 7 C-5.35 6.67 -3.7 6.34 -2 6 C-1.34 4.02 -0.68 2.04 0 0 Z " fill="#E7F0F3" transform="translate(137,61)"/>
<path d="M0 0 C2 3 2 3 2 6 C4.64 6 7.28 6 10 6 C9.154375 6.680625 8.30875 7.36125 7.4375 8.0625 C4.5625 10.85416667 4.5625 10.85416667 5.1875 14.8125 C5.455625 15.864375 5.72375 16.91625 6 18 C4.02 17.01 2.04 16.02 0 15 C-1.32 15.99 -2.64 16.98 -4 18 C-4.66 17.67 -5.32 17.34 -6 17 C-5.34 14.69 -4.68 12.38 -4 10 C-5.32 9.34 -6.64 8.68 -8 8 C-8 7.67 -8 7.34 -8 7 C-6.02 7 -4.04 7 -2 7 C-1.855625 6.030625 -1.71125 5.06125 -1.5625 4.0625 C-1 1 -1 1 0 0 Z " fill="#EDF3F5" transform="translate(95,61)"/>
<path d="M0 0 C0.66 0.33 1.32 0.66 2 1 C2.625 3.5625 2.625 3.5625 3 6 C5.31 6 7.62 6 10 6 C9.319375 6.495 8.63875 6.99 7.9375 7.5 C5.80204136 9.74267312 5.80204136 9.74267312 5.95703125 12.046875 C6.22259233 14.04389436 6.60490464 16.02452318 7 18 C6.278125 17.46375 5.55625 16.9275 4.8125 16.375 C2.08478986 14.6555022 2.08478986 14.6555022 -0.6875 15.75 C-1.450625 16.1625 -2.21375 16.575 -3 17 C-3.66 17.33 -4.32 17.66 -5 18 C-4.7525 16.7625 -4.505 15.525 -4.25 14.25 C-3.90427779 12.07896977 -3.90427779 12.07896977 -4 10 C-5.77154652 7.47409152 -5.77154652 7.47409152 -8 6 C-5.69 6 -3.38 6 -1 6 C-0.67 4.02 -0.34 2.04 0 0 Z " fill="#E9F1F4" transform="translate(137,138)"/>
<path d="M0 0 C1.5 1.3125 1.5 1.3125 3 3 C3 3.99 3 4.98 3 6 C5.31 6 7.62 6 10 6 C9.319375 6.495 8.63875 6.99 7.9375 7.5 C5.80204136 9.74267312 5.80204136 9.74267312 5.95703125 12.046875 C6.22259233 14.04389436 6.60490464 16.02452318 7 18 C6.278125 17.46375 5.55625 16.9275 4.8125 16.375 C2.08478986 14.6555022 2.08478986 14.6555022 -0.6875 15.75 C-1.450625 16.1625 -2.21375 16.575 -3 17 C-3.66 17.33 -4.32 17.66 -5 18 C-4.7525 16.7625 -4.505 15.525 -4.25 14.25 C-3.90427779 12.07896977 -3.90427779 12.07896977 -4 10 C-5.77154652 7.47409152 -5.77154652 7.47409152 -8 6 C-5.69 6 -3.38 6 -1 6 C-0.67 4.02 -0.34 2.04 0 0 Z " fill="#E5EEF2" transform="translate(158,138)"/>
<path d="M0 0 C2 2 2 2 2 6 C4.64 6 7.28 6 10 6 C9.154375 6.886875 8.30875 7.77375 7.4375 8.6875 C5.16914939 11.33719169 5.16914939 11.33719169 5.1875 14.875 C5.455625 15.57625 5.72375 16.2775 6 17 C5.13375 16.4740625 5.13375 16.4740625 4.25 15.9375 C1.58613224 14.8275551 0.66571663 15.05410055 -2 16 C-2.99 16.33 -3.98 16.66 -5 17 C-4.5978125 15.6696875 -4.5978125 15.6696875 -4.1875 14.3125 C-3.60690249 10.79457985 -3.60690249 10.79457985 -6.4375 8.125 C-7.283125 7.42375 -8.12875 6.7225 -9 6 C-6.69 6 -4.38 6 -2 6 C-1.34 4.02 -0.68 2.04 0 0 Z " fill="#E0EBF1" transform="translate(62,119)"/>
<path d="M0 0 C2.35953094 2.35953094 2.49141413 3.77895617 3 7 C5.31 7 7.62 7 10 7 C9.319375 7.495 8.63875 7.99 7.9375 8.5 C5.80204136 10.74267312 5.80204136 10.74267312 5.95703125 13.046875 C6.22259233 15.04389436 6.60490464 17.02452318 7 19 C6.319375 18.46375 5.63875 17.9275 4.9375 17.375 C1.94027673 15.61190014 1.94027673 15.61190014 -1.8125 16.8125 C-2.864375 17.204375 -3.91625 17.59625 -5 18 C-4.34 15.69 -3.68 13.38 -3 11 C-3.639375 10.71125 -4.27875 10.4225 -4.9375 10.125 C-7 9 -7 9 -8 7 C-5.69 7 -3.38 7 -1 7 C-0.67 4.69 -0.34 2.38 0 0 Z " fill="#E4EEF2" transform="translate(137,100)"/>
<path d="M0 0 C0.66 0.33 1.32 0.66 2 1 C2.625 3.0625 2.625 3.0625 3 5 C5.31 5.33 7.62 5.66 10 6 C9.319375 6.495 8.63875 6.99 7.9375 7.5 C5.80204136 9.74267312 5.80204136 9.74267312 5.95703125 12.046875 C6.22259233 14.04389436 6.60490464 16.02452318 7 18 C6.4225 17.67 5.845 17.34 5.25 17 C2.80116138 15.72924102 2.80116138 15.72924102 -1 16 C-3.20067421 16.93283296 -3.20067421 16.93283296 -5 18 C-4.7525 16.9275 -4.505 15.855 -4.25 14.75 C-3.57571378 10.97254504 -3.57571378 10.97254504 -5.9375 8.5625 C-6.618125 8.046875 -7.29875 7.53125 -8 7 C-6.02 6.67 -4.04 6.34 -2 6 C-1.34 4.02 -0.68 2.04 0 0 Z " fill="#E2ECF1" transform="translate(51,61)"/>
<path d="M0 0 C2 3 2 3 2 7 C4.64 7 7.28 7 10 7 C8.71034824 8.37562854 7.37310707 9.70766393 6 11 C5.34 11 4.68 11 4 11 C4.66 13.31 5.32 15.62 6 18 C5.13375 17.4740625 5.13375 17.4740625 4.25 16.9375 C1.58613224 15.8275551 0.66571663 16.05410055 -2 17 C-2.99 17.33 -3.98 17.66 -5 18 C-4.125 13.25 -4.125 13.25 -3 11 C-3.804375 10.71125 -4.60875 10.4225 -5.4375 10.125 C-8 9 -8 9 -9 7 C-6.69 7 -4.38 7 -2 7 C-1.34 4.69 -0.68 2.38 0 0 Z " fill="#E9F1F4" transform="translate(73,137)"/>
<path d="M0 0 C2 2 2 2 2 6 C4.64 6 7.28 6 10 6 C8.71034824 7.37562854 7.37310707 8.70766393 6 10 C5.34 10 4.68 10 4 10 C4.350625 10.598125 4.70125 11.19625 5.0625 11.8125 C6 14 6 14 5 17 C4.01 16.34 3.02 15.68 2 15 C-0.02919843 15.25723969 -0.02919843 15.25723969 -2 16 C-2.99 16.33 -3.98 16.66 -5 17 C-4.9175 15.9275 -4.835 14.855 -4.75 13.75 C-4.63762783 9.95990735 -4.63762783 9.95990735 -7 7.5625 C-7.66 7.046875 -8.32 6.53125 -9 6 C-6.69 6 -4.38 6 -2 6 C-1.34 4.02 -0.68 2.04 0 0 Z " fill="#E4EDF2" transform="translate(116,138)"/>
<path d="M0 0 C1.5 1.3125 1.5 1.3125 3 3 C3 3.99 3 4.98 3 6 C5.31 6 7.62 6 10 6 C9.319375 6.495 8.63875 6.99 7.9375 7.5 C5.80204136 9.74267312 5.80204136 9.74267312 5.95703125 12.046875 C6.22259233 14.04389436 6.60490464 16.02452318 7 18 C6.1646875 17.2265625 6.1646875 17.2265625 5.3125 16.4375 C3.08891765 14.74080807 3.08891765 14.74080807 0.4375 15.1875 C-2.21378289 15.95249269 -2.21378289 15.95249269 -5 18 C-4.7525 16.7625 -4.505 15.525 -4.25 14.25 C-3.90427779 12.07896977 -3.90427779 12.07896977 -4 10 C-5.77154652 7.47409152 -5.77154652 7.47409152 -8 6 C-5.69 6 -3.38 6 -1 6 C-0.67 4.02 -0.34 2.04 0 0 Z " fill="#E5EEF2" transform="translate(158,101)"/>
<path d="M0 0 C0.66 0 1.32 0 2 0 C2.33 1.98 2.66 3.96 3 6 C5.64 6 8.28 6 11 6 C9.71034824 7.37562854 8.37310707 8.70766393 7 10 C6.34 10 5.68 10 5 10 C5.66 12.31 6.32 14.62 7 17 C6.13375 16.4740625 6.13375 16.4740625 5.25 15.9375 C2.58613224 14.8275551 1.66571663 15.05410055 -1 16 C-1.99 16.33 -2.98 16.66 -4 17 C-3.9175 15.9275 -3.835 14.855 -3.75 13.75 C-3.63762783 9.95990735 -3.63762783 9.95990735 -6 7.5625 C-6.66 7.046875 -7.32 6.53125 -8 6 C-5.69 6 -3.38 6 -1 6 C-0.67 4.02 -0.34 2.04 0 0 Z " fill="#E4EEF2" transform="translate(29,101)"/>
<path d="M0 0 C2.1385485 2.1385485 2.42655063 3.13275314 3 6 C5.31 6.33 7.62 6.66 10 7 C8.71034824 8.37562854 7.37310707 9.70766393 6 11 C5.34 11 4.68 11 4 11 C4.515625 11.94875 5.03125 12.8975 5.5625 13.875 C6.036875 14.90625 6.51125 15.9375 7 17 C6.67 17.66 6.34 18.32 6 19 C5.4225 18.484375 4.845 17.96875 4.25 17.4375 C2.14996963 15.76002659 2.14996963 15.76002659 -0.0625 16.25 C-0.701875 16.4975 -1.34125 16.745 -2 17 C-2.99 17.33 -3.98 17.66 -5 18 C-4.125 13.25 -4.125 13.25 -3 11 C-3.639375 10.71125 -4.27875 10.4225 -4.9375 10.125 C-7 9 -7 9 -8 7 C-6.02 7 -4.04 7 -2 7 C-1.34 4.69 -0.68 2.38 0 0 Z " fill="#E8F0F3" transform="translate(201,80)"/>
<path d="M0 0 C0.66 0 1.32 0 2 0 C2.33 1.98 2.66 3.96 3 6 C5.31 6 7.62 6 10 6 C9.319375 6.515625 8.63875 7.03125 7.9375 7.5625 C5.57571378 9.97254504 5.57571378 9.97254504 6.25 13.75 C6.4975 14.8225 6.745 15.895 7 17 C6.1646875 16.4740625 6.1646875 16.4740625 5.3125 15.9375 C2.40114837 14.75722231 0.97006011 15.08613535 -2 16 C-2.99 16.66 -3.98 17.32 -5 18 C-4.7525 16.7625 -4.505 15.525 -4.25 14.25 C-3.90427779 12.07896977 -3.90427779 12.07896977 -4 10 C-5.77154652 7.47409152 -5.77154652 7.47409152 -8 6 C-5.69 6 -3.38 6 -1 6 C-0.67 4.02 -0.34 2.04 0 0 Z " fill="#E4EEF2" transform="translate(179,81)"/>
<path d="M0 0 C0.66 0.33 1.32 0.66 2 1 C2.625 4.0625 2.625 4.0625 3 7 C5.31 7 7.62 7 10 7 C9.319375 7.495 8.63875 7.99 7.9375 8.5 C5.80204136 10.74267312 5.80204136 10.74267312 5.95703125 13.046875 C6.22259233 15.04389436 6.60490464 17.02452318 7 19 C6.2575 18.484375 5.515 17.96875 4.75 17.4375 C2.19442417 15.75892038 2.19442417 15.75892038 -0.125 16.3125 C-1.053125 16.6528125 -1.053125 16.6528125 -2 17 C-2.99 17 -3.98 17 -5 17 C-4.62875 15.63875 -4.62875 15.63875 -4.25 14.25 C-3.61740673 10.91162152 -3.61740673 10.91162152 -5.9375 8.625 C-6.618125 8.08875 -7.29875 7.5525 -8 7 C-5.69 7 -3.38 7 -1 7 C-0.67 4.69 -0.34 2.38 0 0 Z " fill="#E9F1F3" transform="translate(137,80)"/>
<path d="M0 0 C2.1385485 2.1385485 2.42655063 3.13275314 3 6 C5.31 6.33 7.62 6.66 10 7 C8.71034824 8.37562854 7.37310707 9.70766393 6 11 C5.34 11 4.68 11 4 11 C4.350625 11.598125 4.70125 12.19625 5.0625 12.8125 C6 15 6 15 5 18 C4.01 17.34 3.02 16.68 2 16 C-0.02919843 16.25723969 -0.02919843 16.25723969 -2 17 C-2.99 17.33 -3.98 17.66 -5 18 C-4.125 13.25 -4.125 13.25 -3 11 C-3.804375 10.71125 -4.60875 10.4225 -5.4375 10.125 C-8 9 -8 9 -9 7 C-6.69 7 -4.38 7 -2 7 C-1.34 4.69 -0.68 2.38 0 0 Z " fill="#E4EEF2" transform="translate(73,80)"/>
<path d="M0 0 C2 2 2 2 2 6 C4.64 6 7.28 6 10 6 C8.700625 7.299375 8.700625 7.299375 7.375 8.625 C5.94202193 10.20622449 5.94202193 10.20622449 5 12 C5.52841069 15.34084905 5.52841069 15.34084905 7 18 C6.401875 17.690625 5.80375 17.38125 5.1875 17.0625 C2.91043228 15.89790296 2.91043228 15.89790296 0 15 C-2.67676547 16.37249963 -2.67676547 16.37249963 -5 18 C-4.7525 16.9275 -4.505 15.855 -4.25 14.75 C-3.57571378 10.97254504 -3.57571378 10.97254504 -5.9375 8.5625 C-6.618125 8.046875 -7.29875 7.53125 -8 7 C-6.02 7 -4.04 7 -2 7 C-1.855625 6.21625 -1.71125 5.4325 -1.5625 4.625 C-1 2 -1 2 0 0 Z " fill="#E3EDF2" transform="translate(73,61)"/>
<path d="M0 0 C0.66 0 1.32 0 2 0 C2.33 1.98 2.66 3.96 3 6 C5.31 6 7.62 6 10 6 C8.625 8 8.625 8 7 10 C6.34 10 5.68 10 5 10 C5.66 12.31 6.32 14.62 7 17 C6.1646875 16.4740625 6.1646875 16.4740625 5.3125 15.9375 C2.42840819 14.76827359 0.94809235 15.14660484 -2 16 C-2.66 16.33 -3.32 16.66 -4 17 C-3.9175 15.9275 -3.835 14.855 -3.75 13.75 C-3.63762783 9.95990735 -3.63762783 9.95990735 -6 7.5625 C-6.66 7.046875 -7.32 6.53125 -8 6 C-5.69 6 -3.38 6 -1 6 C-0.67 4.02 -0.34 2.04 0 0 Z " fill="#E6EFF2" transform="translate(29,138)"/>
<path d="M0 0 C0.66 0 1.32 0 2 0 C2.33 1.98 2.66 3.96 3 6 C5.31 6 7.62 6 10 6 C8.625 8 8.625 8 7 10 C6.34 10 5.68 10 5 10 C5.66 12.31 6.32 14.62 7 17 C6.1646875 16.4740625 6.1646875 16.4740625 5.3125 15.9375 C2.42840819 14.76827359 0.94809235 15.14660484 -2 16 C-2.66 16.33 -3.32 16.66 -4 17 C-3.9175 15.9275 -3.835 14.855 -3.75 13.75 C-3.63762783 9.95990735 -3.63762783 9.95990735 -6 7.5625 C-6.66 7.046875 -7.32 6.53125 -8 6 C-5.69 6 -3.38 6 -1 6 C-0.67 4.02 -0.34 2.04 0 0 Z " fill="#E6EFF2" transform="translate(179,101)"/>
<path d="M0 0 C2 2 2 2 2 6 C4.64 6 7.28 6 10 6 C8.700625 7.299375 8.700625 7.299375 7.375 8.625 C5.94202193 10.20622449 5.94202193 10.20622449 5 12 C5.52841069 15.34084905 5.52841069 15.34084905 7 18 C6.401875 17.690625 5.80375 17.38125 5.1875 17.0625 C2.91043228 15.89790296 2.91043228 15.89790296 0 15 C-2.67676547 16.37249963 -2.67676547 16.37249963 -5 18 C-4.7525 16.9275 -4.505 15.855 -4.25 14.75 C-3.57571378 10.97254504 -3.57571378 10.97254504 -5.9375 8.5625 C-6.618125 8.046875 -7.29875 7.53125 -8 7 C-6.02 7 -4.04 7 -2 7 C-1.34 4.69 -0.68 2.38 0 0 Z " fill="#E3EEF2" transform="translate(201,61)"/>
<path d="M0 0 C2 3 2 3 2 6 C4.64 6 7.28 6 10 6 C9.154375 6.680625 8.30875 7.36125 7.4375 8.0625 C4.5625 10.85416667 4.5625 10.85416667 5.1875 14.8125 C5.455625 15.864375 5.72375 16.91625 6 18 C5.29875 17.46375 4.5975 16.9275 3.875 16.375 C1.00303974 14.62820892 1.00303974 14.62820892 -2.3125 15.8125 C-3.199375 16.204375 -4.08625 16.59625 -5 17 C-4.67 14.69 -4.34 12.38 -4 10 C-5.32 9.34 -6.64 8.68 -8 8 C-8 7.67 -8 7.34 -8 7 C-6.02 7 -4.04 7 -2 7 C-1.855625 6.030625 -1.71125 5.06125 -1.5625 4.0625 C-1 1 -1 1 0 0 Z " fill="#E9F1F4" transform="translate(30,61)"/>
<path d="M0 0 C0.66 0 1.32 0 2 0 C2.33 1.98 2.66 3.96 3 6 C5.31 6 7.62 6 10 6 C8.625 8 8.625 8 7 10 C6.34 10 5.68 10 5 10 C5.66 12.64 6.32 15.28 7 18 C6.278125 17.46375 5.55625 16.9275 4.8125 16.375 C2.08478986 14.6555022 2.08478986 14.6555022 -0.6875 15.75 C-1.450625 16.1625 -2.21375 16.575 -3 17 C-3.66 17.33 -4.32 17.66 -5 18 C-4.34 15.36 -3.68 12.72 -3 10 C-4.32 9.34 -5.64 8.68 -7 8 C-7 7.67 -7 7.34 -7 7 C-5.35 6.67 -3.7 6.34 -2 6 C-1.34 4.02 -0.68 2.04 0 0 Z " fill="#E6F0F3" transform="translate(40,119)"/>
<path d="M0 0 C1.5 1.3125 1.5 1.3125 3 3 C3 3.99 3 4.98 3 6 C5.31 6 7.62 6 10 6 C9.319375 6.515625 8.63875 7.03125 7.9375 7.5625 C5.57571378 9.97254504 5.57571378 9.97254504 6.25 13.75 C6.4975 14.8225 6.745 15.895 7 17 C6.1646875 16.4740625 6.1646875 16.4740625 5.3125 15.9375 C2.42802833 14.76811959 0.96830334 15.23889658 -2 16 C-2.99 16 -3.98 16 -5 16 C-4.7525 15.0925 -4.505 14.185 -4.25 13.25 C-3.61740673 9.91162152 -3.61740673 9.91162152 -5.9375 7.625 C-6.618125 7.08875 -7.29875 6.5525 -8 6 C-5.69 6 -3.38 6 -1 6 C-0.67 4.02 -0.34 2.04 0 0 Z " fill="#E7EFF3" transform="translate(158,81)"/>
<path d="M0 0 C0.66 0 1.32 0 2 0 C2.33 1.98 2.66 3.96 3 6 C5.31 6 7.62 6 10 6 C8.625 8 8.625 8 7 10 C6.34 10 5.68 10 5 10 C5.66 12.64 6.32 15.28 7 18 C6.278125 17.46375 5.55625 16.9275 4.8125 16.375 C2.08478986 14.6555022 2.08478986 14.6555022 -0.6875 15.75 C-1.450625 16.1625 -2.21375 16.575 -3 17 C-3.66 17.33 -4.32 17.66 -5 18 C-4.34 15.36 -3.68 12.72 -3 10 C-4.32 9.34 -5.64 8.68 -7 8 C-7 7.67 -7 7.34 -7 7 C-5.02 7 -3.04 7 -1 7 C-0.67 4.69 -0.34 2.38 0 0 Z " fill="#EDF3F6" transform="translate(105,119)"/>
<path d="M0 0 C2 3 2 3 2 6 C4.31 6 6.62 6 9 6 C7.625 8 7.625 8 6 10 C5.34 10 4.68 10 4 10 C4.66 12.31 5.32 14.62 6 17 C5.13375 16.4740625 5.13375 16.4740625 4.25 15.9375 C1.58613224 14.8275551 0.66571663 15.05410055 -2 16 C-2.99 16.33 -3.98 16.66 -5 17 C-4.9175 15.9275 -4.835 14.855 -4.75 13.75 C-4.63762783 9.95990735 -4.63762783 9.95990735 -7 7.5625 C-7.66 7.046875 -8.32 6.53125 -9 6 C-6.69 6 -4.38 6 -2 6 C-1.34 4.02 -0.68 2.04 0 0 Z " fill="#E8F0F3" transform="translate(95,101)"/>
<path d="M0 0 C2 3 2 3 2 7 C4.31 7 6.62 7 9 7 C7.625 9 7.625 9 6 11 C5.34 11 4.68 11 4 11 C4.350625 11.598125 4.70125 12.19625 5.0625 12.8125 C6 15 6 15 5 18 C4.01 17.34 3.02 16.68 2 16 C-0.63434254 16.32126128 -2.62710097 16.81355048 -5 18 C-4.125 13.25 -4.125 13.25 -3 11 C-3.804375 10.71125 -4.60875 10.4225 -5.4375 10.125 C-8 9 -8 9 -9 7 C-6.69 7 -4.38 7 -2 7 C-1.34 4.69 -0.68 2.38 0 0 Z " fill="#E9F1F4" transform="translate(116,80)"/>
<path d="M0 0 C0.66 0 1.32 0 2 0 C2.33 1.98 2.66 3.96 3 6 C5.31 6 7.62 6 10 6 C9.319375 6.515625 8.63875 7.03125 7.9375 7.5625 C5.57571378 9.97254504 5.57571378 9.97254504 6.25 13.75 C6.4975 14.8225 6.745 15.895 7 17 C6.1646875 16.4740625 6.1646875 16.4740625 5.3125 15.9375 C2.42840819 14.76827359 0.94809235 15.14660484 -2 16 C-2.66 16.33 -3.32 16.66 -4 17 C-3.9175 15.9275 -3.835 14.855 -3.75 13.75 C-3.63762783 9.95990735 -3.63762783 9.95990735 -6 7.5625 C-6.66 7.046875 -7.32 6.53125 -8 6 C-5.69 6 -3.38 6 -1 6 C-0.67 4.02 -0.34 2.04 0 0 Z " fill="#E8F1F4" transform="translate(29,81)"/>
<path d="M0 0 C2 3 2 3 2 6 C4.31 6 6.62 6 9 6 C7.625 8 7.625 8 6 10 C5.34 10 4.68 10 4 10 C4.66 12.31 5.32 14.62 6 17 C5.1646875 16.4740625 5.1646875 16.4740625 4.3125 15.9375 C1.42840819 14.76827359 -0.05190765 15.14660484 -3 16 C-3.66 16.33 -4.32 16.66 -5 17 C-4.9175 15.9275 -4.835 14.855 -4.75 13.75 C-4.63762783 9.95990735 -4.63762783 9.95990735 -7 7.5625 C-7.66 7.046875 -8.32 6.53125 -9 6 C-6.69 6 -4.38 6 -2 6 C-1.34 4.02 -0.68 2.04 0 0 Z " fill="#E9F1F3" transform="translate(95,138)"/>
<path d="M0 0 C0.66 0.33 1.32 0.66 2 1 C2.625 3.5625 2.625 3.5625 3 6 C5.31 6 7.62 6 10 6 C8.625 8 8.625 8 7 10 C6.34 10 5.68 10 5 10 C5.66 12.64 6.32 15.28 7 18 C6.278125 17.46375 5.55625 16.9275 4.8125 16.375 C2.08478986 14.6555022 2.08478986 14.6555022 -0.6875 15.75 C-1.450625 16.1625 -2.21375 16.575 -3 17 C-3.66 17.33 -4.32 17.66 -5 18 C-4.34 15.36 -3.68 12.72 -3 10 C-4.32 9.34 -5.64 8.68 -7 8 C-7 7.67 -7 7.34 -7 7 C-5.35 6.67 -3.7 6.34 -2 6 C-1.34 4.02 -0.68 2.04 0 0 Z " fill="#E9F1F4" transform="translate(190,119)"/>
<path d="M0 0 C2 2 2 2 3 5 C5.31 5.33 7.62 5.66 10 6 C9.319375 6.495 8.63875 6.99 7.9375 7.5 C5.80204136 9.74267312 5.80204136 9.74267312 5.95703125 12.046875 C6.22259233 14.04389436 6.60490464 16.02452318 7 18 C6.278125 17.46375 5.55625 16.9275 4.8125 16.375 C2.08478986 14.6555022 2.08478986 14.6555022 -0.6875 15.75 C-1.450625 16.1625 -2.21375 16.575 -3 17 C-3.66 17.33 -4.32 17.66 -5 18 C-4.47731534 15.23723823 -3.89130413 12.6739124 -3 10 C-4.32 9.34 -5.64 8.68 -7 8 C-7 7.67 -7 7.34 -7 7 C-5.35 7 -3.7 7 -2 7 C-1.34 4.69 -0.68 2.38 0 0 Z " fill="#E8F1F4" transform="translate(169,119)"/>
<path d="M0 0 C0.66 0 1.32 0 2 0 C2.33 1.98 2.66 3.96 3 6 C5.64 6 8.28 6 11 6 C9.71034824 7.37562854 8.37310707 8.70766393 7 10 C6.34 10 5.68 10 5 10 C5.66 12.64 6.32 15.28 7 18 C6.29875 17.46375 5.5975 16.9275 4.875 16.375 C2.00303974 14.62820892 2.00303974 14.62820892 -1.3125 15.8125 C-2.199375 16.204375 -3.08625 16.59625 -4 17 C-3.9071875 15.3603125 -3.9071875 15.3603125 -3.8125 13.6875 C-3.64402086 10.07873917 -3.64402086 10.07873917 -5.5 8.0625 C-5.995 7.711875 -6.49 7.36125 -7 7 C-5.02 7 -3.04 7 -1 7 C-0.67 4.69 -0.34 2.38 0 0 Z " fill="#E4EEF2" transform="translate(126,119)"/>
<path d="M0 0 C2 3 2 3 2 6 C4.31 6 6.62 6 9 6 C7.625 8 7.625 8 6 10 C5.34 10 4.68 10 4 10 C4.66 12.31 5.32 14.62 6 17 C5.1646875 16.4740625 5.1646875 16.4740625 4.3125 15.9375 C1.42840819 14.76827359 -0.05190765 15.14660484 -3 16 C-3.66 16.33 -4.32 16.66 -5 17 C-4.9175 15.9275 -4.835 14.855 -4.75 13.75 C-4.63762783 9.95990735 -4.63762783 9.95990735 -7 7.5625 C-7.66 7.046875 -8.32 6.53125 -9 6 C-6.69 6 -4.38 6 -2 6 C-1.34 4.02 -0.68 2.04 0 0 Z " fill="#ECF3F5" transform="translate(95,81)"/>
<path d="M0 0 C2 3 2 3 2 6 C4.64 6 7.28 6 10 6 C9.154375 6.886875 8.30875 7.77375 7.4375 8.6875 C5.16914939 11.33719169 5.16914939 11.33719169 5.1875 14.875 C5.455625 15.57625 5.72375 16.2775 6 17 C5.113125 16.62875 4.22625 16.2575 3.3125 15.875 C-0.40826005 14.89215772 -1.67438135 15.23937836 -5 17 C-4.62875 15.63875 -4.62875 15.63875 -4.25 14.25 C-3.61740673 10.91162152 -3.61740673 10.91162152 -5.9375 8.625 C-6.618125 8.08875 -7.29875 7.5525 -8 7 C-6.02 7 -4.04 7 -2 7 C-1.34 4.69 -0.68 2.38 0 0 Z " fill="#ECF3F5" transform="translate(116,61)"/>
<path d="M0 0 C2.35953094 2.35953094 2.49141413 3.77895617 3 7 C4.98 7 6.96 7 9 7 C8.484375 7.515625 7.96875 8.03125 7.4375 8.5625 C5.42734299 11.9710271 6.20272604 14.23106857 7 18 C6.195625 17.4740625 6.195625 17.4740625 5.375 16.9375 C2.2365758 15.69864834 0.23787556 16.22572541 -3 17 C-3.66 17.33 -4.32 17.66 -5 18 C-4.7525 16.9275 -4.505 15.855 -4.25 14.75 C-3.57571378 10.97254504 -3.57571378 10.97254504 -5.9375 8.5625 C-6.618125 8.046875 -7.29875 7.53125 -8 7 C-6.02 6.67 -4.04 6.34 -2 6 C-1.34 4.02 -0.68 2.04 0 0 Z " fill="#E7F0F3" transform="translate(39,40)"/>
<path d="M0 0 C0.66 0.33 1.32 0.66 2 1 C2.625 3.5625 2.625 3.5625 3 6 C5.31 6 7.62 6 10 6 C9.319375 6.515625 8.63875 7.03125 7.9375 7.5625 C5.57571378 9.97254504 5.57571378 9.97254504 6.25 13.75 C6.4975 14.8225 6.745 15.895 7 17 C6.1646875 16.4740625 6.1646875 16.4740625 5.3125 15.9375 C1.55681863 14.41492647 -1.2832512 15.76108373 -5 17 C-4.7525 15.9275 -4.505 14.855 -4.25 13.75 C-3.57571378 9.97254504 -3.57571378 9.97254504 -5.9375 7.5625 C-6.618125 7.046875 -7.29875 6.53125 -8 6 C-6.576875 5.9071875 -6.576875 5.9071875 -5.125 5.8125 C-4.09375 5.544375 -3.0625 5.27625 -2 5 C-0.54708727 2.53744315 -0.54708727 2.53744315 0 0 Z " fill="#EBF3F5" transform="translate(82,41)"/>
<path d="M0 0 C0.66 0.33 1.32 0.66 2 1 C2.625 4.0625 2.625 4.0625 3 7 C4.98 7 6.96 7 9 7 C8.484375 7.515625 7.96875 8.03125 7.4375 8.5625 C5.42734299 11.9710271 6.20272604 14.23106857 7 18 C6.4225 17.67 5.845 17.34 5.25 17 C2.80116138 15.72924102 2.80116138 15.72924102 -1 16 C-3.20067421 16.93283296 -3.20067421 16.93283296 -5 18 C-4.7525 16.9275 -4.505 15.855 -4.25 14.75 C-3.57571378 10.97254504 -3.57571378 10.97254504 -5.9375 8.5625 C-6.618125 8.046875 -7.29875 7.53125 -8 7 C-6.02 6.67 -4.04 6.34 -2 6 C-1.34 4.02 -0.68 2.04 0 0 Z " fill="#ECF3F5" transform="translate(125,40)"/>
<path d="M0 0 C2.35953094 2.35953094 2.49141413 3.77895617 3 7 C4.98 7 6.96 7 9 7 C8.484375 7.515625 7.96875 8.03125 7.4375 8.5625 C5.42734299 11.9710271 6.20272604 14.23106857 7 18 C6.195625 17.4740625 6.195625 17.4740625 5.375 16.9375 C2.2365758 15.69864834 0.23787556 16.22572541 -3 17 C-3.66 17.33 -4.32 17.66 -5 18 C-4.7525 16.9275 -4.505 15.855 -4.25 14.75 C-3.57571378 10.97254504 -3.57571378 10.97254504 -5.9375 8.5625 C-6.618125 8.046875 -7.29875 7.53125 -8 7 C-6.02 6.67 -4.04 6.34 -2 6 C-1.34 4.02 -0.68 2.04 0 0 Z " fill="#E8F1F3" transform="translate(104,40)"/>
<path d="M0 0 C0.66 0 1.32 0 2 0 C2.33 2.31 2.66 4.62 3 7 C5.31 7 7.62 7 10 7 C9.319375 7.515625 8.63875 8.03125 7.9375 8.5625 C5.57571378 10.97254504 5.57571378 10.97254504 6.25 14.75 C6.4975 15.8225 6.745 16.895 7 18 C5.02 17.01 3.04 16.02 1 15 C-0.32 15.99 -1.64 16.98 -3 18 C-3.66 17.67 -4.32 17.34 -5 17 C-4.62875 15.63875 -4.62875 15.63875 -4.25 14.25 C-3.61740673 10.91162152 -3.61740673 10.91162152 -5.9375 8.625 C-6.618125 8.08875 -7.29875 7.5525 -8 7 C-5.69 7 -3.38 7 -1 7 C-0.67 4.69 -0.34 2.38 0 0 Z " fill="#EBF3F5" transform="translate(60,40)"/>
<path d="M0 0 C2 3 2 3 2 7 C4.31 7 6.62 7 9 7 C8.319375 7.515625 7.63875 8.03125 6.9375 8.5625 C4.57571378 10.97254504 4.57571378 10.97254504 5.25 14.75 C5.4975 15.8225 5.745 16.895 6 18 C4.02 17.01 2.04 16.02 0 15 C-1.32 15.99 -2.64 16.98 -4 18 C-4.66 17.67 -5.32 17.34 -6 17 C-5.6596875 15.63875 -5.6596875 15.63875 -5.3125 14.25 C-4.67394455 11.00496499 -4.67394455 11.00496499 -6.4375 8.625 C-6.953125 8.08875 -7.46875 7.5525 -8 7 C-6.02 7 -4.04 7 -2 7 C-1.855625 6.030625 -1.71125 5.06125 -1.5625 4.0625 C-1 1 -1 1 0 0 Z " fill="#E8F1F4" transform="translate(147,40)"/>
<path d="M0 0 C2.1385485 2.1385485 2.42655063 3.13275314 3 6 C5.97 6.495 5.97 6.495 9 7 C8.29875 7.70125 7.5975 8.4025 6.875 9.125 C6.25625 10.07375 5.6375 11.0225 5 12 C5.62036318 15.28104472 5.62036318 15.28104472 7 18 C6.401875 17.690625 5.80375 17.38125 5.1875 17.0625 C2.91043228 15.89790296 2.91043228 15.89790296 0 15 C-2.67676547 16.37249963 -2.67676547 16.37249963 -5 18 C-4.7525 16.9275 -4.505 15.855 -4.25 14.75 C-3.57571378 10.97254504 -3.57571378 10.97254504 -5.9375 8.5625 C-6.618125 8.046875 -7.29875 7.53125 -8 7 C-6.02 7 -4.04 7 -2 7 C-1.34 4.69 -0.68 2.38 0 0 Z " fill="#E6F0F3" transform="translate(201,21)"/>
<path d="M0 0 C2 3 2 3 2 7 C3.98 7 5.96 7 8 7 C8 7.66 8 8.32 8 9 C7.01 9.66 6.02 10.32 5 11 C5.33 13.31 5.66 15.62 6 18 C4.02 17.01 2.04 16.02 0 15 C-1.32 15.99 -2.64 16.98 -4 18 C-4.66 17.67 -5.32 17.34 -6 17 C-5.34 14.69 -4.68 12.38 -4 10 C-5.32 9.34 -6.64 8.68 -8 8 C-8 7.67 -8 7.34 -8 7 C-6.02 7 -4.04 7 -2 7 C-1.855625 6.030625 -1.71125 5.06125 -1.5625 4.0625 C-1 1 -1 1 0 0 Z " fill="#EBF3F5" transform="translate(95,21)"/>
<path d="M0 0 C0.66 0 1.32 0 2 0 C2.33 2.31 2.66 4.62 3 7 C4.98 7 6.96 7 9 7 C8.484375 7.515625 7.96875 8.03125 7.4375 8.5625 C5.42734299 11.9710271 6.20272604 14.23106857 7 18 C6.278125 17.46375 5.55625 16.9275 4.8125 16.375 C2.08478986 14.6555022 2.08478986 14.6555022 -0.6875 15.75 C-1.450625 16.1625 -2.21375 16.575 -3 17 C-3.66 17.33 -4.32 17.66 -5 18 C-4.773125 16.9275 -4.54625 15.855 -4.3125 14.75 C-3.64224175 11.07021424 -3.64224175 11.07021424 -5.4375 8.5625 C-5.953125 8.046875 -6.46875 7.53125 -7 7 C-5.02 7 -3.04 7 -1 7 C-0.67 4.69 -0.34 2.38 0 0 Z " fill="#E7F0F3" transform="translate(158,21)"/>
<path d="M0 0 C2.35953094 2.35953094 2.49141413 3.77895617 3 7 C4.98 7 6.96 7 9 7 C8.01 8.485 8.01 8.485 7 10 C6.34 10 5.68 10 5 10 C5.66 12.64 6.32 15.28 7 18 C6.4225 17.67 5.845 17.34 5.25 17 C2.80116138 15.72924102 2.80116138 15.72924102 -1 16 C-3.20067421 16.93283296 -3.20067421 16.93283296 -5 18 C-4.7525 16.9275 -4.505 15.855 -4.25 14.75 C-3.57571378 10.97254504 -3.57571378 10.97254504 -5.9375 8.5625 C-6.618125 8.046875 -7.29875 7.53125 -8 7 C-6.02 6.67 -4.04 6.34 -2 6 C-1.34 4.02 -0.68 2.04 0 0 Z " fill="#E8F0F3" transform="translate(51,21)"/>
<path d="M0 0 C2 3 2 3 3 6 C5.97 6.495 5.97 6.495 9 7 C8.319375 7.515625 7.63875 8.03125 6.9375 8.5625 C4.57571378 10.97254504 4.57571378 10.97254504 5.25 14.75 C5.4975 15.8225 5.745 16.895 6 18 C4.02 17.01 2.04 16.02 0 15 C-1.32 15.99 -2.64 16.98 -4 18 C-4.66 17.67 -5.32 17.34 -6 17 C-5.34 15.02 -4.68 13.04 -4 11 C-5.32 9.68 -6.64 8.36 -8 7 C-6.02 7 -4.04 7 -2 7 C-1.34 4.69 -0.68 2.38 0 0 Z " fill="#E7F0F3" transform="translate(116,21)"/>
<path d="M0 0 C2.1385485 2.1385485 2.42655063 3.13275314 3 6 C5.97 6.495 5.97 6.495 9 7 C8.29875 7.70125 7.5975 8.4025 6.875 9.125 C6.25625 10.07375 5.6375 11.0225 5 12 C5.62036318 15.28104472 5.62036318 15.28104472 7 18 C6.401875 17.690625 5.80375 17.38125 5.1875 17.0625 C2.91043228 15.89790296 2.91043228 15.89790296 0 15 C-2.67676547 16.37249963 -2.67676547 16.37249963 -5 18 C-4.7525 16.9275 -4.505 15.855 -4.25 14.75 C-3.57571378 10.97254504 -3.57571378 10.97254504 -5.9375 8.5625 C-6.618125 8.046875 -7.29875 7.53125 -8 7 C-6.02 7 -4.04 7 -2 7 C-1.855625 6.21625 -1.71125 5.4325 -1.5625 4.625 C-1 2 -1 2 0 0 Z " fill="#E7F0F3" transform="translate(73,21)"/>
<path d="M0 0 C0.66 0 1.32 0 2 0 C2.33 2.31 2.66 4.62 3 7 C4.98 7 6.96 7 9 7 C8.484375 7.515625 7.96875 8.03125 7.4375 8.5625 C5.42734299 11.9710271 6.20272604 14.23106857 7 18 C6.2575 17.46375 5.515 16.9275 4.75 16.375 C3.8425 15.92125 2.935 15.4675 2 15 C-0.15017528 15.74172877 -0.15017528 15.74172877 -2 17 C-2.99 17 -3.98 17 -5 17 C-4.34 14.69 -3.68 12.38 -3 10 C-4.32 9.34 -5.64 8.68 -7 8 C-7 7.67 -7 7.34 -7 7 C-5.02 7 -3.04 7 -1 7 C-0.67 4.69 -0.34 2.38 0 0 Z " fill="#E9F1F4" transform="translate(179,21)"/>
<path d="M0 0 C2 3 2 3 2 7 C4.31 7 6.62 7 9 7 C8.319375 7.515625 7.63875 8.03125 6.9375 8.5625 C4.57571378 10.97254504 4.57571378 10.97254504 5.25 14.75 C5.4975 15.8225 5.745 16.895 6 18 C5.113125 17.443125 4.22625 16.88625 3.3125 16.3125 C1.6728125 15.6628125 1.6728125 15.6628125 0 15 C-2.87391821 16.17274994 -2.87391821 16.17274994 -5 18 C-4.67 15.36 -4.34 12.72 -4 10 C-5.32 9.34 -6.64 8.68 -8 8 C-8 7.67 -8 7.34 -8 7 C-6.02 7 -4.04 7 -2 7 C-1.855625 6.21625 -1.71125 5.4325 -1.5625 4.625 C-1 2 -1 2 0 0 Z " fill="#E9F1F4" transform="translate(168,40)"/>
<path d="M0 0 C2 3 2 3 2 7 C3.98 7 5.96 7 8 7 C8 7.66 8 8.32 8 9 C7.01 9.66 6.02 10.32 5 11 C5.33 13.31 5.66 15.62 6 18 C4.02 17.01 2.04 16.02 0 15 C-1.32 15.99 -2.64 16.98 -4 18 C-4.66 17.67 -5.32 17.34 -6 17 C-5.34 14.69 -4.68 12.38 -4 10 C-5.32 9.34 -6.64 8.68 -8 8 C-8 7.67 -8 7.34 -8 7 C-6.02 7 -4.04 7 -2 7 C-1.855625 6.030625 -1.71125 5.06125 -1.5625 4.0625 C-1 1 -1 1 0 0 Z " fill="#F8FBF9" transform="translate(30,21)"/>
<path d="M0 0 C0.66 0.33 1.32 0.66 2 1 C2.625 4.0625 2.625 4.0625 3 7 C4.98 7 6.96 7 9 7 C8.484375 7.515625 7.96875 8.03125 7.4375 8.5625 C5.42734299 11.9710271 6.20272604 14.23106857 7 18 C6.278125 17.46375 5.55625 16.9275 4.8125 16.375 C2.08478986 14.6555022 2.08478986 14.6555022 -0.6875 15.75 C-1.450625 16.1625 -2.21375 16.575 -3 17 C-3.66 17.33 -4.32 17.66 -5 18 C-4.773125 16.9275 -4.54625 15.855 -4.3125 14.75 C-3.64224175 11.07021424 -3.64224175 11.07021424 -5.4375 8.5625 C-5.953125 8.046875 -6.46875 7.53125 -7 7 C-5.35 6.67 -3.7 6.34 -2 6 C-1.34 4.02 -0.68 2.04 0 0 Z " fill="#E8F1F4" transform="translate(137,21)"/>
<path d="M0 0 C2 2 2 2 3 5 C5.31 5.33 7.62 5.66 10 6 C9.154375 6.886875 8.30875 7.77375 7.4375 8.6875 C5.16914939 11.33719169 5.16914939 11.33719169 5.1875 14.875 C5.455625 15.57625 5.72375 16.2775 6 17 C5.13375 16.4740625 5.13375 16.4740625 4.25 15.9375 C1.58613224 14.8275551 0.66571663 15.05410055 -2 16 C-2.99 16.33 -3.98 16.66 -5 17 C-4.34 14.69 -3.68 12.38 -3 10 C-4.32 9.34 -5.64 8.68 -7 8 C-7 7.67 -7 7.34 -7 7 C-5.35 7 -3.7 7 -2 7 C-1.34 4.69 -0.68 2.38 0 0 Z " fill="#EEF5F6" transform="translate(148,119)"/>
<path d="M0 0 C2.1385485 2.1385485 2.42655063 3.13275314 3 6 C5.97 6.495 5.97 6.495 9 7 C8.319375 7.515625 7.63875 8.03125 6.9375 8.5625 C4.57571378 10.97254504 4.57571378 10.97254504 5.25 14.75 C5.4975 15.8225 5.745 16.895 6 18 C5.113125 17.443125 4.22625 16.88625 3.3125 16.3125 C1.6728125 15.6628125 1.6728125 15.6628125 0 15 C-2.87391821 16.17274994 -2.87391821 16.17274994 -5 18 C-4.7525 16.9275 -4.505 15.855 -4.25 14.75 C-3.57571378 10.97254504 -3.57571378 10.97254504 -5.9375 8.5625 C-6.618125 8.046875 -7.29875 7.53125 -8 7 C-6.02 7 -4.04 7 -2 7 C-1.34 4.69 -0.68 2.38 0 0 Z " fill="#EBF3F5" transform="translate(189,40)"/>
<path d="M0 0 C0 1.65 0 3.3 0 5 C-3.01031744 5.93423645 -3.86650268 6.04449911 -7 5 C-7 4.34 -7 3.68 -7 3 C-7.99 2.67 -8.98 2.34 -10 2 C-10 1.34 -10 0.68 -10 0 C-6.30458414 -0.95024979 -3.69541586 -0.95024979 0 0 Z " fill="#F7FAF9" transform="translate(55,88)"/>
<path d="M0 0 C2.31 0 4.62 0 7 0 C6.319375 0.495 5.63875 0.99 4.9375 1.5 C2.80204136 3.74267312 2.80204136 3.74267312 2.95703125 6.046875 C3.22259233 8.04389436 3.60490464 10.02452318 4 12 C0.535 10.02 0.535 10.02 -3 8 C-1.68 7.34 -0.36 6.68 1 6 C0.67 4.02 0.34 2.04 0 0 Z " fill="#DAE7EE" transform="translate(140,87)"/>
<path d="M0 0 C0.66 0.33 1.32 0.66 2 1 C2.40729228 3.32156597 2.74438677 5.6568787 3 8 C1.02 7.01 -0.96 6.02 -3 5 C-4.32 5.99 -5.64 6.98 -7 8 C-7.66 7.67 -8.32 7.34 -9 7 C-8.34 5.02 -7.68 3.04 -7 1 C-4.69 1.66 -2.38 2.32 0 3 C0 2.01 0 1.02 0 0 Z " fill="#D6E5ED" transform="translate(33,31)"/>
<path d="M0 0 C2.31 0 4.62 0 7 0 C6.319375 0.495 5.63875 0.99 4.9375 1.5 C2.80204136 3.74267312 2.80204136 3.74267312 2.95703125 6.046875 C3.22259233 8.04389436 3.60490464 10.02452318 4 12 C2.35 11.01 0.7 10.02 -1 9 C-0.34 8.67 0.32 8.34 1 8 C0.67 5.36 0.34 2.72 0 0 Z " fill="#CEE1EC" transform="translate(204,107)"/>
<path d="M0 0 C2 3 2 3 1.625 5.1875 C1.41875 5.785625 1.2125 6.38375 1 7 C-0.65 7.33 -2.3 7.66 -4 8 C-4 8.66 -4 9.32 -4 10 C-5.32 9.34 -6.64 8.68 -8 8 C-8 7.67 -8 7.34 -8 7 C-6.02 7 -4.04 7 -2 7 C-1.855625 6.030625 -1.71125 5.06125 -1.5625 4.0625 C-1 1 -1 1 0 0 Z " fill="#E2EDF1" transform="translate(30,21)"/>
<path d="M0 0 C2 3 2 3 2 7 C4.64 7 7.28 7 10 7 C9.34 7.66 8.68 8.32 8 9 C4.46782421 8.67889311 1.36550494 8.12183498 -2 7 C-1.34 4.69 -0.68 2.38 0 0 Z " fill="#D1E2EC" transform="translate(73,137)"/>
<path d="M0 0 C1.9451 2.91765 2.45276317 4.62537285 3 8 C2.236875 7.505 1.47375 7.01 0.6875 6.5 C-1.92363751 4.75631692 -1.92363751 4.75631692 -5 5 C-5 4.01 -5 3.02 -5 2 C-3.35 2 -1.7 2 0 2 C0 1.34 0 0.68 0 0 Z " fill="#D9E7ED" transform="translate(141,148)"/>
<path d="M0 0 C2.64 0 5.28 0 8 0 C6.35 1.65 4.7 3.3 3 5 C2.34 4.67 1.68 4.34 1 4 C0.375 1.9375 0.375 1.9375 0 0 Z " fill="#C7DBEA" transform="translate(97,67)"/>
<path d="M0 0 C2.64 0 5.28 0 8 0 C6.35 1.65 4.7 3.3 3 5 C2.34 4.67 1.68 4.34 1 4 C0.375 1.9375 0.375 1.9375 0 0 Z " fill="#C6DBE9" transform="translate(32,67)"/>
<path d="M0 0 C2.31 0.66 4.62 1.32 7 2 C4.7613435 4.2386565 2.93429467 4.8996395 0 6 C-0.99 6.495 -0.99 6.495 -2 7 C-1.34 4.69 -0.68 2.38 0 0 Z " fill="#D3E4EC" transform="translate(102,130)"/>
<path d="M0 0 C2.31 0 4.62 0 7 0 C5.35 1.65 3.7 3.3 2 5 C1.34 4.67 0.68 4.34 0 4 C0 2.68 0 1.36 0 0 Z " fill="#CCDFEB" transform="translate(119,67)"/>
<path d="M0 0 C2.64 0.33 5.28 0.66 8 1 C6.35 2.65 4.7 4.3 3 6 C2.67 4.68 2.34 3.36 2 2 C1.34 2 0.68 2 0 2 C0 1.34 0 0.68 0 0 Z " fill="#CEE0EC" transform="translate(150,124)"/>
<path d="M0 0 C2.31 0 4.62 0 7 0 C5.625 2 5.625 2 4 4 C3.34 4 2.68 4 2 4 C1.67 4.66 1.34 5.32 1 6 C0.67 4.02 0.34 2.04 0 0 Z " fill="#D4E3EC" transform="translate(108,125)"/>
<path d="M0 0 C2.31 0 4.62 0 7 0 C5.625 2 5.625 2 4 4 C3.34 4 2.68 4 2 4 C1.67 4.66 1.34 5.32 1 6 C0.67 4.02 0.34 2.04 0 0 Z " fill="#D2E2EC" transform="translate(43,125)"/>
<path d="M0 0 C0.33 0.66 0.66 1.32 1 2 C3.52733235 2.65555119 3.52733235 2.65555119 6 3 C1.25 7 1.25 7 -1 7 C-0.67 4.69 -0.34 2.38 0 0 Z " fill="#C9DDEA" transform="translate(112,111)"/>
<path d="M0 0 C1.65 0 3.3 0 5 0 C5.33 0.66 5.66 1.32 6 2 C1.25 5 1.25 5 -1 5 C-0.67 3.35 -0.34 1.7 0 0 Z " fill="#D2E3EC" transform="translate(197,113)"/>
<path d="M0 0 C1.41377341 2.63904371 2.37240135 5.07120629 3 8 C-0.465 6.02 -0.465 6.02 -4 4 C-2.68 2.68 -1.36 1.36 0 0 Z " fill="#CBDEEA" transform="translate(55,111)"/>
<path d="M0 0 C2.35953094 2.35953094 2.49141413 3.77895617 3 7 C1.35 7 -0.3 7 -2 7 C-1.34 4.69 -0.68 2.38 0 0 Z " fill="#CFE0EC" transform="translate(201,100)"/>
<path d="M0 0 C0.33 0.66 0.66 1.32 1 2 C3.52733235 2.65555119 3.52733235 2.65555119 6 3 C3.68143083 4.54571278 1.49361571 5.79618552 -1 7 C-0.67 4.69 -0.34 2.38 0 0 Z " fill="#D5E5ED" transform="translate(91,91)"/>
<path d="M0 0 C1.5625 1.8125 1.5625 1.8125 3 4 C2.67 4.99 2.34 5.98 2 7 C0.35 5.68 -1.3 4.36 -3 3 C-2.01 2.67 -1.02 2.34 0 2 C0 1.34 0 0.68 0 0 Z " fill="#DBE8EE" transform="translate(119,91)"/>
<path d="M0 0 C1.32 0.33 2.64 0.66 4 1 C2.95125002 3.62187494 2.35068687 4.79371361 -0.125 6.25 C-0.74375 6.4975 -1.3625 6.745 -2 7 C-1.34 4.69 -0.68 2.38 0 0 Z " fill="#D2E2EA" transform="translate(176,72)"/>
<path d="M0 0 C1.32 0.66 2.64 1.32 4 2 C4 2.66 4 3.32 4 4 C2 5.625 2 5.625 0 7 C-0.66 6.67 -1.32 6.34 -2 6 C-1.34 4.02 -0.68 2.04 0 0 Z " fill="#C7DBE8" transform="translate(91,72)"/>
<path d="M0 0 C1.32 0.66 2.64 1.32 4 2 C4 2.66 4 3.32 4 4 C2 5.625 2 5.625 0 7 C-0.66 6.67 -1.32 6.34 -2 6 C-1.34 4.02 -0.68 2.04 0 0 Z " fill="#C7DCE8" transform="translate(91,32)"/>
<path d="M0 0 C2.31 0 4.62 0 7 0 C5.515 1.98 5.515 1.98 4 4 C3.01 3.67 2.02 3.34 1 3 C0.67 2.01 0.34 1.02 0 0 Z " fill="#CDDFEB" transform="translate(193,125)"/>
<path d="M0 0 C2.64 0.33 5.28 0.66 8 1 C6.68 2.32 5.36 3.64 4 5 C3.34 4.67 2.68 4.34 2 4 C2 3.34 2 2.68 2 2 C1.34 2 0.68 2 0 2 C0 1.34 0 0.68 0 0 Z " fill="#DAE8F0" transform="translate(75,106)"/>
<path d="M0 0 C2.35953094 2.35953094 2.49141413 3.77895617 3 7 C1.02 6.01 -0.96 5.02 -3 4 C-2.67 3.34 -2.34 2.68 -2 2 C-1.34 2 -0.68 2 0 2 C0 1.34 0 0.68 0 0 Z " fill="#DFEAEE" transform="translate(33,91)"/>
<path d="M0 0 C2.31 0 4.62 0 7 0 C7 0.66 7 1.32 7 2 C4.5 3.625 4.5 3.625 2 5 C2 4.01 2 3.02 2 2 C1.34 1.34 0.68 0.68 0 0 Z " fill="#B6D0E4" transform="translate(140,67)"/>
<path d="M0 0 C0.33 0.66 0.66 1.32 1 2 C1.99 2 2.98 2 4 2 C4 2.66 4 3.32 4 4 C2 5.625 2 5.625 0 7 C-0.66 6.67 -1.32 6.34 -2 6 C-1.34 4.02 -0.68 2.04 0 0 Z " fill="#D0E2EB" transform="translate(57,51)"/>
<path d="M0 0 C2.31 0 4.62 0 7 0 C5.68 1.32 4.36 2.64 3 4 C1.97895449 3.02149805 0.9793879 2.02019573 0 1 C0 0.67 0 0.34 0 0 Z " fill="#E0EBF1" transform="translate(140,144)"/>
<path d="M0 0 C2.31 0 4.62 0 7 0 C5.68 1.32 4.36 2.64 3 4 C1.97895449 3.02149805 0.9793879 2.02019573 0 1 C0 0.67 0 0.34 0 0 Z " fill="#CFE0EC" transform="translate(172,125)"/>
<path d="M0 0 C2.31 0 4.62 0 7 0 C5.71034824 1.37562854 4.37310707 2.70766393 3 4 C2.34 4 1.68 4 1 4 C0.67 2.68 0.34 1.36 0 0 Z " fill="#DCEAF0" transform="translate(119,107)"/>
<path d="M0 0 C2.35953094 2.35953094 2.49141413 3.77895617 3 7 C1.68 7 0.36 7 -1 7 C-1.33 6.34 -1.66 5.68 -2 5 C-1.0625 2.375 -1.0625 2.375 0 0 Z " fill="#C7DBE9" transform="translate(201,80)"/>
<path d="M0 0 C0.33 0.66 0.66 1.32 1 2 C1.99 2.33 2.98 2.66 4 3 C2.02 4.32 0.04 5.64 -2 7 C-1.34 4.69 -0.68 2.38 0 0 Z " fill="#D4E4EB" transform="translate(155,72)"/>
<path d="M0 0 C1.65 1.32 3.3 2.64 5 4 C1.535 5.485 1.535 5.485 -2 7 C-1.34 4.69 -0.68 2.38 0 0 Z " fill="#CEE0EA" transform="translate(79,51)"/>
<path d="M0 0 C1.98 0 3.96 0 6 0 C4.3545622 1.68762851 2.68711423 3.3540349 1 5 C0.67 5 0.34 5 0 5 C0 3.35 0 1.7 0 0 Z " fill="#F1F8F6" transform="translate(171,47)"/>
<path d="M0 0 C0.66 0.33 1.32 0.66 2 1 C2.625 3.5625 2.625 3.5625 3 6 C1.35 6.33 -0.3 6.66 -2 7 C-1.34 4.69 -0.68 2.38 0 0 Z " fill="#CBDEEB" transform="translate(125,40)"/>
<path d="M0 0 C0.99 0 1.98 0 3 0 C1.95125002 2.62187494 1.35068687 3.79371361 -1.125 5.25 C-1.74375 5.4975 -2.3625 5.745 -3 6 C-1.125 1.125 -1.125 1.125 0 0 Z " fill="#D5E5EB" transform="translate(177,33)"/>
</svg>
