<?xml version="1.0" standalone="no"?>
<!DOCTYPE svg PUBLIC "-//W3C//DTD SVG 20010904//EN"
 "http://www.w3.org/TR/2001/REC-SVG-20010904/DTD/svg10.dtd">
<svg version="1.0" xmlns="http://www.w3.org/2000/svg"
 width="140" height="85" viewBox="0 0 400.000000 500.000000"
 preserveAspectRatio="xMidYMid meet">

<g transform="translate(0.000000,500.000000) scale(0.100000,-0.100000)"
fill="#000000" stroke="none">
<path d="M1328 3346 c-12 -11 -23 -19 -23 -17 0 1 -17 -5 -37 -15 -20 -9 -35
-21 -32 -26 3 -5 2 -7 -3 -6 -17 4 -53 -14 -47 -24 5 -7 2 -8 -5 -3 -7 4 -22
-1 -34 -13 -21 -20 -26 -22 -45 -22 -5 0 -18 -9 -30 -20 -12 -12 -22 -18 -22
-15 0 3 -24 -9 -52 -27 -29 -18 -66 -40 -81 -48 l-29 -14 22 -18 c12 -10 26
-15 31 -12 5 3 9 0 9 -7 0 -7 3 -10 6 -6 4 3 13 0 20 -8 8 -8 22 -11 31 -8 11
4 14 3 9 -5 -4 -7 -2 -12 3 -12 7 0 11 -32 11 -84 l0 -85 28 4 c15 2 54 11 87
20 97 26 240 45 393 52 128 5 142 8 142 24 0 20 -35 43 -50 34 -6 -3 -10 -2
-10 3 0 9 -25 16 -95 28 -11 2 -40 8 -65 13 -25 5 -76 13 -115 18 l-70 8 85 5
c47 3 96 2 110 -2 14 -4 45 -9 70 -12 25 -3 65 -10 90 -15 24 -5 51 -8 60 -6
27 5 110 49 110 58 0 4 5 5 10 2 6 -3 10 -3 10 2 0 7 -63 46 -199 124 -25 14
-96 56 -158 91 l-112 66 -23 -22z"/>
<path d="M1660 2918 c-129 -9 -209 -18 -245 -27 -16 -5 -43 -9 -59 -10 -16 0
-47 -6 -70 -13 -23 -6 -45 -12 -51 -13 -50 -6 -275 -94 -275 -107 0 -5 -4 -7
-9 -3 -6 3 -14 -3 -20 -12 -6 -10 -11 -14 -11 -10 0 11 -55 -28 -103 -72 -58
-54 -78 -101 -73 -169 5 -69 4 -64 15 -58 5 4 7 -2 4 -12 -3 -13 15 -38 57
-82 33 -34 63 -60 66 -57 9 9 -22 48 -31 39 -5 -4 -6 -2 -3 3 3 6 3 41 -1 80
-7 69 -7 70 32 127 22 32 56 70 75 86 20 15 44 35 54 45 10 9 20 17 23 17 20
2 103 49 97 55 -4 5 1 5 11 2 9 -4 17 -3 17 1 0 4 8 8 18 9 9 1 35 9 57 19 22
10 49 19 60 21 25 4 135 33 155 41 8 3 18 5 21 4 3 0 41 6 85 13 43 8 120 18
169 22 99 9 499 8 555 -1 156 -24 165 -8 13 23 -99 19 -156 27 -283 37 -92 8
-258 9 -350 2z"/>
<path d="M2415 2840 c3 -5 16 -10 28 -9 21 0 21 1 2 9 -28 12 -37 12 -30 0z"/>
<path d="M1587 2655 c-105 -37 -147 -151 -94 -255 60 -121 257 -124 324 -5 25
44 30 115 12 162 -33 89 -144 134 -242 98z m151 -100 c35 -40 31 -108 -8 -147
-28 -28 -35 -30 -82 -26 -67 7 -98 39 -98 102 0 103 120 148 188 71z"/>
<path d="M2837 2656 c-50 -18 -76 -42 -98 -91 -58 -125 27 -256 164 -256 121
0 187 64 187 183 0 72 -31 121 -94 153 -56 28 -102 31 -159 11z m146 -97 c61
-65 18 -179 -68 -179 -77 0 -124 53 -112 126 7 45 31 72 71 83 44 12 77 3 109
-30z"/>
<path d="M1110 2485 l0 -175 35 0 35 0 0 70 0 70 73 0 72 0 -1 -70 -2 -70 39
0 39 0 0 175 0 175 -39 0 -40 0 2 -65 2 -65 -72 0 -73 0 0 65 0 65 -35 0 -35
0 0 -175z"/>
<path d="M1910 2485 l0 -175 40 0 40 0 0 55 c0 53 1 55 28 55 23 0 32 -9 57
-55 28 -53 30 -55 72 -55 24 0 43 2 43 5 0 3 -13 27 -30 53 -16 27 -30 54 -30
59 0 5 11 20 25 33 50 47 40 145 -19 181 -25 15 -50 19 -128 19 l-98 0 0 -175z
m185 95 c8 -7 15 -23 15 -36 0 -36 -26 -54 -78 -54 l-47 0 2 48 c0 26 1 51 2
56 1 12 88 1 106 -14z"/>
<path d="M2260 2485 l0 -175 40 0 40 0 0 175 0 175 -40 0 -40 0 0 -175z"/>
<path d="M2410 2625 l0 -35 80 0 80 0 -80 -109 c-60 -81 -80 -117 -80 -140 l0
-31 130 0 130 0 0 35 0 34 -80 3 -79 3 79 110 c54 74 80 119 80 138 l0 27
-130 0 -130 0 0 -35z"/>
<path d="M3160 2485 l0 -175 40 0 39 0 3 106 3 107 75 -107 c69 -97 78 -106
108 -106 l32 0 0 175 0 175 -35 0 -35 0 -1 -72 c-1 -40 0 -85 1 -100 1 -16 -2
-28 -7 -28 -5 0 -42 45 -82 100 -67 93 -74 100 -107 100 l-34 0 0 -175z"/>
<path d="M3670 2485 l0 -175 115 0 115 0 0 35 0 35 -75 0 -75 0 0 40 0 40 65
0 65 0 0 30 0 30 -65 0 -65 0 0 40 0 40 75 0 75 0 0 30 0 30 -115 0 -115 0 0
-175z"/>
<path d="M3970 2484 l0 -176 103 4 c80 3 110 8 137 24 94 55 114 180 43 265
-40 47 -79 59 -188 59 l-95 0 0 -176z m209 80 c81 -68 27 -184 -86 -184 l-43
0 0 105 0 105 49 0 c38 0 56 -6 80 -26z"/>
<path d="M4360 2540 c0 -165 20 -209 105 -227 60 -13 112 -1 148 36 l32 31 3
140 4 140 -35 0 -35 0 -4 -120 c-5 -136 -16 -160 -74 -160 -54 0 -64 25 -64
162 l0 118 -40 0 -40 0 0 -120z"/>
<path d="M1116 2144 c-46 -45 -19 -116 46 -122 24 -2 39 3 53 18 22 24 12 39
-15 22 -29 -18 -58 -15 -70 8 -12 23 0 54 26 64 21 8 20 8 38 -10 9 -8 24 -14
33 -12 16 3 15 6 -5 26 -26 26 -83 30 -106 6z"/>
<path d="M1377 2142 c-40 -44 -7 -122 52 -122 64 0 98 73 56 120 -24 26 -85
27 -108 2z m82 -21 c13 -13 17 -27 14 -41 -7 -26 -25 -34 -58 -26 -43 11 -28
84 18 86 4 0 16 -9 26 -19z"/>
<path d="M1630 2090 c0 -54 3 -70 14 -70 10 0 16 14 18 43 l3 42 30 -42 c44
-62 55 -56 55 27 0 56 -3 70 -15 70 -11 0 -15 -11 -15 -42 l0 -42 -31 42 c-46
62 -59 56 -59 -28z"/>
<path d="M1884 2133 c-8 -28 14 -53 47 -53 23 0 34 -19 20 -33 -8 -8 -18 -7
-36 3 -29 16 -43 7 -25 -15 25 -31 100 -11 100 26 0 15 -11 25 -40 36 -22 9
-40 22 -40 30 0 16 32 17 48 1 15 -15 26 -4 19 17 -4 10 -20 15 -46 15 -36 0
-41 -3 -47 -27z"/>
<path d="M2113 2104 c3 -30 11 -62 18 -70 15 -19 64 -18 83 2 22 21 23 124 2
124 -11 0 -16 -15 -18 -52 -3 -45 -6 -53 -24 -56 -24 -3 -34 19 -34 76 0 23
-5 32 -16 32 -14 0 -16 -8 -11 -56z"/>
<path d="M2360 2090 l0 -70 50 0 c38 0 50 4 50 15 0 10 -11 15 -35 15 l-35 0
0 55 c0 42 -3 55 -15 55 -12 0 -15 -14 -15 -70z"/>
<path d="M2570 2149 c0 -6 9 -13 20 -16 17 -5 20 -14 20 -59 0 -41 4 -54 15
-54 10 0 15 15 17 58 3 53 5 57 26 54 15 -2 22 2 22 12 0 13 -12 16 -60 16
-37 0 -60 -4 -60 -11z"/>
<path d="M2826 2095 c-14 -36 -26 -67 -26 -70 0 -12 28 -3 34 10 7 20 45 19
67 -1 33 -30 37 -9 10 59 -34 88 -50 88 -85 2z m57 -5 c4 -15 0 -20 -15 -20
-14 0 -18 5 -14 16 3 9 6 20 6 25 0 17 17 1 23 -21z"/>
<path d="M3060 2090 c0 -54 3 -70 14 -70 10 0 16 14 18 43 l3 42 29 -42 c43
-64 56 -57 56 27 0 54 -3 70 -14 70 -10 0 -16 -13 -18 -42 l-3 -42 -29 42
c-43 62 -56 56 -56 -28z"/>
<path d="M3302 2148 c3 -7 14 -14 26 -16 20 -3 22 -10 22 -58 0 -41 4 -54 15
-54 12 0 15 13 15 55 0 48 2 55 20 55 11 0 20 7 20 15 0 12 -13 15 -61 15 -44
0 -60 -3 -57 -12z"/>
<path d="M3544 2133 c-8 -28 14 -53 47 -53 23 0 34 -19 20 -33 -8 -8 -18 -7
-36 3 -29 16 -43 7 -25 -15 25 -31 100 -11 100 26 0 14 -12 25 -40 37 -22 9
-40 23 -40 30 0 15 32 16 48 0 15 -15 26 -4 19 17 -4 10 -20 15 -46 15 -36 0
-41 -3 -47 -27z"/>
</g>
</svg>
